<svg viewBox="0 0 1000 1000" width="1000" height="1000" xmlns="http://www.w3.org/2000/svg"><path d="M276.96 583.19l-67.75 115.79 19.15 4.64 108.4-99.47" fill="#49281f"/><circle cx="219.13" cy="697.3" fill="#49281f" r="30.88"/><path d="M329.21 621.94l-67.75 115.79 19.15 4.63L410.4 622.91" fill="#fcc74f"/><path d="M370.69 201.52l32.79-3.43 201.35 251.56-52.59.82z" fill="#eaad34"/><path d="M239.2 404.9L250 292.36c5.54-57.64 16.58-104.63 74-97.05l53.2 7.66 188.31 257.89z" fill="#eaad34"/><path d="M552.24 450.47L370.69 201.52l32.79-3.43" fill="none" stroke="#49281f" stroke-linecap="round" stroke-miterlimit="10" stroke-width="2"/><path d="M956.74 502.88l16.1-69.95a40.25 40.25 0 00-30.2-48.25 40.22 40.22 0 00-31.56 5.87L836 475.1 208.51 330.7a117.34 117.34 0 00-140.67 88A117.35 117.35 0 00111 538.34l58.87 44.92a241.94 241.94 0 00150.75 49.58l562.73-9.18a58.46 58.46 0 0056-45.35l17.36-75.43z" fill="#fcc74f"/><path d="M250.91 496.69s58 66.79 43.78 135.18c57.88 4.91 227.84-2.83 227.84-2.83z" fill="#49281f"/><path d="M635.64 561.31l210.93 198.16-58.73 8.94a261.51 261.51 0 01-179.93-38L253.48 498.6a4.44 4.44 0 013.09-8.1l339.87 51.75a73.28 73.28 0 0139.2 19.06z" fill="#eaad34"/><path d="M170 583.18c29.83 6.87 30.2-54.75 46.84-127s56.3-110.57 26.47-117.44l-123.93-42.8-60.2 261.73z" fill="#fcc74f"/><ellipse cx="89.3" cy="426.79" fill="#49281f" rx="134.3" ry="55.43" transform="rotate(-77.04 89.305 426.798)"/><path d="M202.37 324.43c15.78 23.64 19.14 74.4 6.36 130-16.64 72.28-54.31 125.31-84.14 118.45" fill="none" stroke="#49281f" stroke-linecap="round" stroke-miterlimit="10" stroke-width="2"/><path d="M104.1 225.12c-5 44.1-28.94 186.94-41.29 185.54S54.38 264.14 59.38 220s19.08-78.72 31.43-77.32 18.3 38.32 13.29 82.44z" fill="#a0caea"/><path d="M90.81 142.72c12.35 1.4 18.3 38.29 13.29 82.4S75.16 412.06 62.81 410.66" fill="none" stroke="#49281f" stroke-linecap="round" stroke-miterlimit="10" stroke-width="2"/><path d="M21.78 618.24c5-44.11 28.94-186.95 41.28-185.54s8.44 146.51 3.43 190.62S47.41 702 35.06 700.64s-18.29-38.3-13.28-82.4z" fill="#a0caea"/><path d="M63.06 432.7c12.35 1.4 8.44 146.51 3.43 190.62S47.41 702 35.06 700.64" fill="none" stroke="#49281f" stroke-linecap="round" stroke-miterlimit="10" stroke-width="2"/><path d="M612.2 546.48l56.75 3.43 214.8 191.44-36.98 18.44z" fill="#eaad34"/><g fill="none" stroke="#49281f" stroke-linecap="round" stroke-miterlimit="10" stroke-width="2"><path d="M883.75 741.35l-36.98 18.44-223.21-202.97M778.66 645.3l-36.98 18.45M449.83 310.04l33.49-11.79"/></g><path d="M374.15 369.53l-83.49-19.21c-5.5 23.91 26.08 52.53 74.63 71.13 2.71-13.45 6.23-32.24 8.86-51.92z" fill="#49281f"/><path d="M402.06 306.16s-22.53.59-47.79 58.79c-26.11 7.68-56.1 12.38-56.1 12.38s25.89 30.24 52.6 38.08c30.92 9.08 51.29-109.25 51.29-109.25z" fill="#fff"/><path d="M541.57 408.06l-63.85-14.7c-6.3 18.28-12.88 34.81-18 46.94 43.87.89 76.94-10.91 81.85-32.24z" fill="#49281f"/><path d="M411 305.37a31.88 31.88 0 00-33.47 30.11c-.61 11.1-1.83 22.73-3.34 34-2.63 19.68-6.13 38.44-8.86 51.92a289.94 289.94 0 0038.42 11.65 277.24 277.24 0 0056.05 7.2c14.57 1.73 29.91-1.9 23.77-20.22-8.67-25.88 3-53.61 6.54-67.42A30 30 0 00472 317.19c-20.38-7.95-43-10.9-61-11.82z" fill="#fff"/><path d="M390.56 337.94c-.61 11.1-1.83 22.72-3.34 34.05-2.63 19.67-6.13 38.43-8.86 51.92" fill="none" stroke="#49281f" stroke-linecap="round" stroke-miterlimit="10" stroke-width="2"/><path d="M491.16 346.52s3.73 76.71-109.38 80.92c-37.64-12.71-57.84-26.85-57.84-26.85s58.75-16.95 83.73-17.9c13.22-13.3 53.91-55.83 53.91-55.83" fill="#fff"/><path d="M491.16 346.52s3.73 76.71-109.38 80.92c-37.64-12.71-57.84-26.85-57.84-26.85s58.75-16.95 83.73-17.9c6.92-7 20.26-23.09 31.39-36.87" fill="none" stroke="#49281f" stroke-linecap="round" stroke-miterlimit="10" stroke-width="2"/><path d="M407.42 326.71s-2.73-29 20.86-30.95c17.65-1.47 42.17-1.06 41.28 15.69.34 5.2-40.18-3.29-40.18-3.29s-10.59-1.27-21.96 18.55z" fill="#fff"/><path d="M438.45 249.68s-26.81-17.3-29.76 1.37c-.69 11.59 7 12.61 7 12.61s1.41 12.67 18.63 10.77c19.16-18.78 4.13-24.75 4.13-24.75z" fill="#49281f"/><path d="M427.26 242.71s-28.52 48 .81 54.18c-4.82 14-7.84 25.12-7.84 25.12s17.88 10.92 32.94-6.5c2.56-16.66 7-38.37 7-38.37s10.52-32.39-32.91-34.43z" fill="#fc927a"/><path d="M470.67 260c6.94 6 7.22 19.23.05 20.17-4.85 8.27-6.53 7.48-6.53 7.48-2 6.44-7.38 6.76-7.38 6.76s5.29-24.42 2.68-26.1c-3.12-2-9.7 9.71-9.7 9.71s-4.79-3.57-2.17-8.71c0 0-6.57-4.58-1.35-10.91 0 0-11.38 5.49-16.22-9.59 0 0-14 9-17 1.2-9.13 3.75-13.43-13.59 9.65-7.63s43.89 12.08 47.97 17.62z" fill="#49281f"/><path d="M410.06 364s-9.19-38.19 3.13-49.59a20 20 0 0111-5c5.32-.73 10.55 7.75 15.12 9.89 5.88 2.77 10.39 0 9.73 5.22-2.56 20.65-39.41 29.79-38.98 39.48z" fill="#a0caea"/><path d="M449.79 278s5.35-20.3 15.34-16.24c8.42 3.46 2.21 16.26-5.38 17.41s-9.96-1.17-9.96-1.17z" fill="#fc927a"/><path d="M428.07 296.89s10.19 1.61 14.6.37a44.29 44.29 0 01-18.37 10.81z" fill="#c64242"/><path d="M410.58 361.25s20.1-47 50.22-56.28c11.79-3 8.46 7.86 7.89 11-7.11 10.89-58.11 45.28-58.11 45.28z" fill="#fff"/><path d="M456.2 223.61c9.95 1.82 27 8.24 23.21 31.92-2.4 14.91-9.64 28.82-16.93 37-6.83 7.69-13 10.46-12.45 4.73 7.09-15.28 8.47-27.23 8.54-33.88a10.68 10.68 0 00-4.82-9 72.21 72.21 0 00-28-10.89 1.61 1.61 0 01-1.2-2.34c2.99-5.7 12.84-20.98 31.65-17.54z" fill="#c64242"/><path d="M449.38 235.5s-7.18-.88-11.78-5.06c-2.25 5.69-3.43 10-3.43 10s9-.27 12.76 4.22c1.97-1.84 2.45-9.16 2.45-9.16zM460 236.77s15.13 8.21 20 15.16a6.17 6.17 0 01.72 5.62c-1 2.67-2.3 3.26-2.3 3.26s-11.13-11-26.13-13c-5.86-3.93 7.71-11.04 7.71-11.04z" fill="#fcc74f"/><path d="M470 263.39s9.33-2.25 8.74 9.46a25.31 25.31 0 01-5.43 13.8 8.7 8.7 0 01-11.6 2.06l-.85-.54s-.3-16.04 9.14-24.78z" fill="#c64242"/><path d="M461.72 288.71l-.85-.54s-.31-16 9.14-24.78" fill="none" stroke="#49281f" stroke-linecap="round" stroke-miterlimit="10" stroke-width="2"/><path d="M450.94 249c2.45 1.25 6.27-1.31 8.55-5.74s2.15-9-.3-10.29l-4.32-2.7-8.5 16.33z" fill="#fcc74f"/><ellipse cx="450.62" cy="238.42" fill="#a0caea" rx="9.01" ry="4.97" transform="rotate(-62.76 450.621 238.426)"/><path d="M432.59 242.63c2.44 1.26 6.26-1.31 8.54-5.73s2.15-9-.29-10.29l-4.32-2.7-8.52 16.32z" fill="#fcc74f"/><path d="M430.72 230.22s-6.77 1.53-7 8.38c-.18 5.65 2.2-1.67 8.68 1.89a11.37 11.37 0 01-1.68-10.27z" fill="#fcc74f"/><ellipse cx="432.27" cy="232.07" fill="#a0caea" rx="9.01" ry="4.97" transform="rotate(-62.76 432.26 232.074)"/><path d="M290.79 350.57s-12.65 43.29 91 76.87c70.11 19.95 142.61 21.18 160.06-20.65" fill="none" stroke="#49281f" stroke-linecap="round" stroke-miterlimit="10" stroke-width="2"/><path d="M269.48 340.39l14.57-13.94a39.59 39.59 0 0138.42-9.39S327 407 381.78 427.44c-50.81-10.09-104.71-31.8-115-78.21a9.41 9.41 0 012.7-8.84z" fill="#c0e4f9"/><g fill="none" stroke="#49281f" stroke-linecap="round" stroke-miterlimit="10" stroke-width="2"><path d="M322.47 317.06S327 407 381.78 427.44M411.45 305.6a73.6 73.6 0 00-3.12 11.25 98.69 98.69 0 001.73 47.15l-3.13 10.69M468.64 316.35a43.42 43.42 0 00-11.34 6.32"/></g><circle cx="275.76" cy="732.27" fill="#c64242" r="36.11"/><path d="M276.24 682.78A47.94 47.94 0 01324.87 730" fill="none" stroke="#49281f" stroke-linecap="round" stroke-miterlimit="10" stroke-width="2"/><circle cx="275.76" cy="732.27" fill="#49281f" r="14.11"/><circle cx="880.51" cy="665.07" fill="#c64242" r="26.8"/><circle cx="880.51" cy="665.07" fill="#49281f" r="10.47"/><path d="M320.63 632.84s35.82 7.32 17.06 57c19.27-18.2 65.69-59.93 65.69-59.93" fill="#49281f"/><path d="M796.65 499.5l6 20.67a6.93 6.93 0 004.49 4.64l20.45 6.75a6.94 6.94 0 011.74 12.32L811.57 556a7 7 0 00-3 5.7l-.09 21.54a6.94 6.94 0 01-11.18 5.46l-17-13.18a7 7 0 00-6.36-1.12l-20.58 6.6a6.94 6.94 0 01-8.65-9l7.29-20.24a7 7 0 00-.9-6.4l-12.6-17.47a6.94 6.94 0 015.83-11l21.53.64a6.93 6.93 0 005.8-2.83l12.74-17.37a6.93 6.93 0 0112.25 2.17z" fill="#fff"/><g fill="none" stroke-linecap="round" stroke-miterlimit="10" stroke-width="2"><path d="M839.91 547.9l90.24 14.24M253.33 455.34l476.66 75.21" stroke="#fff"/><path d="M259.09 408.41a302.55 302.55 0 01-7.65 55.69c-16.63 72.29-54.3 125.32-84.13 118.45" stroke="#49281f"/></g><path d="M852.44 490.07s74.68 58.83 78.65 107.51c7.15-5.61 15.78-50.9 15.78-50.9" fill="#49281f"/><path d="M934.67 505.06L980 547.64l-12.62 1.92a56.18 56.18 0 01-38.67-8.17l-76.16-49.81a1 1 0 01.66-1.74l73 11.12a15.7 15.7 0 018.46 4.1z" fill="#eaad34"/><path d="M934.67 505.06L980 547.64" fill="none" stroke="#49281f" stroke-linecap="round" stroke-miterlimit="10" stroke-width="2"/><g fill="#e8f5fc"><path d="M973.7 182.35H565.42s85.91-77.24 131.63-54.35c35.46-51.23 145.81-51.23 149.75 15 37.84-29.95 88.28 1.58 83.55 12.61 22.07-2.42 43.35 26.74 43.35 26.74zM624.53 909.61H239.11s75.06-90.24 138.31-50.6c47.23-58.2 113-50.61 125.66-10.12 52.29-3.38 52.29 21.08 48.92 32.05 37.11-6.75 72.53 28.67 72.53 28.67zM258.81 136.63H147.67s20.5-52 55.18-45.71 36.26 22.86 36.26 22.86 18.89-6.31 19.7 22.85z"/></g><path d="M42.34 643.47l37.89-462.32" fill="none" stroke="#fff" stroke-linecap="round" stroke-miterlimit="10" stroke-width="2"/><path d="M60 393.45v.05a28.72 28.72 0 00-21.65 4.56c-6.81 4.56-11.53 10.68-13.23 18s-.13 14.91 4 22A28.72 28.72 0 0049 452.2v.06l29.19 5.49a7.43 7.43 0 008.67-5.93l8.31-44.22a7.42 7.42 0 00-5.92-8.67z" fill="#c64242"/></svg>