<svg viewBox="0 0 1000 1000" width="1000" height="1000" xmlns="http://www.w3.org/2000/svg"><path d="M347.74 328.93s-5.13 2.39-1.91 7.69 5.76 13 9 10.23 7.86-7.21 4.2-10.37-5.09-4.12-5.51-6.17" fill="#78a5a3"/><path d="M362.42 319.19A244.23 244.23 0 01400.67 296c.79-5-4.83-9.85-9.68-8.31a5.24 5.24 0 00-1.74-3.23c-9-9.61-24.59-12.33-36.36-6.37s-18.78 20.1-16.39 33.07a14 14 0 01.44 5 19.43 19.43 0 01-1.35 3.56 10.4 10.4 0 000 8.38 7.09 7.09 0 007 4c3.41-.48 5.83-3.77 9.18-4.55M411.59 401.15c.72-.38 24.49 6 7.89-6.37s-60.63-5.81-67-.91-36.33-8.17-34.88-11.25-4.41-10.7-15.47-3.11-20.47 20.27-23.13 30.16-5 10.24-2.5 15.36 3.13 8.38-3.37 14.47-7.07 25.29-9.58 41.37-5.26 35.13 4.9 45.29 33.39 14.78 40.83 15.65 24.09-3.64 26.38-10.37 7.81-7.82 13.91-3.64 17.79 12.7 26.68 3.81 22-27.34 22-27.34L408.93 478s4.4-5.55-1.64-8.43-10.18-2.25-11.86 3.13-13.11 37.06-17.17 38.48S352.79 528 346.62 496s-1.74-50.7-.15-56.56S355.7 413.93 365 409s46.59-7.85 46.59-7.85z" fill="#cae5e3"/><path d="M333.16 533.9c-1.22 1.09-15.55 6.38-13.06 19.57s11 63.38 13.06 71.23 4.68 22.38 0 31.13-29.67 71.57-29.93 72.33-9.23 16 6.47 15 26.09-1.09 26.35 3.59 2.25 6.65 2.25 6.65 7.85-9 12.62-8.13 5.08 12 14.55-4.51 49.06-81.37 49.92-88.9 14.5-40.75 15.71-52.43 3.9-11.18 3.9-11.18 30.06-2.16 29.22 2.33-3.22 29.81-3.22 29.81-1.31 9.92 11.88 8.1 14.48 5.37 16.22 10.19 1.87 8.91 3.11 7.58 11.18-8.81 17.42-8.26 11.94-6.17 15.35-15.67 13.16-56.56 11-69-5.9-41.9-40.98-47.23-49.25-11.26-57.29-2.82-42.8 21.15-42.8 21.15-39.72 18.87-61.59 10.27" fill="#78a5a3"/><g fill="#cae5e3"><path d="M576.59 396.3l5.55-154.77c28.52-1.6 57 3.41 85.07 8.4 2.81.49 5.77 1.06 7.95 2.9s3.18 5.41 1.32 7.58a8.17 8.17 0 01-4.19 2.14l-77.07 21.92M577.29 435q-2.89 118.16 1.05 236.34M125 644.08q23.34-23.82 48.35-45.93c8.5-7.51 18.24-15.28 29.57-15.08 15.14.27 25.82 14.14 37.79 23.4a6.21 6.21 0 003.83 1.69 6.52 6.52 0 003.64-1.9l27.07-22.73M610.26 371.87c8.56-14.09 22.51-25.23 38.65-28.6 23.57-4.94 48.06 7.21 64.42 24.87s26.23 40.21 36.13 62.16 20.51 44.28 37.89 60.94c0-10.5 13.61-16.51 23.57-13.17s16.69 12.4 22.77 21L875 557.22"/></g><g fill="#78a5a3"><path d="M579.11 396.3l5.56-154.77-2.53 2.52a258 258 0 0144.62 2c7.52.93 15 2.09 22.49 3.34 6.83 1.14 14.18 1.76 20.81 3.77 1.34.4 4.46 1.66 4.69 3.45.4 3.14-3.16 3.55-5 4.09l-10.35 2.9-21.62 6.14L594.55 282c-3.12.88-1.79 5.76 1.34 4.86l52.63-15c8.44-2.4 17.38-4.24 25.6-7.3 4.75-1.77 7.34-5.9 4.89-10.85-2.87-5.77-10.39-6.17-15.92-7.15-9-1.58-18-3.12-27-4.42-17.89-2.57-35.91-4.13-54-3.22a2.58 2.58 0 00-2.52 2.53l-5.51 154.85c-.11 3.25 4.93 3.25 5.05 0zM574.77 435q-2.87 118.16 1.05 236.34c.11 3.24 5.15 3.25 5 0q-3.9-118.12-1-236.34c.08-3.25-5-3.24-5.05 0zM126.78 645.87q18.69-19.05 38.42-37c11.06-10.05 25.3-26.3 42-22.74 14.17 3 21.67 16.41 33.41 23.39 6 3.55 11.16-3 15.36-6.5l21-17.68c2.49-2.09-1.09-5.64-3.57-3.57l-21 17.68c-1.77 1.49-3.93 4.09-6 5.05-3.18 1.48-4 .13-6.19-1.63-2.73-2.22-5.32-4.61-7.95-6.94-9.3-8.24-19.94-16.81-33.19-15.11-15 1.93-26.82 14.83-37.43 24.48q-19.74 18-38.41 37c-2.28 2.32 1.28 5.89 3.56 3.57zM287.55 572.55c3.25 0 3.25-5 0-5s-3.25 5 0 5zM612.44 373.14c8.51-13.66 21.85-24.5 37.91-27.59 16.71-3.21 33.78 2.74 47.4 12.28 29.29 20.51 41.11 56.66 55.9 87.52 8.31 17.34 18 34.15 31.91 47.68a2.56 2.56 0 004.31-1.79c.49-9 11.5-13 19.21-11.08 9.78 2.46 16.47 11.8 22 19.54q21 29.34 41.75 58.79c1.87 2.63 6.24.11 4.36-2.55l-26.39-37.17c-7.8-11-15-23-24.21-32.87-6.59-7.07-15.44-12.61-25.44-10.93-8.47 1.43-15.83 7.31-16.31 16.27l4.3-1.78c-27.9-27.21-37.26-66.33-56.51-99.11-16.57-28.2-45.92-55.44-81.3-50.06-18.28 2.77-33.63 14.89-43.24 30.31-1.73 2.76 2.64 5.3 4.36 2.54z"/></g><path d="M393.76 301.37a56.84 56.84 0 0012.35 17.52c1.16 1.11 2.38 2.16 3.63 3.16 1 .79 4 2.26 4.47 3.37 1.19 3-3.71 5.45-5.2 7.35-3.94 5-3.95 11.74-4.14 17.81-.24 7.88-.52 15.75-.75 23.62-.09 3.25 4.95 3.25 5.05 0q.36-12.74.8-25.46c.14-4 .16-8.46 2.36-12 1.69-2.68 4.82-4 6.44-6.76 3-5-1-8.13-4.69-10.95a52.55 52.55 0 01-16-20.24c-1.35-2.95-5.7-.39-4.36 2.54zM381 323.4c3.25 0 3.26-5 0-5s-3.25 5 0 5z"/><path d="M395.43 318.3v-.06l-.26 1.94-.9.91H392l-1.16-1.51v-1.35.06a2.52 2.52 0 001.76 3.1 2.59 2.59 0 003.11-1.76 2.66 2.66 0 10-5.14 0 2.53 2.53 0 004.87-1.34zM379.6 336.64a14.46 14.46 0 0012.45 1.8c3.08-1 1.77-5.84-1.35-4.87a9.58 9.58 0 01-8.55-1.28c-2.69-1.83-5.22 2.54-2.55 4.35zM364.82 318.94a9.47 9.47 0 00-13.62 6.65c-1.41 6.8 3.62 12.25 9.62 14.4 3.06 1.1 4.38-3.78 1.34-4.87s-6-3.5-6.14-7c-.14-3.31 2.88-6.53 6.25-4.84 2.9 1.46 5.45-2.9 2.55-4.35z"/><path d="M363.69 321.36a254.17 254.17 0 0138.25-23.19 2.51 2.51 0 001.25-2.18 10.51 10.51 0 00-12.87-10.74l3.11 1.76c-1.15-4.88-6.56-8.43-10.75-10.63a35.14 35.14 0 00-16.2-4 32.54 32.54 0 00-27.54 15.23 34.87 34.87 0 00-5.25 15.1 34.15 34.15 0 00.26 8.39 12.79 12.79 0 01-.54 7.28 20.36 20.36 0 00-1 3.39c-.83 4.95 1.31 10.22 6.15 12.16 5.75 2.32 8.93-2.36 13.92-4 3.08-1 1.76-5.88-1.34-4.86-4.09 1.34-8.78 6.67-12.46 2.43-3.4-3.92.62-8 .82-12.24s-1.26-8.25-.77-12.55a30.12 30.12 0 014.57-12.55 27.21 27.21 0 0121.77-12.7 30.43 30.43 0 0111.8 1.82c3.76 1.36 10.67 4.69 11.69 9a2.57 2.57 0 003.11 1.76 5.47 5.47 0 016.48 5.88l1.25-2.18A253.83 253.83 0 00361.14 317c-2.59 1.9-.07 6.28 2.55 4.35z"/><path d="M341.26 333.25a66.32 66.32 0 005.29 9.45c1.68 2.48 3.68 5.94 6.27 7.53 5.68 3.49 9.54-6.19 11.1-10 1.22-3-3.66-4.31-4.87-1.34a28.69 28.69 0 01-3.22 5.94c-1.12 1.56-.73 1-1.7-.35-.68-1-1.49-1.86-2.19-2.83a64.57 64.57 0 01-6.32-10.93c-1.36-2.95-5.71-.39-4.36 2.55zM348.51 358.59L383 369.41l16.78 5.26c2.47.77 20.17 4.7 16.34 10-1.91 2.63 2.47 5.15 4.36 2.54 8.51-11.72-17-16.63-23.09-18.56l-47.54-14.9c-3.1-1-4.43 3.89-1.34 4.86zM378.6 461.68a180 180 0 0089.06 16 175.75 175.75 0 0044.26-9.17c15.53-5.43 30.14-13.08 44.67-20.71 2.88-1.51.33-5.87-2.55-4.36-13.89 7.3-27.84 14.65-42.65 19.92a170.48 170.48 0 01-43.73 9.28 174.93 174.93 0 01-86.52-15.32c-2.93-1.35-5.49 3-2.54 4.36zM446.9 409.24a183.79 183.79 0 0050.18-1.32c7.93-1.31 15.64-3.66 23.57-4.94 10.49-1.69 18.49 1.34 26.67 7.81 2.52 2 6.12-1.55 3.57-3.56-6.1-4.83-12.43-9-20.35-9.75-8.62-.79-17.1 1.93-25.42 3.77a179.63 179.63 0 01-58.22 2.94c-3.23-.35-3.2 4.7 0 5.05zM555.52 404.77a56.58 56.58 0 018.88 27.11c.2 3.22 5.25 3.25 5.05 0a61.88 61.88 0 00-9.58-29.66c-1.73-2.73-6.1-.2-4.35 2.55z"/><path d="M566.27 393.31a30.48 30.48 0 00-8.84 9.25c-1.7 2.77 2.67 5.31 4.36 2.54a24.32 24.32 0 017-7.43c2.66-1.83.14-6.2-2.55-4.36zM588.62 393.91a35.63 35.63 0 01-12.12 2.74c-3.23.14-3.25 5.19 0 5a39.19 39.19 0 0013.5-2.88c3-1.22 1.66-6.1-1.34-4.86zM587.15 410.31c3.24 0 3.25-5 0-5s-3.26 5 0 5zM588.93 419.67l.56-.56a2.52 2.52 0 00-3.57-3.57l-.56.56a2.52 2.52 0 003.57 3.57zM587.37 427.06a67.66 67.66 0 01-18.69 4.94c-3.19.37-3.22 5.42 0 5.05a75.9 75.9 0 0021.24-5.64c3-1.27.41-5.61-2.55-4.35zM420.15 401.4c-15.67-4.88-36.4-4.23-51.61 2-18.19 7.4-24.3 29.88-26.66 47.5-2.69 20-6.43 49.43 11.31 64.07 5.07 4.19 12.2 6.48 18.58 4.13 5.39-2 9.21-6.72 12.06-11.5 4-6.75 6.66-14.28 9.47-21.59 2.1-5.5 4.13-12.79 8.88-16.69 2.51-2.06-1.08-5.61-3.57-3.56-7.53 6.17-10 18.88-13.5 27.48s-9.39 23.76-21.21 21.47c-9.47-1.86-14.57-11.54-16.95-20-3.14-11.23-2.07-23.21-1-34.68 1.52-16.88 4.94-41.79 21.76-50.73 7.66-4.08 17.14-5.13 25.67-5.5s17.32 0 25.47 2.48c3.11 1 4.44-3.9 1.34-4.86zM324.52 378.74c.45-1.82.3-4.87 2.57-5.54 1.77-.53 5.69 1.35 7.27 1.82 2.28.69 16.85 4.23 11.29 8.64-2.54 2 1.05 5.57 3.57 3.57a7.38 7.38 0 001.67-9.33c-2.11-4.06-7.07-5.3-11.08-6.51-4.26-1.29-10-4.2-14.62-3s-4.59 5.26-5.54 9c-.79 3.15 4.07 4.49 4.87 1.34zM309 375.35c-10.61 1.24-19.18 7.7-24.9 16.55a70.59 70.59 0 00-7.65 17.32c-1.61 5.08-4.25 11.47-2.3 16.79 1.81 4.94 7.16 8.46 11.46 11.07A69.82 69.82 0 00302 444c10.78 3.18 23.58 6.56 34.16 1.16 2.9-1.47.35-5.83-2.54-4.36-8.56 4.37-19.15 1.37-27.9-1-8.29-2.24-20.47-6-25.55-13.59-3.18-4.75-.17-11.43 1.45-16.45a68.42 68.42 0 015.6-13.19c4.67-8.14 12.19-15.06 21.83-16.18 3.18-.38 3.22-5.43 0-5z"/><path d="M277.17 429.73c-11.11 12.23-14 28.72-16.56 44.5-2.64 16.48-4.21 34.37 4.65 49.36 8.45 14.31 23.61 18.26 39.14 20 8 .91 15.76 1.3 23.12-2.56 6.68-3.51 11.73-9.39 15.8-15.61 1.78-2.73-2.59-5.26-4.36-2.55-3.73 5.71-8.4 11.11-14.65 14.13-7.15 3.45-15.31 2.18-22.9 1.18-14.51-1.9-27.55-7-33.85-21.14s-4-30.46-1.45-45.32c2.31-13.6 5.06-27.9 14.63-38.44 2.18-2.4-1.38-6-3.57-3.57z"/><path d="M340.28 525.69c9.06 7.77 20.74 12.45 32.77 10.1 8.76-1.7 14.61-7.55 19.31-14.82 5.16-8 8.75-16.92 12.24-25.72 2.81-7.08 5.06-15 9.44-21.33 1.86-2.67-2.52-5.2-4.36-2.54-3.48 5-5.48 11.16-7.7 16.8-3.1 7.91-6.14 15.87-10.06 23.42-3.28 6.32-7.42 13.79-13.95 17.27-11.27 6-25.15 1-34.12-6.75-2.46-2.11-6 1.45-3.57 3.57zM345.83 314.05c3.25 0 3.26-5.05 0-5.05s-3.25 5.05 0 5.05zM354.81 307.69c3.24 0 3.25-5 0-5s-3.26 5 0 5zM364.15 300.59c3.25 0 3.25-5 0-5s-3.25 5 0 5zM375.37 293.49c3.24 0 3.25-5.05 0-5.05s-3.26 5.05 0 5.05z"/><path d="M446 492.92c-6.19 8-16.76 12.65-25.73 16.7A285.66 285.66 0 01386.85 522c-3.1 1-1.78 5.83 1.34 4.87A296.17 296.17 0 00422.82 514c9.35-4.22 20.31-9.17 26.76-17.49 2-2.53-1.58-6.13-3.57-3.57z"/><path d="M444.73 502.7a152.63 152.63 0 0140.32 1.9c10.73 2 21.64 5.22 30.46 11.87 19.3 14.56 20.27 43.22 17.54 65.14-3 24.51-12.62 47.82-24.18 69.46-2.14 4-6.18 8.71-6.71 13.29s3.86 5.83 6.41 8.68c7.77 8.65-8.76 8.45-13.17 8.34a116.68 116.68 0 01-19.73-2.16q-5.51-1.1-10.88-2.69a28.84 28.84 0 01-4.45-1.43c-2.94-1.48-2.8-2.44-2.58-5.36.52-7.21 1.24-14.4 2.05-21.58 1.72-15.45 4-30.83 6.84-46.12.58-3.17-4.28-4.53-4.87-1.34q-4.15 22.63-6.8 45.5c-.9 7.83-1.7 15.68-2.27 23.54-.37 5.08.31 8 5.41 9.93a115.66 115.66 0 0042.88 6.76c4.22-.11 9.4-.32 12.44-3.74 3.19-3.59 2.35-8.56-.4-12.13-1.7-2.21-4.39-3.09-4.84-5.8-.53-3.13 2.69-6.83 4.17-9.56 3.73-6.88 7.22-13.88 10.39-21a201.45 201.45 0 0012.83-37.93c5.25-23.72 7.18-55-8.56-75.44-8.18-10.62-20.83-16.36-33.54-19.54a150.92 150.92 0 00-48.76-3.6c-3.22.26-3.25 5.31 0 5zM319.12 540.12c-4.7 21.59 2.19 44 6.93 64.94 2.47 11 4.86 22.15 4.95 33.44.1 14.12-5.31 26.8-10.79 39.54-10.76 25-20.86 50.4-27.61 76.81-1.69 6.6-3.17 13.25-4.38 19.95-.85 4.69-3 11-1.41 15.73s6.26 5.56 10.52 6.28a174.23 174.23 0 0021.67 2.26 167.91 167.91 0 0023-.54c5.55-.52 11.4-1.31 16-4.72 3.91-2.9 6.64-7.73 6.14-12.7-.66-6.5-8.33-7.61-13.43-9.93l.91 3.45c25.92-61.07 75.54-112.53 82.76-180.79 1.91-18.15.25-36.52-5.95-53.72-1.1-3-6-1.73-4.87 1.34 23.37 64.78-18.85 127.67-50.46 181.07-9.5 16.05-18.55 32.37-25.84 49.55-.49 1.15-.46 2.83.91 3.45 2.7 1.24 5.42 2.46 8.12 3.71 3 1.4 3.56 2.7 2.13 6.18-2.52 6.12-9.82 7.39-15.65 8a168.31 168.31 0 01-36.18-.36c-3.25-.38-6.55-.77-9.76-1.43-4.51-.92-5.56-3.87-4.92-8.14.91-6.12 2.09-12.21 3.44-18.26a345.58 345.58 0 019.56-34c7.47-22.42 17.75-43.62 26-65.73a75.86 75.86 0 005.03-30.5c-.46-9.24-2.21-18.39-4.18-27.42-4.62-21.24-12.53-44.22-7.78-66.1.69-3.17-4.17-4.52-4.86-1.34zM428.08 408.26c3.25 0 3.25-5.05 0-5.05s-3.25 5.05 0 5.05zM438.46 409l.37-.37a2.52 2.52 0 00-3.56-3.57l-.38.37a2.52 2.52 0 103.57 3.57zM426.71 360.29c10.55-6.31 21.82-9.67 27.19-21.8a30.78 30.78 0 002.34-16.43c-.77-5.95-4.78-17.12 3.25-20 3-1.1 1.72-6-1.35-4.86-13.37 4.84-6.32 19.61-6.65 29.64a26 26 0 01-8.63 18.51c-5.4 4.75-12.6 7-18.7 10.62-2.78 1.66-.25 6 2.55 4.35zM461.3 292.54a41 41 0 0129.7-2.47c3.12.9 4.46-4 1.34-4.86a46.43 46.43 0 00-33.61 3c-2.92 1.42-.37 5.77 2.55 4.36z"/><path d="M464 286a39 39 0 01-3.23-12.12c-.56-6.34 8.24-7.64 9.39-1.67.62 3.19 5.48 1.84 4.87-1.34-.66-3.42-3.51-5.78-6.55-7.25-3.52-1.72-7.06-.33-9.89 2.09-6.22 5.3-1.63 16.71 1.05 22.84 1.31 3 5.66.4 4.36-2.55z"/><path d="M463.81 254.86a31.4 31.4 0 00-.42 9.67 2.58 2.58 0 002.52 2.52 2.53 2.53 0 002.52-2.52 27.39 27.39 0 01.25-8.33c.61-3.17-4.25-4.53-4.87-1.34zM473.92 254.7l.29 2.52a2.76 2.76 0 00.73 1.79 2.6 2.6 0 001.79.73 2.54 2.54 0 002.52-2.52l-.25-2.52a2.77 2.77 0 00-.74-1.79 2.63 2.63 0 00-1.78-.74 2.57 2.57 0 00-2.53 2.53zM484.07 256.79c.07.09.48.85.36.55 0 .08.21.79.14.36a3.48 3.48 0 010 .79v.11a4.91 4.91 0 01-.17.5 2.54 2.54 0 001.76 3.1 2.58 2.58 0 003.11-1.76 6.9 6.9 0 00-.82-6.2 2.6 2.6 0 00-3.46-.9 2.55 2.55 0 00-.9 3.45zM492.08 262.84a65.1 65.1 0 01-2.64 22.24c-.93 3.12 3.94 4.46 4.87 1.35a69.49 69.49 0 002.82-23.59c-.17-3.24-5.22-3.26-5.05 0zM300.23 746c7.15-.29 14.31-.36 21.47-.13 3.84.12 9.42-.81 11.54 3.34 1.27 2.5 1.25 6.56 1.71 9.32.4 2.38 3.48 2.16 4.61.61 4.53-6.21 12-11.8 19.9-7.91 2.9 1.43 5.46-2.92 2.55-4.36-10.59-5.22-20.52 1.1-26.8 9.72l4.61.6c-1.18-7-1.43-14.83-9.9-15.94-9.68-1.28-20-.69-29.69-.3-3.24.13-3.26 5.18 0 5.05zM462.82 630.23c5.77.21 11.88.55 17.48 2.09 7.24 2 6.88 9.83 6.42 16-.15 2 2.23 3 3.8 2.18 4-2 6-6.1 9.81-8.35a17.3 17.3 0 0114.85-1.15c3.07 1.1 4.39-3.78 1.35-4.86a22.06 22.06 0 00-15.64.16 21.12 21.12 0 00-5.9 3.47c-2.46 2-4.12 4.89-7 6.36l3.8 2.18c.49-6.57.48-14.53-5.51-18.79s-16.42-4.06-23.44-4.31c-3.25-.12-3.25 4.93 0 5z"/><g fill="#cae5e3"><path d="M371.57 327.04h3.79v3.79h-3.79zM376.79 548.18c2.85 9.22-5.25 13.74-9.91 20-4 5.4.24 13.38 1.4 19.21a155.23 155.23 0 011.33 52.31c-2.49 17.1-8.15 33.09-15.31 48.75-6.74 14.74-13.92 29.35-17.38 45.29-.69 3.17 4.18 4.52 4.87 1.34 3.75-17.29 11.95-32.91 19.07-49 6.76-15.25 11.76-31 13.95-47.53a161.06 161.06 0 00-1.32-50.77c-.76-4-2.45-8.22-2.82-12.26-.46-5.12 3.57-7.23 6.45-10.85 4.11-5.17 6.56-11.34 4.54-17.88-1-3.1-5.83-1.78-4.87 1.34zM337.46 748.07c3.25 0 3.25-5.05 0-5.05s-3.25 5.05 0 5.05zM444 556.49c14.65-6.09 31.5-.62 38.7 13.82 3.78 7.59 3.39 16.06 2.08 24.21-1.39 8.68-3.43 17.27-5.35 25.84-.7 3.16 4.16 4.51 4.87 1.34 4-17.66 11.73-39.62 1.36-56.44a34.8 34.8 0 00-43-13.63c-2.95 1.22-1.65 6.11 1.35 4.86z"/></g><g fill="#78a5a3"><path d="M288.45 450.41a158 158 0 00-6.27 70.7c.43 3.2 5.3 1.84 4.86-1.35a152.7 152.7 0 016.27-68c1-3.1-3.86-4.42-4.86-1.34zM295.77 424.61a27.73 27.73 0 008.38 4.63c3.08 1.06 4.4-3.82 1.34-4.87a20.4 20.4 0 01-6.15-3.33 2.61 2.61 0 00-3.57 0 2.54 2.54 0 000 3.57zM490 667.6h2.25a2.53 2.53 0 000-5.05H490a2.53 2.53 0 000 5.05zM492.05 659.64l1.12-.3a2.52 2.52 0 00-1.34-4.86l-1.12.3a2.52 2.52 0 101.34 4.86zM329.18 770.09a5.49 5.49 0 006.47.62 2.52 2.52 0 10-2.55-4.35l-.33.19c.3-.13.32-.15.05-.07.42-.06.21 0-.09 0h-.05c.21 0 .19 0 0 0s-.24-.08.07 0c-.23-.15-.22-.13 0 .06a2.52 2.52 0 00-3.57 3.57zM328.06 780.24a6.45 6.45 0 005.91 0 2.54 2.54 0 00.91-3.45 2.59 2.59 0 00-3.46-.91c.48-.23-.11 0-.21.05-.59.16.41 0-.2 0h-.21c.3 0 .31 0 0 0l-.21-.06a2.53 2.53 0 00-2.55 4.36zM436.6 465.24c9.48-10.95 25.4-12 36-2a2.55 2.55 0 004.22-1.12 2.55 2.55 0 00-3.11-3.1c-3.17.69-1.83 5.56 1.35 4.87l-3.06-3.08 4.22-1.11c-12.51-11.78-31.86-11.1-43.17 2-2.12 2.44 1.44 6 3.57 3.56zM467.55 374.26a13.37 13.37 0 018.69-14.43c3.05-1.06 1.74-5.94-1.34-4.86a18.53 18.53 0 00-12.21 20.64c.51 3.19 5.37 1.84 4.86-1.35zM430.62 221.68a58.68 58.68 0 0114 16.54c1.61 2.83 6 .29 4.36-2.54a62.42 62.42 0 00-14.78-17.56c-2.5-2-6.09 1.51-3.57 3.56zM469 203.3a235.19 235.19 0 003.11 28.76c.54 3.2 5.4 1.84 4.86-1.34A225.46 225.46 0 01474 203.3c-.14-3.24-5.19-3.26-5 0zM507.06 214.51a44.9 44.9 0 01-1 13.92c-.72 3.16 4.14 4.51 4.87 1.34a48.94 48.94 0 001.13-15.26c-.26-3.21-5.31-3.24-5 0zM645.77 220.58l-1.12 1.12a2.52 2.52 0 103.57 3.57l1.12-1.12a2.52 2.52 0 10-3.57-3.57zM666.78 227.9l2.24-1.12a2.53 2.53 0 00.9-3.45 2.57 2.57 0 00-3.45-.9l-2.24 1.12a2.54 2.54 0 00-.91 3.45 2.59 2.59 0 003.46.9zM687.93 237.22c3.25 0 3.25-5.05 0-5.05s-3.25 5.05 0 5.05zM598.4 499.37l.93 65c0 3.24 5.09 3.25 5 0l-.93-65c-.05-3.25-5.1-3.26-5.05 0zM625 514l-1.3 29.15c-.15 3.25 4.9 3.24 5 0L630 514c.15-3.24-4.9-3.24-5 0zM425.53 732.68a195.39 195.39 0 0148.12-31.81c14.57-6.77 45.09-21.34 55.26-1a2.55 2.55 0 004 .51c25.4-25.37 62.32-32.06 96.32-37.87 3.19-.55 1.84-5.41-1.34-4.87-34.94 6-72.48 13.13-98.55 39.17l4 .51c-10.56-21.13-38.62-10.84-54.87-4a199.82 199.82 0 00-56.47 35.8c-2.42 2.17 1.16 5.73 3.57 3.56zM125.68 317.26q34.6-5.06 69.47-8c1.24-.11 2.69-1.08 2.53-2.53-1.18-10.35 3.19-21.45 12.33-27 6-3.69 10.58 4.64 13.19 9.21a47.65 47.65 0 015.8 17.21c.3 2.26 3.37 3.72 4.7 1.28 1.93-3.55 8.91-14.26 13.55-7.39 1.91 2.83.86 6.7 4 9 3.4 2.46 6.94-1.54 10.18-2.7a29.23 29.23 0 0117.34-.64c3.14.81 4.48-4.05 1.34-4.87a34.25 34.25 0 00-27.65 4.48h2.55c-2.57-1.16-2.34-6.53-4-8.74a9.1 9.1 0 00-6.81-3.34c-7.38-.4-11.65 5.92-14.79 11.69l4.71 1.27a53.28 53.28 0 00-8.17-22.6c-3-4.6-7.55-11.59-14-10.2-6.2 1.33-11.67 7.46-14.78 12.65a33 33 0 00-4.47 20.71l2.52-2.52q-35.52 3-70.81 8.2c-3.2.47-1.84 5.34 1.34 4.87zM701.14 311.15l34.18-5.15 17.58-2.64c3.81-.57 7.59-.86 10.27-3.9 5.39-6.12 6.19-16.88 15.54-19.24 9.83-2.48 14.63 9.81 17 17 .55 1.67 2.9 2.64 4.21 1.11 10.92-12.7 30.28-3 44.09-2.83 3.25 0 3.25-5 0-5.05-15.48-.23-35.35-10-47.65 4.31l4.21 1.12c-2.48-7.47-6-16.46-13.8-19.81-7.94-3.42-15.46 1.1-20.24 7.42-2.79 3.7-4 8.57-6.82 12.1-2.14 2.64-6 2.57-9.15 3l-9.77 1.47-41 6.15c-3.2.48-1.84 5.34 1.34 4.86z"/></g></svg>