<svg viewBox="0 0 1000 1000" width="500" height="500" xmlns="http://www.w3.org/2000/svg"><path d="M97.83 193.66s-70.4-8.81-66.8-44.85c2.89-23.78 26.67-7.93 26.67-7.93s-2.16-26.67 19.46-21.62c16.69 3.89 9.37 21.62 9.37 21.62s12.26-22.34 25.23-13-26.41 43.6-13.93 65.78z" fill="#fcc74f"/><path d="M31 148.81c2.89-23.78 26.67-7.93 26.67-7.93s-2.16-26.67 19.46-21.62c16.69 3.89 9.37 21.62 9.37 21.62s12.26-22.34 25.23-13" fill="none" stroke="#49281f" stroke-linecap="round" stroke-miterlimit="10" stroke-width="2"/><path d="M139.87 362.16s36-13.7 47.57 19.46c2.88 19.46-10.81 7.21-10.81 7.21s-2.16 13-10.81 3.6c-5.77 10.81-12.26 3.6-10.09-4.33s-3.05-21.91-15.86-25.94z" fill="#fcc74f"/><path d="M187.44 381.62c2.88 19.46-10.81 7.21-10.81 7.21s-2.16 13-10.81 3.6c-5.77 10.81-12.26 3.6-10.09-4.33" fill="none" stroke="#49281f" stroke-linecap="round" stroke-miterlimit="10" stroke-width="2"/><path d="M174.26 234.74s-30.79-18.9-26.46-66.47c15.13 4.33 32.02 32.73 26.46 66.47zM134.58 216.42s-10.21 34.65-57.26 42.89c.23-15.74 23.26-39.46 57.26-42.89z" fill="#dee099"/><g fill="#fc927a"><path d="M516.83 380.18c33.15 45.4 17.65 109-33.88 198.93 40.37-55.5 73-113.29 99-157.55 19.21-32.73 69.76-37.09 81.19-39.94 50.79-12.67 22.61 19.93 21.63 61.26 0 0-128.58 244.68-239.25 222.79-99.65-19.71-4-162.74-4-162.74s48.72-83.88 37.87-122.75M458.06 364.6c-2.27 6.41-19.23 18.56-37.12.65s-14.2-22-9.2-26.78c0 0 10.12-8.06 37.29 12.65 18.16 15.71 9.03 13.48 9.03 13.48z"/><path d="M532.61 417.42c-6.27-53.35-67.29-71.89-78.81-96.18-2.89-5.84-23.86 5.64 1.81 40.12-20.92 10.56-25.49 35.83-13.82 47.95s-18.85 9.35-18.85 9.35 58.22 10.56 66.76 18.11"/></g><g fill="none"><path d="M453.8 321.24c-2.89-5.84-23.86 5.64 1.81 40.12-20.92 10.56-25.49 35.83-13.82 47.95" stroke="#49281f" stroke-linecap="round" stroke-miterlimit="10" stroke-width="2"/><path d="M455.8 325.23l-.73.15a2.49 2.49 0 00-1.69 3.64 14.56 14.56 0 009.71 7.35" stroke="#49281f" stroke-linecap="round" stroke-miterlimit="10" stroke-width="2"/><path d="M483 579.11c8.45-11.62 16.56-23.34 24.34-35q-1.79-2.15-3.39-4.2-9.23 18.71-20.95 39.2z"/></g><path d="M663.14 381.62c-11.43 2.85-62 7.21-81.19 39.94-16.51 28.13-35.73 61.74-57.91 96.75 12.18 6.38 26.62 16.09 41.21 28.13 12 9.93 39.33 55.1 47.44 64.38 51.65-62 72.08-167.94 72.08-167.94.98-41.33 29.16-73.88-21.63-61.26z" fill="#a0caea"/><path d="M565.25 546.44c-14.59-12-29-21.75-41.21-28.13q-8.1 12.8-16.75 25.79a258.71 258.71 0 0033.19 32.36 268.64 268.64 0 0033.64 23.9c7.48-7.89 14.75-16.15 21.76-24.56a267 267 0 00-30.63-29.36z" fill="#fc927a"/><path d="M427.58 305.73s13.87 41.6-11.51 65c-5.18 4.78-7.79 11.74-9.46 18.42a17.58 17.58 0 0021.45 21.19L467 318.93z" fill="#c64242"/><path d="M915.68 430.72a387 387 0 00-25.54 32.9c-29 41.65-45.26 80.48-36.28 86.73a5 5 0 00.59.34c9.66 4.73 39.79-23.62 68.21-64.4q5.3-7.59 10-15c4.36-6.85 8.3-13.53 11.78-19.87a211.44 211.44 0 00-28.76-20.7z" fill="#49281f"/><path d="M660.59 604s-229 197-220.88 369.38c123.25.72 196.77 2.88 196.77 2.88l6.93-53.17c7.71-59.13 19.2-115.74 53.71-164.38 18.44-26 35-60.44 34.7-100.25-.6-89.57-71.23-54.46-71.23-54.46z" fill="#dee099"/><g fill="none" stroke="#bcc17c" stroke-linecap="round" stroke-miterlimit="10" stroke-width="2"><path d="M671.79 718.94s-56.94 91.53-68.36 256.52M663.86 672.09s-99.46 94.42-109.44 304.09M637.92 653.35s-128.3 121.81-145.6 320.74"/></g><path d="M661 591.36s-51.17 238.57 49 379.12h194.6L826 821.28s11.53-136.94-37.48-211.9S661 591.36 661 591.36z" fill="#dee099"/><path d="M647.92 728.22c-.27 77.21 12 172 62.07 242.26" fill="none" stroke="#49281f" stroke-linecap="round" stroke-miterlimit="10" stroke-width="2"/><path d="M647.92 728.22c-.13 37 2.62 78.14 11.06 118.64A328.53 328.53 0 00646 904.19c-20.38-57-17.49-88.67-16-112.46s17.92-63.51 17.92-63.51z" fill="#49281f"/><path d="M634.3 391.5c39.66-17.09 109.57-29.34 182.37 1.65 10.9 113.61-13.55 256.17-13.55 256.17s-125.52 24-174.61-15.39c-2.94-41.77-10-123.88-26.24-188.39-5.98-23.74 9.55-44.35 32.03-54.04z" fill="#a0caea"/><g fill="none" stroke-linecap="round" stroke-miterlimit="10" stroke-width="2"><path d="M803.12 649.32s-125.52 24-174.61-15.39c-2.14-30.41-6.45-82.21-14.92-133-1.36-8.17-2.83-16.32-4.41-24.34" stroke="#49281f"/><g stroke="#bcc17c"><path d="M720.08 663.44s-18.81 189.56 74.21 307M758.29 663.44s-18.82 189.56 74.2 307M796.49 663.44s18.86 42.64 10.81 162.89c11.14 43.75 33.65 106.59 63.39 144.15"/></g></g><path d="M628.55 633.89s-14.42-10.1-7.93-23.07c6.09-12.19 107.76 18.52 183.7 4.08a14 14 0 0116.61 15c-2 20.42-19.4 33-27.33 33.52-10.09.74-155.68-4.31-165.05-29.53z" fill="#dee099"/><path d="M622.82 211s-46.62-8-56.45 25.88c-11 38 36.73 58.25 43.6 50.24S622.82 211 622.82 211z" fill="#609fd8"/><path d="M586.89 253.35s10.79 21 5.43 31.86c0 .2.1.4.16.6 8 3.48 15.13 4.06 17.49 1.31 2.64-3.08 5.15-15 7.24-28.61-8.44-7.45-19.62-10.95-30.32-5.16z" fill="#49281f"/><path d="M610 259s-33 99.73 23.38 99.25c-3.21 27.73-4.3 49.35-4.3 49.35s37.28 12.86 57.94-25.25c-2-31.65-2.61-73.36-2.61-73.36S690.72 245.2 610 259z" fill="#fc927a"/><path d="M673.32 222.93s2.55-13.74 9.18-15.37a16.73 16.73 0 00.14 12.82 25.48 25.48 0 0128.51-2.44c-5.28 1.19-14.06 4.45-14.67 8.85 17.12-3.39 25.77 8.06 25.51 10s-10.07-5.89-16.51-1c0 0 28.32 17.38 8.06 66.43l-2-8.6c-5.78 37-26.32 48.47-26.32 48.47s-.14-47-5.61-49.07c-6.54-2.43-13.3 17.37-13.3 17.37s-3.3 3.27-4.77-2.59c-2.58-10.33-8.07-24.81-30.34-30.47 0 0-55.91-7.77-47.89-47s90.01-7.4 90.01-7.4z" fill="#609fd8"/><g fill="none" stroke="#49281f" stroke-linecap="round" stroke-miterlimit="10" stroke-width="2"><path d="M722 236.74c-.26 1.88-12.32-8.12-20.17 2.31M711.15 217.94c-5.28 1.19-14.06 4.45-14.67 8.85M682.5 207.56a16.73 16.73 0 00.14 12.82M679.6 293c-6.54-2.43-13.3 17.37-13.3 17.37s-3.3 3.27-4.77-2.59c-2.58-10.33-8.07-24.81-30.34-30.47 0 0-55.91-7.77-47.89-47"/></g><path d="M665.69 314.71s1.64-39.47 21.66-36c16.87 3 10.61 29-2.87 34.18s-18.79 1.82-18.79 1.82z" fill="#fc927a"/><path d="M633.38 358.25s19.37-1.15 27-5.22A83.32 83.32 0 01631 380.32z" fill="#c64242"/><path d="M677.1 297.09s.61-4.4 4.64-5.76 5.22 3.93 4.42 5.1" fill="none" stroke="#49281f" stroke-linecap="round" stroke-miterlimit="10" stroke-width="2"/><path d="M623.75 624.58c27.53 6 109.62 20.9 187.46 6.9a10.3 10.3 0 0111.67 13.29c0 .07 0 .15-.08.23a10.21 10.21 0 01-8.58 6.7c-24.93 2.69-144.47 13.79-195.28-13.85a7.15 7.15 0 01-3-3.15c0-.1-.09-.19-.13-.29a7.08 7.08 0 017.94-9.83z" fill="#49281f"/><g fill="#fc927a"><path d="M753 725.42C774.59 671 815.81 602.71 893.55 528c-66.13-40.41-133.3-46.67-133.3-46.67s-23.88-2.63-30.33-32.93 17.31-73.3 17.31-73.3 279.6 46.49 225.93 171.27C934 637.48 820.45 665.12 798 738M740.1 762.59a126.71 126.71 0 00-5.2 44.91c1.65 25-7 43.39-4.88 49.62s17.89-1.17 24.09-44.83 6.73-45.29 6.73-45.29z"/><path d="M760.64 706.43c-34.72 22.79-37.15 60.51-60.15 77.55-5.51 4.23 7.45 21.31 38.18-12.63 15.33 19.65 28.19 8.59 45.43 13.48 7 2 17.66-4.79 17.66-4.79s-2-58.18 16.91-78.92"/></g><path d="M700.49 784c-5.51 4.23 7.45 21.31 38.18-12.63M703.27 781.83l1.15 2a2.32 2.32 0 003.62.5c2.19-2.15 5-6 3.6-10.76" fill="none" stroke="#49281f" stroke-linecap="round" stroke-miterlimit="10" stroke-width="2"/><path d="M750.43 780.85s7.68 54.86 5.37 72.1 11.68 15.29 15.62-5.58-2.64-65 1.74-71.39-23.48.2-22.73 4.87z" fill="#fc927a"/><path d="M763.05 778.73s13.78 43.17 15.38 61.2c1.89 21.36 7.57 24.69 12.77 13.33 7.74-16.88-4.06-80.62-4.06-80.62z" fill="#fc927a"/><path d="M730 857.12c2.14 6.22 17.89-1.17 24.09-44.83.92-6.54 1.88-13.15 2.69-18.76" fill="none" stroke="#49281f" stroke-linecap="round" stroke-miterlimit="10" stroke-width="2"/><path d="M764.25 775c-3.42 16.4 19.13 22.26 19.13 22.26s14.41 22.62 19.42 37.14 9.32 1.15 9.91-7.88-13.64-42.2-10.49-46.26" fill="#fc927a"/><g fill="none" stroke="#49281f" stroke-linecap="round" stroke-miterlimit="10" stroke-width="2"><path d="M812.71 826.51c.6-9-13.64-42.2-10.49-46.26M757.6 863.5c3.65 3.62 11.12-1.79 13.82-16.13 2.63-13.9.59-38.08.22-54.59M783 858.29c2.42 3 5.37 1.1 8.17-5 5.1-11.13 1.71-42.63-1.19-62.8M732.93 853.06s3.42-4.49-1.67-8.83M756.09 852.81s5.93-1.38 7 5.55M780.84 847.58s5.62-.39 5.69 6.23M802.82 830.48s4.3.28 3.7 5.58"/></g><path d="M890.14 463.62a387 387 0 0125.54-32.9c-70.68-42.94-168.45-55.65-168.45-55.65s-23.76 43-17.31 73.3a458.69 458.69 0 0016.83 57.94A805.07 805.07 0 01854.15 551l.3-.31a5 5 0 01-.59-.34c-8.98-6.25 7.26-45.08 36.28-86.73z" fill="#a0caea"/><path d="M746.75 506.31A805.07 805.07 0 01854.15 551l.3-.31a5 5 0 01-.59-.34" fill="none" stroke="#49281f" stroke-linecap="round" stroke-miterlimit="10" stroke-width="2"/><path d="M612.63 610.76c4.35-5.26-2.63-18.8-16.75-35-7 8.41-14.28 16.67-21.76 24.56 19.02 11.27 34.09 15.8 38.51 10.44z" fill="#49281f"/><path d="M698.32 391.47a86.74 86.74 0 003.3-16.21c-23.08 2.91-48.21 4-63.7 10.68-4.07 1.76-14.5 4.07-18 6.49 1.66 17.23 12.85 42.46 26.67 44.69 22.32 3.6 42.97-16.85 51.73-45.65z" fill="#fc927a"/><path d="M614.13 394.59s-3.6 36.76 25.23 49 62.95-19.07 70.63-68.47" fill="none" stroke="#609fd8" stroke-linecap="round" stroke-miterlimit="10" stroke-width="1.44"/><path d="M682.212 493.326l37.577-4.188a1.33 1.33 0 011.47 1.174l4.283 38.432a20.23 20.23 0 01-17.864 22.347 20.23 20.23 0 01-22.347-17.865l-4.281-38.412a1.33 1.33 0 011.162-1.488z" fill="#fff"/><path d="M681.59 499.44l40.28-3.9" fill="none" stroke="#49281f" stroke-linecap="round" stroke-miterlimit="10" stroke-width="2"/><g fill="#dee099"><path d="M638.64 619.47s-9.37 18-.72 33.88c17.3 6.48 12.25 2.88 12.25 2.88s-13-20.18 0-35.32c-7.17-3.6-11.53-1.44-11.53-1.44zM771.16 625.24s9.37 18 .72 33.87c-17.3 6.49-12.25 2.89-12.25 2.89s13-20.19 0-35.32c7.21-3.61 11.53-1.44 11.53-1.44zM712.08 625.76a336.93 336.93 0 00-2 33.82c-17.76 5.08-12.44 1.89-12.44 1.89s2.25-17.89 2.82-35.2c7.54-3.02 11.62-.51 11.62-.51z"/></g><g fill="none" stroke-linecap="round" stroke-miterlimit="10" stroke-width="2"><path d="M306.37 269.9s-123.29-18.12-197.48-68.22a88.87 88.87 0 01-32.65-40.33" stroke="#49281f"/><path d="M681.88 663.44s-18.81 189.56 74.21 307" stroke="#bcc17c"/><path d="M482.95 579.11l-18.74 33.87" stroke="#49281f"/></g><path d="M275.32 352.21c32.6 18.71 157.23-20.9 157.23-20.9l31.66-28.88-18.09-35S330.93 176.12 303 184.93s-60.29 148.56-27.68 167.28z" fill="#f9c5c5"/><path d="M464.42 337.84L432.34 331s11.52-14.67 14.9-28.52c5.65-23.12-1.27-35.64-1.27-35.64l32.08 6.81a32.79 32.79 0 0125.26 38.9 32.79 32.79 0 01-38.89 25.29z" fill="#c64242"/><path d="M294.66 330.52c28.47-40.37 30.75-89.26 20.52-120.9 0 0-12.55 20.91-20.48 58.28s-.04 62.62-.04 62.62z" fill="#49281f"/><path d="M303.13 237.34c-20.85 1.65-42.3 5.11-42.3 5.11-8.53 5.25-11 14.79-5.95 23.27l.74 1.25s17.78 12.86 35.94 23a162 162 0 013.14-22.11 257.51 257.51 0 018.43-30.52z" fill="#c64242"/><path d="M294.66 330.52a140.74 140.74 0 0016.49-31 150.53 150.53 0 01-19.59-9.52c-1.78 24.88 3.1 40.52 3.1 40.52zM315.18 209.62s-5.82 9.72-12.05 27.72c5.95-.47 11.85-.79 17.18-.85a117.69 117.69 0 00-5.13-26.87z" fill="#49281f"/><path d="M320.31 236.49c-5.33.06-11.23.38-17.18.85a257.51 257.51 0 00-8.43 30.56 162 162 0 00-3.14 22.1 150.53 150.53 0 0019.59 9.47 146.55 146.55 0 009.16-62.98z" fill="#c64242"/><path d="M311.49 199.26s32.84 67.39-25.49 144.17" fill="none" stroke="#49281f" stroke-linecap="round" stroke-miterlimit="10" stroke-width="2"/><path d="M452.39 407.17s14.86 2 7.9 9.56c-7.15 7.82-35.07 4.61-45-1.34s-8.23-10.68-6.19-15.21 43.29 6.99 43.29 6.99z" fill="#fc927a"/><path d="M452.39 407.17s14.86 2 7.9 9.56c-7.15 7.82-35.07 4.61-45-1.34" fill="none" stroke="#49281f" stroke-linecap="round" stroke-miterlimit="10" stroke-width="2"/><path d="M457.54 394.47s13.66 4.27 7.95 12.88c-5.64 6.78-43.57.38-56.35-7.17s-9.32-19.77-1.83-22.22 50.23 16.51 50.23 16.51z" fill="#fc927a"/><path d="M457.54 394.47s13.66 4.27 7.95 12.88c-5.64 6.78-43.57.38-56.35-7.17" fill="none" stroke="#49281f" stroke-linecap="round" stroke-miterlimit="10" stroke-width="2"/><path d="M461.05 381.33s13.86 3.91 9.86 11.12-34 5.21-54.82-4-22.25-23.63-6.89-29.26c13.63 9.46 30.31 25.29 51.85 22.14z" fill="#fc927a"/><path d="M461.05 381.33s13.86 3.91 9.86 11.12-34 5.21-54.82-4c-5.79-2.55-10.09-5.51-12.93-8.58" fill="none" stroke="#49281f" stroke-linecap="round" stroke-miterlimit="10" stroke-width="2"/><path d="M411.74 338.47c-11 8-12.5 29.37 19.71 40.14s35.43 2.8 34.4-1.69c-1.25-5.4-5.78-7.44-12.31-10.11-7.13-2.92-31.92-8.73-31.86-19.06" fill="#fc927a"/><g fill="none" stroke="#49281f" stroke-linecap="round" stroke-miterlimit="10" stroke-width="2"><path d="M406.49 360.4c3.22 6.76 10.87 13.5 25 18.21 32.21 10.77 35.43 2.8 34.4-1.69-1.25-5.4-5.78-7.44-12.31-10.11-7.13-2.92-31.92-8.73-31.86-19.06M459.88 374.09s-5.66 3-1 7.49M464.34 386.45s-5 4.78-.83 6.61M461.71 400.55S457 404 460.52 407M456.6 412.33a3.26 3.26 0 00.73 4.64"/></g><g fill="#dee099"><path d="M313.34 120.15s35.94-3.6 61.29 36.89c-14.63 5.72-45.31-6.68-61.29-36.89zM190.72 145.73s-33.94-12.38-39.18-59.86c15.69 1.22 37.91 25.7 39.18 59.86zM238.09 100.4s-3-36 37.87-60.69c5.49 14.76-7.4 45.2-37.87 60.69zM277.61 231.23S234 211.8 231.48 148.75c20.57 3.05 47.6 37.35 46.13 82.48zM203.3 287.2s-38 6.28-68.5-30.5c13.78-7.6 48.66 2.67 68.5 30.5zM90.68 300.8S65.43 326.64 20 311.88c7.57-13.8 39-23.98 70.68-11.08zM139.87 289.36s1.94 24.74-26.46 44.76c-4.74-10.42 5.15-31.95 26.46-44.76zM82.44 358.15s21.81 21.47 9.17 59.91c-11.67-6.46-20.2-33.14-9.17-59.91zM271.77 293s-13.7 65.59-90.82 54.78c.23-15.78 40.61-65.49 90.82-54.78z"/></g><path d="M362.92 105.75s2.55-35.5-42.14-58.57c-10.81-5.76 7.21-28.83 31-12.25 15.86-15.86 30.28-13.69 36-.72 18-7.93 25.95 7.93 15.86 30.27s-40.72 41.27-40.72 41.27z" fill="#fcc74f"/><g fill="none" stroke="#49281f" stroke-linecap="round" stroke-miterlimit="10" stroke-width="2"><path d="M319 37.21c4.26-7.09 17.28-13 32.73-2.28 15.86-15.86 30.28-13.69 36-.72 11.26-5 18.58-.62 20 8.78M307.81 298.73s-131.3-26.59-214.32.16a34.06 34.06 0 00-22.13 42.4 34 34 0 0039.89 23.31c16.07-3.57 35.32-4.83 48.8 4M317.18 234.58s-94.42-3.6-121.81-53.33S237.89 76 286.18 107.73s95.15 2.88 82.17-37.48"/></g></svg>