<svg viewBox="0 0 1000 1000" width="1000" height="1000" xmlns="http://www.w3.org/2000/svg"><path d="M500 98.53A196.44 196.44 0 01696.44 295v412.5H303.56V295A196.44 196.44 0 01500 98.53z" fill="#609fd8"/><path d="M500 98.53A196.44 196.44 0 01696.44 295v412.5H303.56V295A196.44 196.44 0 01500 98.53z" fill="#609fd8"/><path d="M303.56 707.17L20 789.49V126.33l70.28 9.26A245.3 245.3 0 01303.56 378.8z" fill="#a0caea"/><path d="M303.56 707.17L20 789.49V126.33l70.28 9.26A245.3 245.3 0 01303.56 378.8z" fill="#d4edfc"/><g fill="#e8f5fc"><path d="M20 198.4l283.56 321.53v-54.96L20 143.44zM20 248.24l275.87 312.81 7.69-6.79v-7.38L20 225.35zM20 497.13l205.28 232.76 10.77-3.12L20 481.79zM20 587.15l142.07 161.1 44.28-12.86L20 524.08z"/></g><path d="M54.16 165.29l31.66 4.17A211.15 211.15 0 01269.4 378.8v302.71L54.16 744zM20 126.33v663.16l283.56-82.32V378.8A245.3 245.3 0 0090.28 135.59z" fill="#a0caea"/><path d="M34.52 479.45l252.81-29.03" fill="none" stroke="#a0caea" stroke-miterlimit="10" stroke-width="30.65"/><path d="M980 275.51L696.44 650.57v56.6l19.23 5.58L980 363.12zM696.44 560.36L980 185.29v-41.73L696.44 518.62z" fill="#e8f5fc"/><path d="M696.44 707.17L980 789.49V126.33l-70.28 9.26A245.3 245.3 0 00696.44 378.8z" fill="#d4edfc"/><g fill="#e8f5fc"><path d="M696.44 627.51L980 305.98v-77.54L696.44 549.97zM696.44 510.87L980 189.34v-39.42L696.44 471.45zM768.54 728.1L980 488.32v-54.95L729.95 716.9zM803.53 738.26L980 538.16v-22.89L787.47 733.59z"/></g><path d="M336 455.85v-6.6A19.33 19.33 0 00317.85 430c107.29-138.95 101.61-314 101.6-314.2A196.49 196.49 0 00303.56 295v412.5h80.09S383.8 597 319.19 475A19.33 19.33 0 00336 455.85z" fill="#4488bc"/><path d="M361.64 704.08s-10.25-155.44-58.08-228.9M303.56 495.93s30.11 123.6 23.91 209.86" fill="none" stroke="#609fd8" stroke-linecap="round" stroke-miterlimit="10" stroke-width="1.53"/><path d="M945.84 165.29V744L730.6 681.51V378.8a211.15 211.15 0 01183.58-209.34zm34.16-39l-70.28 9.26A245.3 245.3 0 00696.44 378.8v328.37L980 789.49V126.33z" fill="#a0caea"/><path d="M965.48 479.45l-252.81-29.03" fill="none" stroke="#a0caea" stroke-miterlimit="10" stroke-width="30.65"/><path d="M126.38 426a201.67 201.67 0 0122.17 12.23c63.62 40.49 139.5 74.82 139.5 74.82l132.16-60.52s51.76-2.27 62 55c0 0-152.22 126-278.33 38-57.07-38.51-77-69.78-93.29-86" fill="#fc927a"/><path d="M420.21 452.57c-29.53 8.09-132.16 60.52-132.16 60.52s-45.29-20.49-95.22-48.47a341.06 341.06 0 01-25 36.92c-2.67 3.47-50.6 46.11-53.24 49.33 11.67 10.46 24.54 24.35 44 34C361.66 686.1 482.08 507.6 482.08 507.6c-10.21-57.26-32.34-63.12-61.87-55.03z" fill="#fcc74f"/><path d="M580.55 115.75c0 .17-5.69 175.25 101.6 314.2a19.33 19.33 0 00-18.15 19.3v6.6A19.33 19.33 0 00680.81 475c-64.61 122-64.46 232.5-64.46 232.5h80.09V295a196.49 196.49 0 00-115.89-179.25z" fill="#4488bc"/><path d="M407.22 457.62s107.36-42.12 184.86-14.34c8.9 92.77-10.74 213.47-10.74 213.47s-102.5 19.64-142.58-12.56c-2.94-41.76-10.9-132.86-31.54-186.57z" fill="#fff"/><path d="M822.6 453.19c-43.3 20.26-97 57.19-154.08 124.21C632.35 525.47 624 471 624 471s-3.3-19.33-28.31-23.11-58.91 17.69-58.91 17.69 51.53 225.63 150.62 175.8c72.38-36.4 89.37-130.26 147.72-152.1" fill="#fc927a"/><path d="M542.58 707.5h-106.2s2.13-64.06 75.58-56.37 30.62 56.37 30.62 56.37z" fill="#fff"/><path d="M416.44 571.51c-2.3-16.64-9.67-66.17-14.66-56.18-4.49 18.69-35.82 69.47-71.06 95 33.98-7.8 62.72-22.72 85.72-38.82z" fill="#49281f"/><path d="M368.46 409.53L392.52 346a14.26 14.26 0 0113.34-9.22h35.39a14.26 14.26 0 0113.34 9.22l24.06 63.49z" fill="#4488bc"/><path d="M432.54 443l-2.54-2.81a3.26 3.26 0 01-.86-2.09l-1.73-48.27h-7.63L418 438.1a3.26 3.26 0 01-.86 2.09l-2.57 2.81a3.31 3.31 0 000 4.44l2.08 2.29a3.31 3.31 0 01.85 2.34l-1.57 43.73h15.25l-1.57-43.73a3.31 3.31 0 01.85-2.34l2.08-2.29a3.31 3.31 0 000-4.44z" fill="#4488bc"/><path d="M843.46 488.14a103.41 103.41 0 0027.09-25.07c12.24-16.37 27.41-23.18 29.39-28.18s-11.72-8.79-38.76 15-28.26 24.53-28.26 24.53z" fill="#fc927a"/><path d="M800.89 512.05c33.63 4.32 55.18-17.78 78.5-16.12 5.66.3 6.7-17.17-30.39-12.46 1-20.36-12.91-20.3-21-32.49-3.3-5-13.49-6.42-13.49-6.42s-22.4 6.71-54 46" fill="#fc927a"/><path d="M879.39 495.93c5.66.3 6.7-17.17-30.39-12.46M876.52 495.78l.33-1.83a1.88 1.88 0 00-2-2.22c-2.5.16-6.29 1-8 4.75" fill="none" stroke="#49281f" stroke-linecap="round" stroke-miterlimit="10" stroke-width="2"/><path d="M846.76 471.33s24.38-38.09 35-47.55.87-15.69-12.66-4.85-32.87 41.68-39 43.35 14.64 12.35 16.66 9.05z" fill="#fc927a"/><path d="M837.81 465.94s14.39-34.08 23-46.12c10.17-14.25 8.41-19.33-.84-15.05-13.77 6.36-40.32 52.15-40.32 52.15z" fill="#fc927a"/><path d="M899.94 434.89c2-5-11.72-8.79-38.76 15-4 3.56-8.15 7.15-11.64 10.2" fill="none" stroke="#49281f" stroke-linecap="round" stroke-miterlimit="10" stroke-width="2"/><path d="M835.08 467.62c10.83-8.34 0-24 0-24s3.08-21.68 7.69-33.35-5.16-5.66-10.33-.38-14 33.41-18.07 34.26" fill="#fc927a"/><g fill="none" stroke="#49281f" stroke-linecap="round" stroke-miterlimit="10" stroke-width="2"><path d="M832.4 409.93c-5.17 5.28-14 33.41-18.07 34.26M886.22 416.28c-.33-4.19-7.84-4.8-17.14 2.65-9 7.22-20.59 23.3-29.13 33.74M867.69 406c.07-3.11-2.74-3.53-7.74-1.22-9.08 4.19-23.71 25.53-32.63 39.58M896 435.85s-4.51 1-3.65 6.36M881.48 423.71s-4.41-2.3-1.39-7.17M863.36 413.8s-3.69-2.74-.22-6.88M840.64 412.73s-2.52-2.46.68-5.43"/></g><path d="M95.85 467.57a103.48 103.48 0 01-29.66-22c-13.95-14.93-29.77-20-32.28-24.8s10.69-10 40.16 10.68 30.76 21.31 30.76 21.31z" fill="#fc927a"/><path d="M140.77 486.7C107.81 494.65 84 475 61 479.22c-5.59.92-8.53-16.33 28.85-15.69-3.16-20.14 10.63-21.59 17.35-34.59 2.74-5.31 12.71-7.85 12.71-7.85s35.91 12.24 56.45 34" fill="#fc927a"/><path d="M61 479.22c-5.59.92-8.53-16.33 28.85-15.69M63.82 478.77l-.53-1.77a1.89 1.89 0 011.71-2.45c2.5-.11 6.37.37 8.42 3.86" fill="none" stroke="#49281f" stroke-linecap="round" stroke-miterlimit="10" stroke-width="2"/><path d="M90.74 451.22S62.35 416 50.79 407.76s-2.58-15.5 12.05-6.2 37.22 37.85 43.49 38.84-13.23 13.87-15.59 10.82z" fill="#fc927a"/><path d="M99.05 444.89s-18-32.32-27.87-43.35c-11.67-13.05-10.47-18.3-.8-15.05 14.37 4.82 45.76 47.44 45.76 47.44z" fill="#fc927a"/><path d="M33.91 420.79c-2.51-4.76 10.69-10 40.16 10.68 4.41 3.1 8.88 6.22 12.68 8.87" fill="none" stroke="#49281f" stroke-linecap="round" stroke-miterlimit="10" stroke-width="2"/><path d="M102 446.26c-11.68-7.12-2.58-23.83-2.58-23.83s-5.43-21.21-11.28-32.31 4.52-6.19 10.23-1.51 17.52 31.7 21.7 32.09" fill="#fc927a"/><g fill="none" stroke="#49281f" stroke-linecap="round" stroke-miterlimit="10" stroke-width="2"><path d="M98.32 388.61c5.72 4.69 17.52 31.7 21.7 32.09M45.51 400.79c-.12-4.2 7.27-5.63 17.33.77 9.74 6.2 23 20.92 32.64 30.36M62.82 388.55c-.41-3.09 2.34-3.81 7.56-2.06 9.47 3.18 26.35 22.79 36.74 35.79M38 421.31s4.59.48 4.33 5.93M51 407.66s4.14-2.76.61-7.27M68 395.83s3.37-3.12-.53-6.86M90.43 392.3s2.24-2.73-1.26-5.33"/></g><path d="M543.67 435.61s-51.36 54.95-38.55 224.06c17 28.22 16.23 48.68 16.23 48.68L623 707.5s-23.07-49.5-36.49-58.93c8.29-26.48 28.79-173.39 8.29-202.43s-51.13-10.53-51.13-10.53zM461 442s-30.15 79.28 18.86 218C461.24 707.11 459 707.5 459 707.5h-51.78s14.2-44.42 27.87-63.21c-52.1-85.41-42.71-153.73-34.16-184.48C419.72 449.56 461 442 461 442z" fill="#fcc74f"/><g fill="none" stroke-linecap="round" stroke-miterlimit="10"><path d="M407.22 707.5s14.2-44.42 27.87-63.21c-26.71-43.78-37.26-83.08-40-115.12" stroke="#49281f" stroke-width="2"/><g stroke="#609fd8" stroke-width="1.53"><path d="M681.92 475.18s-37 98.22-33 232.32M689.61 478.6s-29.89 129.82-13.67 225.48"/></g></g><path d="M565.77 543.51s-14.52 74.31 23.91 93.1c3-16.84 11.1-63.21 11.1-63.21z" fill="#49281f"/><path d="M531.8 433.81a318.6 318.6 0 00-58.47 5.71c-8.9 24.4-6.42 47.42 6.33 53 13.72 6 34.14-10.6 45.61-37a93.12 93.12 0 006.53-21.71z" fill="#fc927a"/><path d="M738.26 507.81c-22.29 18.54-41.7 33.13-65.73 61.32C646.05 515.33 624 471 624 471s-3.3-19.33-28.31-23.11-60.61 20.25-60.61 20.25 29.83 203.14 140 190.66c45.27-5.12 130.12-48.31 153.74-82.84-3-2.54-58.43-35.92-61.45-38.66a350.38 350.38 0 01-29.11-29.49z" fill="#fcc74f"/><path d="M513.67 590.49s17.93-102.49 62.44-143" fill="none" stroke="#fff" stroke-linecap="round" stroke-miterlimit="10" stroke-width="2"/><path d="M790.66 525.49c-4.87 6.21-9.59 12.85-14.3 19.74 25.7 22 48.17 35.62 52.25 31.12s-12.46-26.66-37.95-50.86z" fill="#49281f"/><path d="M783.86 519.17A363.9 363.9 0 00754.4 495q-8 6.06-16.14 12.85a350.38 350.38 0 0029.12 29.5q4.53 4.11 9 7.92c4.71-6.89 9.43-13.53 14.3-19.74q-3.32-3.17-6.82-6.36z" fill="#fc927a"/><path d="M142.33 494.71c-20.49 28.06-32.72 52.37-27.82 56.13s24.18-13.39 45.35-39.26a344.557 344.557 0 01-17.53-16.87z" fill="#49281f"/><path d="M192.83 464.62c-5.66-3.18-11.38-6.45-17.1-9.79a350.26 350.26 0 00-27.34 31.78q-3.13 4.09-6.06 8.1c5.12 5.29 10.9 10.92 17.53 16.87q4-4.83 8-10a341.06 341.06 0 0024.97-36.96z" fill="#fc927a"/><path d="M444.26 323.31s-23.85-2.45-26.9 26.18 27.22 37.82 35.87 34.9-8.97-61.08-8.97-61.08zM595 445.43s53.15 18 50.4 27.74c-.52 11.07-19 31.73-27.34 32.52s-32.35-25.27-30.77-52.69c3.89-8.79 7.71-7.57 7.71-7.57z" fill="#dee099"/><path d="M594.68 443.08s8.43 1.38 2.76 10.66-17.2 12.13-16.89 1.61 14.13-12.27 14.13-12.27z" fill="#49281f"/><path d="M559.53 409.44s22.8-7.12 34.87 13.47c12.53 21.38-5.3 32.52-5.3 32.52s-26.28 16.15-38.88-11.52c-4.17-10.62-6.39-23.01 9.31-34.47z" fill="#dee099"/><path d="M559.55 404.19s10.13 1.66 3.32 12.8-20.65 14.56-20.28 1.93 16.96-14.73 16.96-14.73z" fill="#49281f"/><path d="M449.29 337.53s-27.35 76.61 29.4 82.75c2.25 29.18 4.06 42.65 4.06 42.65s34.8-3.83 42.87-29.27c-5.89-28.83-18.37-93.77-18.37-93.77s-33.64-22.52-57.96-2.36z" fill="#fc927a"/><path d="M515.2 362.75s-14.71-.05-13.63 11.27c0 0-1.11 15.85-4.13 6.16a182.25 182.25 0 00-8.27-20.73s-11.55 11.07-18.7-3.47c0 0-39.83 11.67-39.46-23s49.27-28.31 65.42-13.05c14.11-6.07 44.9 3.08 37.81 38.92 32.85 3.17 48 40.57 16.77 60.33s-47.21-21.75-35.91-46.44c4.68-11.48.1-9.99.1-9.99z" fill="#dee099"/><path d="M432.41 343.35c7 21.72 38.06 12.63 38.06 12.63 7.15 14.54 18.7 3.47 18.7 3.47a182.25 182.25 0 018.27 20.73s1 3.3 1.67 3.11" fill="none" stroke="#49281f" stroke-linecap="round" stroke-miterlimit="10" stroke-width="2"/><path d="M502.09 385s-3.29-29.08 6.07-30c14.57-1.39 14.79 28.51-1.24 31.08" fill="#fc927a"/><path d="M478.69 420.28s15.33 1.17 23.8-9.09c-.52 11.07-15.17 28.09-21.63 32z" fill="#c64242"/><path d="M507.8 373.22s-.87-10.54 3.93-8.89M487.78 314s8.45 3.8 12.31 11.31" fill="none" stroke="#49281f" stroke-linecap="round" stroke-miterlimit="10" stroke-width="2"/><path d="M429.11 634s79.43-34.16 160.57 2.57c21.35 11.95 13.51 33.48 13.51 33.48s-102.34-19.82-180.62-2.81c-15.67-4.16-3.71-29.78 6.54-33.24z" fill="#fcc74f"/><path d="M478.65 633.19s-28.19 27.33-31.6 56.37c17.08-5.12 34.16 4.27 34.16 4.27s4.27-45.27 16.23-48.68c1.71-8.54-18.79-11.96-18.79-11.96z" fill="#49281f"/><path d="M437 447.31s-18.17 95.35 22.83 168.8" fill="none" stroke="#fff" stroke-linecap="round" stroke-miterlimit="10" stroke-width="2"/><path d="M603.19 670.09s-102.34-19.82-180.62-2.81c-15.67-4.2-3.71-29.82 6.54-33.24l14-4.86" fill="none" stroke="#49281f" stroke-linecap="round" stroke-miterlimit="10" stroke-width="2"/><path d="M498.29 624.65s31.6 19.64 38.44 61.49c-19.65-1.7-35.88 7.69-35.88 7.69l-19.64-50.39s-7.69-32.44 17.08-18.79z" fill="#fcc74f"/><path d="M498.29 624.65s31.6 19.64 38.44 61.49c-19.65-1.7-35.88 7.69-35.88 7.69l-19.64-50.39s-7.69-32.44 17.08-18.79z" fill="none" stroke="#49281f" stroke-linecap="round" stroke-miterlimit="10" stroke-width="2"/><path d="M481.69 602.37c4.82 9.93 8.55 36.31-.51 40.71s-27.48-14.85-32.3-24.78-1.38-21.53 7.68-25.93 20.31.08 25.13 10z" fill="#fcc74f"/><path d="M456.56 592.37c-9.06 4.4-12.5 16-7.68 25.93s23.24 29.18 32.3 24.78c0 0-9.63-27.19-16.76-34.34" fill="none" stroke="#49281f" stroke-linecap="round" stroke-miterlimit="10" stroke-width="2"/><path d="M493.57 588.71c-4.82 9.92-16.29 46.91-7.24 51.31s35.23-25.46 40.05-35.38 1.38-21.54-7.68-25.94-20.31.08-25.13 10.01z" fill="#fcc74f"/><path d="M518.7 578.7c9.06 4.4 12.5 16 7.68 25.94s-31 39.78-40.05 35.38c0 0 12.82-35 23.07-43.56" fill="none" stroke="#49281f" stroke-linecap="round" stroke-miterlimit="10" stroke-width="2"/><path d="M552.1 337.67h141.78v11.1H552.1z" fill="#4488bc"/><g fill="none" stroke-linecap="round" stroke-miterlimit="10"><g stroke-width="2"><path d="M495.69 637.77s11.14 8.23 18 33.86M556.85 625.6c11.78 2.74 23.87 6.37 32.83 11" stroke="#49281f"/><path d="M725.48 518.74s42.25 64.6 94.15 68.17" stroke="#fff"/><path d="M563 566.5c21.16 49.81 56.33 98.62 112.06 92.31 45.27-5.12 130.12-48.31 153.74-82.84" stroke="#49281f"/><path d="M128.76 563.9s59-45.07 76.31-92.52" stroke="#fff"/></g><g stroke="#609fd8" stroke-width="1.53"><path d="M611 132.84s3.5 171.53 75.24 283.41M653.82 172.78s5 143.54 41.77 235.78M383 137s-5.13 208.4-79.43 293M343.27 176.53S342 331.61 303.56 392.3"/></g></g><g fill="#4488bc"><path d="M486.33 251.41h-10.24l10.53-81.83a5.08 5.08 0 015-4.43 5.08 5.08 0 015 5.73zM552.1 251.41h-10.25l13.09-100.63a5.08 5.08 0 015-4.42 5.08 5.08 0 015 5.74zM576.87 251.41h-19.65l7.21-63.41a13.28 13.28 0 0113.19-11.78h7.79zM602.49 251.41h-19.64l7.2-63.38a13.28 13.28 0 0113.19-11.78H611zM512 251.41h-18.83l10-77.69a9.82 9.82 0 019.75-8.57h10.14zM536.73 251.41h-18.79l13.82-100.63a13 13 0 0112.91-11.25h7.43z"/><path d="M455.59 248H604.2v11.1H455.59z"/></g><g fill="#bcc17c"><path d="M664 739.1s21.94-26.8 7.13-64.22c-22.81 18.26-29.34 46.28-29.34 46.28z"/><circle cx="682.35" cy="749.77" r="35.44"/><circle cx="447.05" cy="744.22" r="45.27"/></g><g fill="#dee099"><circle cx="345.84" cy="738.67" r="58.51"/><circle cx="401.78" cy="744.22" r="45.27"/><circle cx="605.48" cy="738.67" r="58.51"/><circle cx="549.54" cy="744.22" r="45.27"/><circle cx="495.3" cy="753.19" r="32.03"/></g><g fill="#4488bc"><path d="M558.37 314.48l6.36 26.61h17.15l6.36-26.61a7.52 7.52 0 00-7.31-9.26h-15.25a7.52 7.52 0 00-7.31 9.26z"/><path d="M574.31 308.64s-17.94-12-17.09-23.92c1.71-5.12 16.23 4.28 17.09 23.92z"/><path d="M572.6 308.64s-6.83-25.63-.86-39.29c9.4-13.67 8.54 24.77.86 39.29z"/><path d="M574.31 285.58s6.83-16.23 12-11.11-6.03 15.38-12 11.11z"/></g><path d="M269.4 748.49h437.3v94.8H347a77.63 77.63 0 01-77.63-77.63v-17.17h.03z" fill="#f28686"/><path d="M645.2 748.49h72.6v94.8a72.6 72.6 0 01-72.6-72.6v-22.2z" fill="#c64242"/><path d="M290.75 748.49s-3.42-42.7-44.42-54.66c-3.41 21.35 23.07 54.66 23.07 54.66z" fill="#dee099"/><g fill="#bcc17c"><path d="M600.78 716.89s1.71-19.64-11.1-27.33c-6 7.69 0 21.35 0 21.35s-6.12-2.94-11.17-1.47a142.43 142.43 0 009.49 10.87s10.22-5.13 12.78-3.42zM334.62 723.26s-7-8.1-7.43-14.12c3.16-1.56 10.7 9.05 10.7 9.05s-2.67-20.4 1.33-22.14c3.88 1.78 4.8 18.19 4.8 18.19s1.9-7.4 5.42-7.29-.81 12.41-.81 12.41-9.55.31-14.01 3.9zM400.07 729.7s0-11.1 6.83-15.37a76 76 0 01-1.57 12.53s4.14-2.28 5-2.28c.85.85-3.42 6.83-3.42 6.83s-4.28-2.56-6.84-1.71zM533.31 732.27s-6-6.84-4.27-14.52c2.56-2.57 8.54 8.54 9.39 11.1-.85 0-5.12 3.42-5.12 3.42z"/></g><g fill="#dee099"><path d="M605.91 739.1s-18.79 9.39-23.92 23.06c11.11 7.69 32.46-4.27 32.46-4.27s-6 27.33 3.41 31.6c33.31-5.12 27.34-50.39 27.34-50.39s1.7 47 19.64 53.81c6-25.63-.85-53.81-.85-53.81M274.52 739.1s-12.81 13.66-16.23 41c11.11 3.42 25.62-9.39 29-20.49 6.83 19.64 23.07 25.62 23.07 25.62s1.7-12.81-4.28-23.06c23.92 10.25 24.77 0 24.77 0s-9.4-15.37-23.06-23.06M446.7 742.34s20-5.8 26 29.21a189 189 0 01-25.62-12.1s-11.11 21.5-21.36 14.67c-.85-8.54 5.13-21.36 5.13-21.36s-8.54 5.13-14.52 2.57c1.71-6.84 12-17.09 12-17.09M452.59 776.68s21.79 3.41 21.79 26.48c-9.38-1.71-21.38-10.25-21.79-26.48zM598.11 776.43s17.21 13.78 5.77 33.8c-7.31-6.14-13.46-19.5-5.77-33.8zM587.55 791.63s-20.55-8-32.14 12c8.98 3.19 23.59 1.82 32.14-12zM461.13 838.17s21.79 3.42 21.79 26.48c-9.4-1.71-21.37-10.25-21.79-26.48zM495.89 897.57s-13.76-17.23 1.81-34.24c5.78 7.6 8.84 21.99-1.81 34.24zM455.59 796.32s-21.79 3.42-21.79 26.48c9.4-1.71 21.37-10.25 21.79-26.48zM292.06 793.4s-8.3 20.43 11.46 32.32c3.38-8.93 2.23-23.59-11.46-32.32z"/><path d="M287.61 778.55s-22 1.47-24.05 24.44c9.51-.87 22.19-8.31 24.05-24.44zM460.71 868.92s-21.78 3.42-21.78 26.48c9.39-1.71 21.36-10.25 21.78-26.48zM508 885.25s18.25 12.38 34-4.47c-8-5.17-22.63-7.1-34 4.47zM513.13 870.29s12.87-8.68 5.94-23.29a19 19 0 00-5.94 23.29z"/></g><g fill="none" stroke="#dee099" stroke-linecap="round" stroke-miterlimit="10" stroke-width="1.53"><path d="M447.05 759.6s14.52 34.16 13.66 99.07 52.1 46.12 53 8.54M624.64 748.49s-35 28.19-42.65 58.94M287.33 752.76s-1.71 32.46 7.69 50.4"/></g></svg>