<svg viewBox="0 0 1000 1000" width="1000" height="1000" xmlns="http://www.w3.org/2000/svg"><path d="M368.29 304.27s18-16.12 32.61-4.14 31.91 33.82 37.88 41.55 12.1 28.7 39.87 18.08 58.08-30.1 58.55-32.13 3.43-.4.34-9.12-8.21-12 6.15-17.92 40.06-16 45.08-14 12.1 14.09 12.1 14.09 28.93-19.93 63.76-14.09 62.07 14.44 64.88 48.51-9.39 72.63-21.2 83.65-129 74.08-129 74.08l-8.86-15.34L544.07 488s-4.29-.16-3.41-19-2.61-46.05-2.61-46.05-55 24.75-75 20.66-47.15-18.2-57.21-29.27-37.18-43.15-39.87-52.48-5.45-40.84-7.15-44-4.78-4.88-3.44-7.07 12.91-6.52 12.91-6.52z" fill="#cae5e3"/><path d="M578.84 477.82s-21.26-1.18-17.71 15.74-18.46 65.49-23.93 72.44-26.9 53.53-29.82 83.44-15.08 76.1-16.65 88.75-5 31 2.41 31.75 62.36-1.3 62.36-1.3 20 6 24.43-20.65 22.12-88.62 25.67-98.06 42.66-49.39 48.19-60.41 20-33.75 21.76-25.78 18.13 55.63 44.16 57.06 42.26 1.46 61.92-20.93 46.11-62.57 47.2-69.27 17.2-18.45-3.69-41.5-29.16-33.21-41.26-10S755 510.29 755 510.29s-8.32 7-8.32-12.29 2.12-58.39-11.9-75.88-20.45-40.84-36.12-31.38-39 43.69-65 57.86M493.91 247.59s7.07-12.1 2.56-15.49-8.36-6.68-3.7-5.1 29.3 5.17 30.88 7.29 4.32 8.45 4.32 8.45 8.25-12 15-5.65 9.8 7 5.46 12.74-13 10.16-6 15.47 7.63 15.84 17.47 8.44 19.77-21.36 18.27-30.62-1.94-19.58-10.35-22.24-19.93 9.77-21 4.07-5.22-19-16.85-19-43.22-1.89-50.59 7.55-8 14.61-1.92 21.4 16.33 7.23 16.45 12.69z" fill="#78a5a3"/><path d="M361.58 402.21l21.56-12.94L328 208.15l-157.49 3.42c-5 .11-10.2.25-14.84 2.18-11.79 4.9-16.13 19.11-18.6 31.63-9.92 50.35-12.36 101.9-12 153.21.1 14.2.46 28.68 5.18 42.08 1.82 5.16 4.4 10.27 8.67 13.71 7.32 5.9 17.68 5.62 27.07 5l165-10.13a190.46 190.46 0 0022-2.2c4.26-.76 8.9-2.11 11.17-5.8 1.36-2.22 1.62-4.94 1.73-7.55a90.84 90.84 0 00-4.31-31.49z" fill="#cae5e3"/><path d="M345.12 269.22l18.44-15.72s-.29-23.63-6.93-33.36-16.38-17-37.93-11.8" fill="#cae5e3"/><path d="M492.3 237.41c-1.72 10.06-6.22 18-12.89 25.61-4.41 5-4.54 11.56 3.11 12.69 2.45.36 3.89.46 5.4 2.75s2.42 5.71 3.51 8.34l6.77 16.35 13.52 32.69c1.29 3.12 6.43 1.75 5.13-1.41l-12.78-30.88-6.39-15.44c-1.74-4.21-3.12-9-5.46-12.9a8.86 8.86 0 00-6.28-4.44c-.78-.16-2 .09-2.69-.31-1.18-.73-.89-2.26-.08-3.68s2.67-2.91 3.79-4.32a52 52 0 0010.47-23.64c.57-3.35-4.55-4.78-5.13-1.41zM486.86 227.52a116.66 116.66 0 0022.07 6.73c3.17.62 6.74.66 9.85 1.5 5.48 1.48 5.25 6.91 6.22 11.59.55 2.66 4.42 2.4 5.12 0 2-6.71 9.68-12.85 14.7-4.82 4.08 6.52-2 13.33-8.05 15.44-3.2 1.12-1.82 6.26 1.41 5.12 10.05-3.52 17.83-15.21 10.07-24.87C540 228 528 235.59 525 245.93h5.12c-.78-3.78-1-8.72-3.22-12-1.93-2.83-5-3.12-8.12-3.5a116.38 116.38 0 01-30.51-8c-3.16-1.3-4.54 3.84-1.41 5.13z"/><path d="M485.05 240.9a31.7 31.7 0 008.15 3.41c3.31.88 4.72-4.24 1.41-5.12a26.83 26.83 0 01-6.88-2.88c-3-1.75-5.63 2.84-2.68 4.59zM486.71 213.68a58 58 0 0129.7-6.74c9.92.29 21.59 1.54 26 11.79 1.34 3.13 5.92.43 4.59-2.69-4.72-11.06-16.23-13.39-27.13-14.23a64.13 64.13 0 00-35.87 7.28c-3 1.64-.32 6.23 2.68 4.59zM554.89 210.2a60.64 60.64 0 01-3 9.85c-1 2.41 2.06 3.82 3.9 3 7.44-3.31 17.51 4.95 19.33 11.94s-2 15.71-5 22c-2.47 5.16-6.69 13.06-12.53 15-3.6 1.22-7.4-2.56-10-4.64a74.23 74.23 0 01-8.46-8c-2.31-2.52-6.06 1.24-3.75 3.76a76.73 76.73 0 0012.31 10.88c3.44 2.42 6.77 4.87 11.07 3.29 8.94-3.29 14.41-13.65 17.8-21.84 3.67-8.9 7-19.58.69-28.12-5.44-7.33-15.17-12.92-24.12-8.93l3.9 3a60.64 60.64 0 003-9.85c.73-3.33-4.39-4.75-5.12-1.41zM516.64 255.34a2 2 0 01-2.25.27 2.47 2.47 0 01-.62-.67c-.08-.21-.09-.21 0 0v.17c0 .08 0 .17.05.25s0 .11 0-.28a1.59 1.59 0 000 .43v-.3l.15-.33a1.89 1.89 0 011.56-.89 2.08 2.08 0 011.92 1.47 2.67 2.67 0 00-3.27-1.86 2.73 2.73 0 00-1.85 3.27 3.31 3.31 0 004.15 2.3 3.75 3.75 0 002.61-3.75 5.5 5.5 0 00-1.3-3.82 3.47 3.47 0 00-4.94 0 2.73 2.73 0 000 3.76 2.69 2.69 0 003.76 0zM501.69 255.34a2 2 0 01-2.25.27 2.43 2.43 0 01-.61-.67c-.09-.21-.1-.21 0 0v.14a2.13 2.13 0 000 .43v-.3l.15-.33a1.92 1.92 0 011.57-.89 2.07 2.07 0 011.91 1.47 2.67 2.67 0 00-3.26-1.86 2.73 2.73 0 00-1.86 3.27 3.32 3.32 0 004.15 2.3 3.75 3.75 0 002.61-3.75 5.5 5.5 0 00-1.29-3.82 3.47 3.47 0 00-4.94 0 2.71 2.71 0 000 3.76 2.68 2.68 0 003.75 0zM503.05 274.46a32.3 32.3 0 009.41-.51 29.27 29.27 0 004.2-1.23c1.09-.41 3-1.76 4.16-1.64 1.18-.59 1.58 0 1.19 1.79a16.61 16.61 0 01.07 2.73 7.27 7.27 0 01-3.51 5.88c-5.59 3.53-7.37-4.14-8.06-8-.49-2.68-4.46-2.38-5.13 0a2.86 2.86 0 00.39 2.67c2.05 2.69 6.66 0 4.59-2.68l.15 1.42h-5.13c1 5.42 3.26 12.17 9.73 12.81 5.53.55 10.62-4.32 11.87-9.38.85-3.42 1.23-12.16-3.5-13.09-2.85-.56-5.72 1.36-8.23 2.34a27 27 0 01-12.2 1.54c-3.41-.29-3.39 5 0 5.32z"/><path d="M510.56 282.41a22.33 22.33 0 0013.85-3.54l-2.69-4.58c-2.74 1.95-4.22 4.76-7.55 6-2.71 1-2.45 5.21.7 5.22a10.84 10.84 0 005.21-1.29c2.31-1.17 1.27-5.12-1.34-4.95h-.62c-3.39.23-3.42 5.55 0 5.32l.62-.05-1.34-4.95a5 5 0 01-2.53.57l.71 5.22a18 18 0 004.82-2.55c1.5-1.15 2.5-2.9 4-4 2.74-1.95.23-6.46-2.69-4.58a17.53 17.53 0 01-11.16 2.81c-3.41-.26-3.4 5 0 5.31zM387.62 299.39c8.7-1.9 16 4.59 21.54 10.47 6 6.35 11.47 13.19 17 19.94q8.84 10.89 17.18 22.2c4 5.43 7.6 10.43 14 13.21 13.91 6.06 24.89-2.5 36.27-9.66q23.46-14.76 47.38-28.78a2.7 2.7 0 001.22-3l-6.52-18.36-1.22 3a153.89 153.89 0 0130.09-13c3.25-1 1.86-6.14-1.41-5.13a160.35 160.35 0 00-31.36 13.53 2.68 2.68 0 00-1.22 3l6.51 18.36 1.22-3q-23.47 13.78-46.54 28.26c-6.69 4.2-13.8 10.58-21.9 11.5a20.51 20.51 0 01-17.64-6.93c-5.46-6.23-10-13.44-15.17-20q-8.26-10.56-17-20.77c-8.5-9.94-19.11-23.21-33.86-20-3.34.73-1.92 5.85 1.42 5.12z"/><path d="M356.77 322c-3 22.53 7.88 42.94 20.28 60.93 11.34 16.45 24 32.53 39.85 44.87 16.33 12.71 35.76 20 56.63 18.32 22.73-1.82 44.34-11.6 65-20.52 21-9 41.5-20.08 55.3-38.83 2-2.75-2.57-5.4-4.58-2.68-11.43 15.51-28.24 25.44-45.45 33.38-18.82 8.69-38.72 17.5-59.09 21.69-20.71 4.24-40.71.59-58.42-11.16-15.59-10.33-28.1-25-39.06-39.94-13.55-18.51-28.59-40.59-25.34-64.71.45-3.34-4.66-4.79-5.12-1.41zM354.2 313.43a64.63 64.63 0 0024.49-19.21c2.08-2.67-1.65-6.45-3.76-3.76a61.22 61.22 0 01-23.42 18.38c-3.11 1.41-.41 6 2.69 4.59zM367.46 262.66c.6 4.23 1.3 8.9.3 13.12-.79 3.32 4.33 4.74 5.12 1.41 1.24-5.21.44-10.72-.29-15.95-.47-3.37-5.59-1.93-5.13 1.42z"/><path d="M340 277.09c-.44 6.44-.41 12.59 2.6 18.46 2.77 5.4 7.21 9.82 10.9 14.57 2.1 2.7 5.83-1.09 3.76-3.76-3.11-4-6.77-7.71-9.31-12.12-3.12-5.4-3.06-11.09-2.64-17.15.23-3.41-5.08-3.39-5.31 0zM348 270.38l1.09 3.67a2.66 2.66 0 105.12-1.41l-1.12-3.64a2.66 2.66 0 10-5.12 1.41zM356 264.35a18.71 18.71 0 01.63 5c0 3.42 5.28 3.43 5.31 0a23.86 23.86 0 00-.82-6.4c-.89-3.3-6-1.9-5.12 1.41zM373 265.76c4.45-1 8.88-2.11 13.33-3.12 2.07-.47 5.75-2 7.64-.72 1.24.05 1.63.7 1.19 1.94l.08 3c-1.4 2.28-9 2.48-11.36 3l-13.64 2.81c-3.35.69-1.93 5.81 1.41 5.12 7.74-1.59 15.75-2.76 23.38-4.82 5.05-1.36 5.63-4.21 5.45-9.12-.21-5.28-2.06-7.86-7.66-7.67-7.06.23-14.39 2.85-21.23 4.45-3.33.78-1.92 5.9 1.41 5.12z"/><path d="M337 267.25c-5.22 1.38-10.69 2.43-15.81 4.17-3.23 1.1-4.94 3.73-7.06 6.29a2.69 2.69 0 00.54 4.17c3.51 1.87 7.91 5.35 11.93 5.84 1.7.21 3.33-.46 5-.86a48 48 0 019.24-1.25c3.41-.14 3.42-5.46 0-5.31-4 .16-7.58 1.07-11.46 1.66-4.2.63-8.34-2.73-12-4.66l.54 4.17c2.62-3.18 3.91-4.73 8.07-5.82l12.46-3.27c3.3-.87 1.9-6-1.42-5.13zM376.49 279.66c.12 3.8.3 8.51-2.06 11.71-2 2.75 2.57 5.4 4.58 2.68 2.91-3.93 2.95-9.7 2.79-14.39-.11-3.41-5.43-3.43-5.31 0zM537.9 492.74a377.2 377.2 0 00165.48-103.21c2.33-2.5-1.42-6.26-3.76-3.75a371.67 371.67 0 01-163.13 101.83c-3.26 1-1.87 6.13 1.41 5.13z"/><path d="M556.5 485.57c1.22 24.77-8.74 47.66-19.2 69.54s-20.2 43.72-27.17 67c-7.05 23.55-12 47.68-15.86 71.93-1.92 12-3.59 24-5.16 36q-1.17 9-2.28 18.12c-.63 5.16-2.4 11.49-1.57 16.66.6 3.79 3.24 5.84 6.89 6.5 6.4 1.16 13.38.92 19.86 1.09q19.68.52 39.34-.84a189.11 189.11 0 0019.18-1.81 9.52 9.52 0 007.73-5.77c2.4-5.21 3.24-11.51 4.67-17l5.47-21.16 9.93-38.46c3.24-12.52 6.38-25.2 12.41-36.73 10.61-20.25 27.63-36.15 41.29-54.25a270 270 0 0053.73-141.77c.26-3.41-5.06-3.39-5.31 0a263.91 263.91 0 01-42.31 123.85c-12.08 18.53-27.39 34.28-40.64 51.89a118.15 118.15 0 00-15.69 27.09c-4.44 11.07-7.11 22.76-10.09 34.28L582 729.19l-4.72 18.27-2 7.69c-1.14 4.42-1.17 8.33-6.33 9.51-5.59 1.28-11.91 1.21-17.64 1.61q-9.81.68-19.66.89c-12.34.26-25.08.46-37.37-.91-6.54-.73-3.05-10.88-2.51-15.36q1.11-9.06 2.27-18.12c1.56-12.16 3.24-24.3 5.17-36.41a578 578 0 0114.47-67.61c7.22-25.3 17.66-48.85 28.93-72.55 10.56-22.21 20.4-45.53 19.16-70.63-.17-3.4-5.48-3.42-5.31 0zM675.59 575.16c6.53 21.19 22.09 41 43.57 48.35 24.71 8.44 47.8-5.35 64.94-22.37a222.71 222.71 0 0045.38-65.53c2.67-5.85 5.11-11.82 7.27-17.89s4.19-12.71.83-18.68c-3-5.39-8.57-9.79-12.84-14.21-5.66-5.84-11.09-12.83-17.45-17.9a13.28 13.28 0 00-14-1.78c-5.75 2.75-9.32 9.81-13.35 14.48a222.08 222.08 0 01-36.52 33.81c-2.72 2-.08 6.62 2.68 4.59A231.8 231.8 0 00773 494.9q6.15-6.18 11.79-12.83c3.3-3.91 7.27-11.62 12.57-12.69 6.21-1.24 10.93 6.14 14.67 10l14.39 14.88c2.19 2.26 5 4.61 6.53 7.46 1.91 3.65.91 7.64-.24 11.33a169.44 169.44 0 01-7.16 18.34 221.27 221.27 0 01-38.32 58.73c-14.87 16.33-34.81 33.88-58.64 30.27-23.58-3.56-41.21-24.9-47.92-46.64-1-3.26-6.13-1.87-5.12 1.41z"/><path d="M711.81 396.18c33.9 28.82 33.19 76.69 31.66 117.33-.13 3.42 5.19 3.42 5.31 0 1.55-42 1.78-91.31-33.22-121.08-2.59-2.21-6.36 1.53-3.75 3.75zM499.93 769.2c-.78 5.14.57 14-2.89 17.89-2.26 2.52-6.55 3.28-9.68 4.75a63.17 63.17 0 00-10.65 6.32c-4.72 3.46-10.81 8-13 13.61-1.95 5 .44 9.24 5.46 10.72 7.39 2.18 16 2.37 23.64 2.67a263.83 263.83 0 0027.12-.53c8.26-.52 16.57-1.06 24.78-2.08 5.43-.67 11.09-1.81 15.52-5.24 6.11-4.73 6.59-12 7.2-19.13.84-9.8 2.55-19.5 3.32-29.31.27-3.4-5.05-3.39-5.31 0-.72 9.19-2.28 18.26-3.15 27.43-.44 4.58-.13 9.86-2.65 13.92-2.06 3.32-5.73 5-9.37 6-7.86 2.11-16.44 2.13-24.52 2.73-9.35.71-18.73 1.2-28.11 1.06-4.83-.07-9.66-.3-14.46-.75a140.4 140.4 0 01-7-.83c-1.67-.25-4.74-.21-6.22-1.19-6.62-4.34 12.28-16.58 15.66-18.5a70.88 70.88 0 0111.48-5c2.58-.92 4.69-1.87 5.79-4.51 2.31-5.54 1.27-12.72 2.15-18.57.5-3.34-4.61-4.78-5.12-1.41zM803.94 467.49c3.11-7.55 5.87-15.41 9.46-22.74 3.72-7.61 10.23-11.33 18.59-8.35 7.82 2.78 13.85 9.86 19.52 15.6 5.47 5.54 11.34 11.13 15.81 17.54 4 5.71 8.18 15.69 1.93 21.46-6.84 6.31-11.28-2.27-17.33-4.47-4.45-1.62-8.46-.27-10.63 3.94a157 157 0 00-7.1 17.35c-1.19 3.21 3.94 4.6 5.12 1.42 1.43-3.87 3.18-7.59 4.76-11.39.78-1.89 1.82-6.39 4.27-6.74s4.92 2.52 6.54 3.83c4.68 3.77 10.1 5.06 15.52 1.81 14.85-8.89 4-27.84-4.21-37A248.18 248.18 0 00846 439.29c-5.7-5.05-12.46-9.41-20.36-9.26-7.34.14-12.78 4.35-16.17 10.65-4.32 8-7.23 17-10.69 25.4-1.3 3.16 3.84 4.53 5.12 1.41zM461.47 374.76l18.46-10.64c3-1.7.29-6.29-2.68-4.58l-18.46 10.64c-3 1.7-.29 6.3 2.68 4.58z"/><path d="M623.1 294c29.36-7.19 64.33-9.41 88.1 12.85s20.81 62.06 8.18 89.26c-1.43 3.08 3.15 5.78 4.59 2.68 13.39-28.84 16.57-70.6-8-94.69-25.09-24.65-62.6-23-94.32-15.22-3.32.81-1.91 5.94 1.41 5.12zM511.32 778.26a13.85 13.85 0 01-4.86 2.7c-1.6.5-3 1.67-4.75 1.55a2.68 2.68 0 00-2.56 2l-.16.46c-1.12 3.24 4 4.63 5.12 1.41l.16-.46-2.56 2c2.6.19 4.59-1.22 7-2a19.65 19.65 0 006.39-3.83c2.66-2.15-1.12-5.88-3.76-3.76z"/><path d="M501.75 780.74c3.53 2.37 6.56 5.74 9.7 8.61 1.52 1.39 4.81.57 4.53-1.88l-.06-.49c-.38-3.36-5.69-3.4-5.31 0l.06.49 4.53-1.88c-3.48-3.18-6.84-6.8-10.77-9.43-2.85-1.91-5.51 2.69-2.68 4.58zM836.39 484a88.29 88.29 0 011.53 14c.11 3.41 5.42 3.43 5.32 0a97.82 97.82 0 00-1.73-15.45c-.64-3.35-5.76-1.93-5.12 1.41z"/><path d="M835.06 492.64c1.25-.6 3.85.29 5.23.3a25 25 0 005.65-.63c3.34-.73 1.93-5.85-1.41-5.13a20 20 0 01-6.72.25 8.87 8.87 0 00-5.43.62c-3.07 1.5-.38 6.08 2.68 4.59z"/><g fill="#78a5a3"><path d="M178.27 251.83A257.83 257.83 0 00181.6 308c3 17.64 7.34 36.31 15.28 52.46 3 6.13 7.26 12 13.33 15.46 7 3.94 15.44 3.92 23.26 4.1a346.16 346.16 0 0056.64-3.34 347.1 347.1 0 0064.44-15.48c3.22-1.1 1.84-6.23-1.41-5.12a344.41 344.41 0 01-105.65 18.68c-8.33.14-17 .4-25.25-.64-8.63-1.08-14.74-5.69-19.05-13.1-8.25-14.2-12.14-32.09-15.29-48a250.85 250.85 0 01-4.31-61.15c.17-3.42-5.15-3.41-5.32 0z"/><path d="M328 205.49l-153.5 3.34c-9.32.2-18.86.11-26.34 6.49-6.26 5.35-9.61 13.43-11.75 21.18-6.12 22.08-8.37 45.86-10.5 68.62-2.31 24.59-3.29 49.29-3.49 74-.19 22-2.36 47.39 7.53 67.77 10 20.64 35.23 15.26 53.92 14.11l75.55-4.64c28.09-1.72 56.43-2.5 84.43-5.35 8.71-.89 21.32-1.58 24-11.86 1.52-5.8.86-12.65.25-18.54a99.51 99.51 0 00-3.95-19.08c-1-3.26-6.14-1.87-5.12 1.41 3.17 10.26 5.93 22.84 3.88 33.6-1.19 6.31-7 7.43-12.49 8.31-5.82.95-11.73 1.32-17.61 1.69-22.48 1.42-45 2.76-67.45 4.14l-69.58 4.27c-11 .68-22 1.52-33 2-9.93.44-20.59-.28-26.48-9.47-5.74-9-7.33-20.85-8.07-31.24-.8-11-.62-22.17-.57-33.23.11-22.1.83-44.2 2.53-66.24a604.74 604.74 0 019-68.76c1.56-8.08 3.37-16.49 7.92-23.49 6-9.18 15.17-10.1 25.32-10.33q77.75-1.71 155.5-3.38c3.41-.07 3.42-5.38 0-5.31z"/><path d="M156.33 259.91a388.31 388.31 0 00-1.43 77.8q1.51 18.36 4.76 36.52c1.12 6.23 2.38 12.45 3.81 18.62 1.07 4.6 2.13 9.41 5.11 13.21 6.16 7.88 19.43 8.41 28.49 9.56a187 187 0 0039.93.44c26.13-2.29 52.18-6.23 78.2-9.46L360 401c7.34-.91 20.93-2.22 19-12.81-.6-3.36-5.72-1.94-5.12 1.41.95 5.28-11.13 5.74-13.91 6.09l-17.55 2.18-34.11 4.24c-23.11 2.88-46.22 6.25-69.41 8.44a196.05 196.05 0 01-35.19.46 160.45 160.45 0 01-16.48-2.3c-5.56-1.07-12.1-1.91-15.36-7.12-2.51-4-3.18-9.33-4.18-13.88q-1.84-8.36-3.3-16.79-3-17.44-4.4-35.12a388.27 388.27 0 011.58-75.91c.4-3.39-4.91-3.36-5.31 0zM336.65 209.78c22.81-2.66 20.44 22.13 23.06 37.57.56 3.36 5.69 1.94 5.12-1.41-1.78-10.5-.55-21.8-6.09-31.33-4.83-8.3-12.82-11.23-22.09-10.15-3.36.39-3.4 5.71 0 5.32zM187.24 208.86c.65-1.87 2.92-2.42 4.63-2.85 2.8-.7 5.16-.81 6.74 2 2.6 4.6.08 9.51-4.39 11.5-3.12 1.39-.42 6 2.68 4.59 8.09-3.59 10.89-14.51 4.55-21.15-5.14-5.38-16.95-2.41-19.33 4.53-1.11 3.24 4 4.64 5.12 1.41zM224.82 206.38c3.29-5.95 8.78.89 8.51 5.1a12.85 12.85 0 01-2 5.69 24.56 24.56 0 01-2.15 3c-1.68 1.21-1.32 2.51 1.06 3.91 1.78-2.93-2.82-5.6-4.59-2.68-2.08 3.43 1.82 6.48 5.05 4.73 4.28-2.34 7.63-9.66 8-14.3.71-9.87-12.52-18.89-18.44-8.14-1.65 3 2.93 5.68 4.58 2.68zM260.74 206c1.59-4.59 7.41-2.64 8.42 1.2 1.22 4.61-2.77 8-6.82 9-3.31.83-1.91 6 1.41 5.12 8.1-2 14.07-10.76 9.19-18.63a9.67 9.67 0 00-17.33 1.91c-1.12 3.24 4 4.63 5.13 1.41zM292.8 206.54c.8-4.75 6.37-4.07 8.31-.55 2.28 4.14 0 8.93-2.66 12.27-2.11 2.65 1.62 6.43 3.75 3.76 4.93-6.19 7.86-15.49 1.16-21.68-5.16-4.76-14.46-2.48-15.69 4.78-.56 3.35 4.56 4.78 5.13 1.42z"/><path d="M328.94 204.13c.58-3.49 4.21-3.73 6.3-1.34 1.59 1.81 1.66 4.26 1.3 6.48a14.59 14.59 0 01-6.24 9.55c-2.78 2-.12 6.56 2.68 4.59 6.64-4.67 12.11-14.46 7.46-22.39-3.95-6.73-15.16-7.18-16.62 1.7-.55 3.35 4.57 4.78 5.12 1.41zM219.14 259.26a4.2 4.2 0 00-4 .08 4.83 4.83 0 00-2.14 2.86 4.29 4.29 0 004.1 5.33 4.88 4.88 0 005-3.79 5.6 5.6 0 00-3.8-6.23 2.68 2.68 0 00-3.27 1.85 2.74 2.74 0 001.86 3.27c-.6-.22.2.26-.25-.15.18.16.34.51.15.1 0 .09.22.59.15.25-.08-.18-.09-.15 0 .09v-.3c-.19.56.11-.43 0 .12.14-.3.16-.37.07-.21s-.06.11.14-.19.38-.18 0 0 .56-.18 0 0c-.31.08.57 0 .09 0 .39.07.48.08.28 0s-.12 0 .23.13c-.38-.21.25.25.32.39s.13.81.14.58-.13.57 0 .09c-.14.33-.17.4-.06.23s.06-.11-.14.18q.26-.24 0 0a.76.76 0 01-.44.23h.16a1.45 1.45 0 01-1.21-.16 2.74 2.74 0 003.64-1c.6-1.15.41-3-1-3.64zM247.1 257.31a4.2 4.2 0 00-4 .08 4.88 4.88 0 00-2.17 2.86 4.28 4.28 0 004.11 5.32 4.87 4.87 0 005-3.78 5.59 5.59 0 00-3.8-6.23 2.65 2.65 0 00-3.26 1.85 2.73 2.73 0 001.85 3.27c-.6-.23.21.26-.25-.16.18.17.35.52.15.11 0 .09.22.59.15.25-.08-.18-.08-.16 0 .08v-.29c-.19.56.1-.44 0 .11.14-.29.16-.36.06-.2s-.06.1.14-.19.38-.18 0-.06.56-.17 0 0c-.31.08.58 0 .09 0 .39.07.48.08.28 0s-.12 0 .24.12c-.39-.2.24.26.31.39s.14.82.14.58-.13.58 0 .1c-.14.32-.16.4-.06.23s.06-.11-.14.17c.17-.16.18-.16 0 0a.81.81 0 01-.45.23l.16-.05a1.42 1.42 0 01-1.2-.15 2.72 2.72 0 003.63-1c.61-1.14.41-3-1-3.63zM275.06 255.36a4.23 4.23 0 00-4 .07 4.93 4.93 0 00-2.17 2.87 4.3 4.3 0 004.11 5.32 4.85 4.85 0 005-3.78 5.61 5.61 0 00-3.79-6.24 2.68 2.68 0 00-3.27 1.86 2.74 2.74 0 001.86 3.27c-.6-.23.2.26-.26-.16.19.17.35.52.15.11 0 .09.23.59.15.25s-.08-.16 0 .08v-.29c-.19.56.11-.44 0 .11.14-.3.16-.36.06-.2s-.06.1.15-.2.38-.17 0-.05.55-.18 0 0c-.31.08.58 0 .09-.05.39.07.49.08.28 0s-.11 0 .24.12c-.39-.2.24.26.32.39s.13.82.14.58-.14.57 0 .1c-.15.32-.17.4-.07.22s.06-.1-.14.18c.18-.16.18-.17 0 0a.74.74 0 01-.45.22h.17a1.41 1.41 0 01-1.21-.16A2.72 2.72 0 00276 259c.61-1.14.41-3-.95-3.63zM303 253.4a4.21 4.21 0 00-4 .08 4.89 4.89 0 00-2.18 2.86 4.3 4.3 0 004.11 5.33 4.88 4.88 0 005-3.79 5.6 5.6 0 00-3.8-6.23 2.68 2.68 0 00-3.27 1.86 2.72 2.72 0 001.86 3.26c-.6-.22.2.26-.25-.15.18.16.34.52.14.1.05.09.23.59.15.26s-.08-.16 0 .08v-.3c-.19.56.11-.43 0 .12.14-.3.16-.37.07-.2s-.06.1.14-.2.38-.18 0-.05.55-.18 0 0c-.31.08.57 0 .09 0 .39.07.48.08.28 0s-.12 0 .23.13c-.39-.21.25.25.32.39s.13.81.14.58-.13.57 0 .09c-.14.33-.17.4-.07.23s.06-.11-.13.18c.17-.16.17-.17 0 0a.8.8 0 01-.44.22h.16a1.42 1.42 0 01-1.21-.16A2.74 2.74 0 00304 257c.6-1.15.4-3.05-1-3.64zM331 251.45a4.2 4.2 0 00-4 .08 4.91 4.91 0 00-2.17 2.86 4.28 4.28 0 004.1 5.32 4.87 4.87 0 005-3.78 5.59 5.59 0 00-3.8-6.23 2.66 2.66 0 00-3.26 1.85 2.73 2.73 0 001.85 3.27c-.6-.23.21.26-.25-.15.18.16.34.51.15.1 0 .09.22.59.15.25-.08-.18-.08-.16 0 .09v-.3c-.18.56.11-.43 0 .11.14-.29.17-.36.07-.2s-.06.1.14-.19.38-.18 0-.06.56-.17 0 0c-.31.08.57 0 .09 0 .39.07.48.08.28 0s-.12 0 .23.12c-.38-.2.25.26.32.39s.14.82.14.58-.13.58 0 .1c-.14.32-.16.4-.06.23s.06-.11-.14.17c.17-.15.17-.16 0 0a.88.88 0 01-.45.23l.16-.05a1.45 1.45 0 01-1.21-.15 2.74 2.74 0 003.64-1c.6-1.15.41-3.05-.95-3.64zM221.16 287.32a4.2 4.2 0 00-4 .08 4.88 4.88 0 00-2.17 2.86 4.29 4.29 0 004.11 5.32 4.85 4.85 0 005-3.78 5.6 5.6 0 00-3.79-6.23 2.66 2.66 0 00-3.27 1.85 2.74 2.74 0 001.86 3.27c-.6-.23.2.26-.26-.16.19.17.35.52.15.11 0 .09.23.59.15.25-.08-.19-.08-.16 0 .08v-.29c-.19.56.11-.44 0 .11.14-.29.16-.36.06-.2s-.06.1.15-.2.38-.17 0-.05.55-.17 0 0c-.31.08.58 0 .09 0 .39.07.49.08.28 0s-.11 0 .24.12c-.39-.2.24.26.32.39s.13.82.14.58-.14.58 0 .1c-.15.32-.17.4-.07.22s.06-.1-.14.18c.18-.16.18-.16 0 0a.81.81 0 01-.45.23l.17-.05a1.44 1.44 0 01-1.21-.15 2.72 2.72 0 003.63-1c.61-1.14.41-3-1-3.63zM249.12 285.37a4.18 4.18 0 00-4 .07 4.92 4.92 0 00-2.12 2.86 4.3 4.3 0 004.11 5.33 4.87 4.87 0 005-3.78 5.61 5.61 0 00-3.8-6.24 2.68 2.68 0 00-3.27 1.86 2.74 2.74 0 001.86 3.27c-.6-.23.2.26-.25-.16.18.17.34.52.14.11 0 .08.23.59.15.25s-.08-.16 0 .08v-.29c-.19.56.11-.44 0 .11.14-.3.16-.36.07-.2s-.06.1.14-.2.38-.18 0-.05.55-.18 0 0c-.31.08.57 0 .09-.05.39.07.48.08.28 0s-.12 0 .23.12c-.39-.2.25.25.32.39s.13.81.14.58-.13.57 0 .09c-.14.33-.17.4-.07.23s.06-.1-.13.18c.17-.16.17-.17 0 0a.8.8 0 01-.44.22h.16a1.42 1.42 0 01-1.21-.16 2.74 2.74 0 003.64-.95c.6-1.15.4-3-1-3.63zM277.09 283.41a4.2 4.2 0 00-4 .08 4.91 4.91 0 00-2.17 2.86 4.29 4.29 0 004.1 5.33 4.88 4.88 0 005-3.79 5.6 5.6 0 00-3.8-6.23 2.66 2.66 0 00-3.26 1.85 2.72 2.72 0 001.85 3.27c-.6-.22.21.26-.25-.15.18.16.34.51.15.1 0 .09.22.59.15.25-.08-.18-.08-.15 0 .09v-.3c-.18.56.11-.43 0 .12.14-.3.17-.37.07-.21s-.06.11.14-.19.38-.18 0-.05.56-.18 0 0c-.31.08.57 0 .09 0 .39.07.48.08.28 0s-.12 0 .23.13c-.38-.21.25.25.32.38s.14.82.14.59-.13.57 0 .09c-.14.33-.16.4-.06.23s.06-.11-.14.18c.17-.16.17-.17 0 0a.81.81 0 01-.45.23h.16a1.45 1.45 0 01-1.21-.16 2.74 2.74 0 003.64-.95c.61-1.15.41-3.05-1-3.64zM305.05 281.46a4.2 4.2 0 00-4 .08 4.88 4.88 0 00-2.17 2.86 4.29 4.29 0 004.11 5.32 4.85 4.85 0 005-3.78 5.6 5.6 0 00-3.79-6.23 2.66 2.66 0 00-3.27 1.85 2.73 2.73 0 001.85 3.27c-.59-.23.21.26-.25-.16.18.17.35.52.15.11 0 .09.23.59.15.25-.08-.18-.08-.16 0 .08v-.29c-.19.56.11-.44 0 .11.14-.29.16-.36.06-.2s-.06.1.14-.19.39-.18 0-.06.56-.17 0 0c-.31.08.58 0 .09 0 .39.07.48.08.28 0s-.11 0 .24.12c-.39-.2.24.26.31.39s.14.82.14.58-.13.58 0 .1c-.15.32-.17.4-.07.23s.06-.11-.14.17c.18-.16.18-.16 0 0a.81.81 0 01-.45.23l.16-.05a1.43 1.43 0 01-1.2-.15 2.72 2.72 0 003.63-1c.61-1.14.41-3-.95-3.63zM225 315.37a4.23 4.23 0 00-4 .08 4.91 4.91 0 00-2.17 2.86 4.3 4.3 0 004.11 5.33 4.85 4.85 0 005-3.79 5.59 5.59 0 00-3.79-6.23 2.68 2.68 0 00-3.27 1.86 2.72 2.72 0 001.86 3.26c-.6-.22.2.27-.25-.15.18.17.34.52.14.1 0 .09.23.59.15.26s-.08-.16 0 .08v-.3c-.19.57.11-.43 0 .12.14-.3.16-.37.07-.2s-.06.1.14-.2.38-.18 0-.05.55-.18 0 0c-.31.08.57 0 .09 0 .38.07.48.08.28 0s-.12 0 .23.13c-.39-.21.25.25.32.39s.13.81.14.58-.14.57 0 .09c-.15.33-.17.4-.07.23s.06-.11-.13.18c.17-.16.17-.17 0 0a.8.8 0 01-.45.22h.17a1.42 1.42 0 01-1.21-.16A2.74 2.74 0 00226 319c.6-1.15.4-3.05-1-3.64zM253 313.42a4.2 4.2 0 00-4 .08 4.87 4.87 0 00-2.17 2.86 4.28 4.28 0 004.1 5.32 4.86 4.86 0 005-3.78 5.59 5.59 0 00-3.8-6.23 2.67 2.67 0 00-3.27 1.85 2.74 2.74 0 001.86 3.27c-.6-.23.21.26-.25-.15.18.16.34.51.15.1 0 .09.22.59.15.25-.08-.18-.09-.16 0 .09v-.3c-.18.56.11-.43 0 .12.14-.3.16-.37.07-.21s-.06.1.14-.19.38-.18 0-.05.56-.18 0 0c-.31.08.57 0 .09 0 .39.07.48.08.28 0s-.12 0 .23.12c-.38-.2.25.26.32.39s.13.82.14.59-.13.57 0 .09c-.14.32-.16.4-.06.23s.06-.11-.14.17c.17-.15.17-.16 0 0a.76.76 0 01-.44.23h.16a1.45 1.45 0 01-1.21-.15 2.74 2.74 0 003.64-.95c.6-1.15.41-3.05-.95-3.64zM280.92 311.47a4.2 4.2 0 00-4 .08 4.88 4.88 0 00-2.17 2.86 4.29 4.29 0 004.11 5.32 4.86 4.86 0 005-3.78 5.6 5.6 0 00-3.79-6.23 2.66 2.66 0 00-3.27 1.85 2.73 2.73 0 001.85 3.27c-.6-.23.21.26-.25-.16.18.17.35.52.15.11 0 .09.22.59.15.25s-.08-.16 0 .08v-.29c-.19.56.1-.44 0 .11.14-.29.16-.36.06-.2s-.06.1.14-.2.39-.17 0-.05.56-.17 0 0c-.31.08.58 0 .09 0 .39.06.48.08.28 0s-.12 0 .24.12c-.39-.2.24.26.31.39s.14.82.14.58-.13.58 0 .1c-.15.32-.17.4-.07.22s.06-.1-.14.18c.17-.16.18-.16 0 0a.81.81 0 01-.45.23l.16-.05a1.42 1.42 0 01-1.2-.15 2.72 2.72 0 003.63-1c.61-1.14.41-3-.95-3.63zM308.88 309.52a4.2 4.2 0 00-4 .07 4.94 4.94 0 00-2.17 2.86 4.3 4.3 0 004.11 5.33 4.85 4.85 0 005-3.78 5.6 5.6 0 00-3.79-6.24 2.68 2.68 0 00-3.27 1.86 2.74 2.74 0 001.86 3.27c-.6-.23.2.26-.26-.16.19.17.35.52.15.11 0 .08.23.58.15.25s-.08-.16 0 .08v-.29c-.19.56.11-.44 0 .11.14-.3.16-.36.07-.2s-.06.1.14-.2.38-.18 0 0 .55-.18 0 0c-.31.08.58 0 .1 0 .38.07.48.08.27 0s-.11 0 .24.12c-.39-.21.25.25.32.39s.13.81.14.58-.14.57 0 .09c-.15.33-.17.4-.07.23s.06-.1-.14.18c.18-.16.18-.17 0 0a.8.8 0 01-.45.22h.17a1.42 1.42 0 01-1.21-.16 2.72 2.72 0 003.63-1c.61-1.15.41-3-.95-3.63zM336.84 307.56a4.18 4.18 0 00-4 .08 4.89 4.89 0 00-2.18 2.86 4.3 4.3 0 004.11 5.33 4.88 4.88 0 005-3.79 5.6 5.6 0 00-3.8-6.23 2.67 2.67 0 00-3.27 1.85 2.73 2.73 0 001.86 3.27c-.6-.22.2.26-.25-.15.18.16.34.51.14.1.05.09.23.59.16.25-.09-.18-.09-.15 0 .09v-.3c-.19.56.11-.43 0 .12.14-.3.16-.37.07-.21s-.06.11.14-.19.38-.18 0-.05.55-.18 0 0c-.31.08.57 0 .09 0 .39.07.48.08.28 0s-.12 0 .23.13c-.39-.21.25.25.32.38s.13.82.14.59-.13.57 0 .09c-.14.33-.17.4-.07.23s.06-.11-.13.18q.25-.24 0 0a.76.76 0 01-.44.23h.16a1.45 1.45 0 01-1.21-.16 2.74 2.74 0 003.64-.95c.6-1.15.41-3.05-1-3.64zM231.23 343.43a4.18 4.18 0 00-4 .08 4.89 4.89 0 00-2.18 2.86 4.29 4.29 0 004.11 5.32 4.85 4.85 0 005-3.78 5.58 5.58 0 00-3.79-6.23 2.66 2.66 0 00-3.27 1.85 2.74 2.74 0 001.9 3.27c-.6-.23.2.26-.25-.16.18.17.34.52.14.11.05.09.23.59.15.25-.08-.18-.08-.16 0 .08v-.29c-.19.56.11-.44 0 .11.14-.29.16-.36.07-.2s-.06.1.14-.19.38-.18 0-.06.55-.17 0 0c-.31.08.57 0 .09 0 .38.07.48.08.28 0s-.12 0 .23.12c-.39-.2.25.26.32.39s.13.82.14.58-.13.58 0 .1c-.15.32-.17.4-.07.23s.06-.11-.13.17c.17-.16.17-.16 0 0a.82.82 0 01-.44.23l.16-.05a1.45 1.45 0 01-1.21-.15 2.74 2.74 0 003.64-.95c.6-1.15.4-3.05-1-3.64zM259.2 341.48a4.23 4.23 0 00-4 .07 4.93 4.93 0 00-2.17 2.87 4.28 4.28 0 004.1 5.32 4.87 4.87 0 005-3.78 5.61 5.61 0 00-3.8-6.24 2.66 2.66 0 00-3.26 1.86 2.73 2.73 0 001.85 3.27c-.6-.23.21.26-.25-.16.18.17.34.52.15.11 0 .09.22.59.15.25s-.09-.16 0 .08v-.29c-.18.56.11-.44 0 .11.14-.3.17-.36.07-.2s-.06.1.14-.2.38-.17 0-.05.56-.18 0 0c-.31.08.57 0 .09 0 .39.06.48.07.28 0s-.12 0 .23.12c-.38-.2.25.26.32.39s.14.82.14.58-.13.57 0 .1c-.14.32-.16.4-.06.22s.06-.1-.14.18c.17-.16.17-.17 0 0a.74.74 0 01-.44.22h.16a1.45 1.45 0 01-1.21-.15 2.74 2.74 0 003.64-1c.6-1.14.41-3-.95-3.63zM287.16 339.52a4.23 4.23 0 00-4 .08 4.91 4.91 0 00-2.17 2.86 4.3 4.3 0 004.11 5.33 4.86 4.86 0 005-3.79 5.61 5.61 0 00-3.79-6.23 2.67 2.67 0 00-3.27 1.86 2.71 2.71 0 001.85 3.26c-.6-.22.21.26-.25-.15.18.17.35.52.15.1 0 .09.23.59.15.26s-.08-.16 0 .08v-.3c-.19.57.11-.43 0 .12.14-.3.16-.37.06-.2s-.06.1.14-.2.39-.18 0-.05.56-.18 0 0c-.31.08.58 0 .09 0 .39.07.48.08.28 0s-.12 0 .24.13c-.39-.21.24.25.31.39s.14.81.14.58-.13.57 0 .09c-.15.33-.17.4-.07.23s.06-.11-.14.18c.18-.16.18-.17 0 0a.8.8 0 01-.45.22h.16a1.39 1.39 0 01-1.2-.16 2.72 2.72 0 003.63-.95c.61-1.15.41-3.05-.95-3.64zM315.12 337.57a4.2 4.2 0 00-4 .08 4.91 4.91 0 00-2.17 2.86 4.29 4.29 0 004.11 5.32 4.85 4.85 0 005-3.78 5.59 5.59 0 00-3.79-6.23 2.67 2.67 0 00-3.27 1.85 2.73 2.73 0 001.86 3.27c-.6-.23.2.26-.26-.15.19.16.35.51.15.1 0 .09.23.59.15.25-.08-.18-.08-.16 0 .09v-.3c-.19.56.11-.43 0 .12.14-.3.16-.37.07-.21s-.06.1.14-.19.38-.18 0 0 .55-.18 0 0c-.31.08.58 0 .1 0 .38.07.48.08.27 0s-.11 0 .24.12c-.39-.2.25.26.32.39s.13.82.14.59-.14.57 0 .09c-.15.32-.17.4-.07.23s.06-.11-.13.17c.17-.15.17-.16 0 0a.81.81 0 01-.45.23l.17-.05a1.45 1.45 0 01-1.21-.15 2.72 2.72 0 003.63-1c.61-1.15.41-3-.95-3.64zM343.08 335.62a4.18 4.18 0 00-4 .08 4.86 4.86 0 00-2.18 2.86 4.29 4.29 0 004.11 5.32 4.87 4.87 0 005-3.78 5.61 5.61 0 00-3.8-6.24 2.68 2.68 0 00-3.27 1.86 2.74 2.74 0 001.86 3.27c-.6-.23.2.26-.25-.16.18.17.34.52.15.11 0 .09.22.59.15.25s-.09-.16 0 .08v-.29c-.19.56.11-.44 0 .11.14-.29.16-.36.07-.2s-.06.1.14-.2.38-.17 0-.05.56-.18 0 0c-.31.08.57 0 .09 0 .39.06.48.08.28 0s-.12 0 .23.12c-.39-.2.25.26.32.39s.13.82.14.58-.13.58 0 .1c-.14.32-.17.4-.07.22l-.13.18c.17-.16.17-.16 0 0a.82.82 0 01-.44.23l.16-.05a1.45 1.45 0 01-1.21-.15 2.74 2.74 0 003.64-1c.6-1.14.41-3-1-3.63z"/></g><g fill="#cae5e3"><path d="M540.07 610.94h-.59a2.66 2.66 0 100 5.31h.59a2.66 2.66 0 100-5.31zM550.11 598h.59a2.66 2.66 0 000-5.31h-.59a2.66 2.66 0 100 5.31zM561.62 610.05v-.59a2.66 2.66 0 00-5.32 0v.59a2.66 2.66 0 105.32 0zM561.91 579.65h1.18a2.66 2.66 0 100-5.31h-1.18a2.66 2.66 0 000 5.31zM577 594.11v-.59a2.66 2.66 0 00-5.32 0v.59a2.66 2.66 0 005.32 0zM714.74 574.42l.89.89a2.66 2.66 0 003.75-3.76l-.88-.88a2.66 2.66 0 00-3.76 3.75zM726.36 594.68h.88a2.66 2.66 0 100-5.31h-.88a2.66 2.66 0 100 5.31zM737 578.74h.89a2.66 2.66 0 100-5.31H737a2.66 2.66 0 000 5.31zM748.6 595.67l.89-.88a2.66 2.66 0 00-3.76-3.76l-.88.89a2.65 2.65 0 003.75 3.75zM760.43 576.49l.9-1.76a2.66 2.66 0 10-4.59-2.68l-.9 1.76a2.66 2.66 0 004.59 2.68zM524.76 255.86h2.96v2.96h-2.96z"/></g><g fill="#78a5a3"><path d="M457.39 191.57q3.78 4.74 8 9.1c2.38 2.47 6.13-1.29 3.76-3.75q-4.22-4.36-8-9.11a2.67 2.67 0 00-3.75 0 2.71 2.71 0 000 3.76zM480.15 179.27a47.21 47.21 0 012.3 9.89c.38 3.36 5.7 3.4 5.31 0a53.18 53.18 0 00-2.49-11.3c-1.1-3.22-6.24-1.84-5.12 1.41zM503.18 177.35v8.85c0 3.42 5.31 3.43 5.31 0v-8.85c0-3.42-5.31-3.43-5.31 0zM756.65 384.51c6.32 1.63 10.3 11 12.87 16.37a77.6 77.6 0 016.19 20c.59 3.36 5.71 1.93 5.12-1.41a82.21 82.21 0 00-8.21-24.24c-3.23-6.11-7.35-14-14.56-15.82-3.32-.85-4.73 4.27-1.41 5.12zM784.33 371.21A25.86 25.86 0 01795.41 391c.2 3.4 5.51 3.42 5.31 0A31.53 31.53 0 00787 366.62c-2.82-1.95-5.47 2.65-2.68 4.59zM601.47 330.8a178.51 178.51 0 0141.84 54c1.55 3.06 6.13.37 4.59-2.68a182.69 182.69 0 00-42.67-55c-2.56-2.25-6.34 1.5-3.76 3.75zM408 248.93a20 20 0 012.3 11.05c-.24 3.42 5.08 3.4 5.31 0a25.25 25.25 0 00-3-13.73c-1.61-3-6.2-.34-4.59 2.68zM426.26 243l2.65 7.09a2.73 2.73 0 003.26 1.86 2.68 2.68 0 001.86-3.27l-2.65-7.09a2.73 2.73 0 00-3.26-1.86 2.69 2.69 0 00-1.86 3.27zM676.48 262.69a56.52 56.52 0 0145 13.59c2.56 2.25 6.33-1.49 3.76-3.76a62.34 62.34 0 00-50.18-14.95c-3.37.47-1.94 5.59 1.41 5.12zM699.31 238.77a21.44 21.44 0 0121.69 8.62c2 2.76 6.57.11 4.59-2.69a27 27 0 00-27.66-11c-3.35.66-1.94 5.78 1.41 5.12z"/></g></svg>