<svg viewBox="0 0 1000 1000" width="1000" height="1000" xmlns="http://www.w3.org/2000/svg"><path d="M444.15 420.48C469 436.77 514.42 519 509.61 580.34c-14.71-39.63-9.18-121.52-16-161.39-12.71-74 26.16-94.12 32-101.38 25.78-32.22 26.85 43.67 46 70.05 0 0 35.53 234.24-44.31 273.43-71.9 35.29-82.8-123.94-82.8-123.94s-4.35-68.94-29.74-88.12" fill="#fc927a"/><path d="M571.54 387.62c-19.15-26.38-6.66-120.67-32.44-88.45-5.8 7.26-56.07 32.16-47.83 119.57 2.16 22.86 6.1 59 8 93.27 7.58 22.86 12.05 46.87 10.37 68.33-6.37-17.14-8.94-42.2-10.37-68.33-2.77-8.35-5.95-16.54-9.4-24.39-7.91 6.21-21.76 13.77-38.18 20.42-3.51 1.42-50.67 7.67-54 8.86.59 3.49 1.08 6.77 1.47 9.75a249.52 249.52 0 0015.28 58.67c17.63 44.56 53.34 103.8 112.86 75.73 80.37-37.94 44.24-273.43 44.24-273.43z" fill="#ce6042"/><path d="M398.21 517.65c2 5 20.42 2.34 43.12-5.69-1.14-6.75-2.66-14.26-4.68-21.76-23.76 10.42-40.55 22.23-38.44 27.45zM500.35 745.3s26.38-105.56 137.71-113.8 230.07 79.16 230.07 79.16-72.6-194.49-184.73-258.87-175.11-105-175.11-105-9.59 55.48 28.34 81 35.46 47 35.46 47z" fill="#49281f"/><path d="M573.66 838.81c-42-183.4 54.93-357.07 54.93-357.07l95.23-31.66s-11.55 258.93-37.11 343c2.48 61 32.16 89.89 32.16 89.89H583.63z" fill="#609fd8"/><path d="M501.17 341.23c21.57-31.41 60.93-70.94 108-89.06 65 62.22 110.5 167.4 110.5 167.4s-47.29 71.49-96.91 73.21c-23.26-23.43-69.73-68.82-112.65-99-15.76-11.07-19.86-36.64-8.94-52.55z" fill="#c0e4f9"/><path d="M509.42 883c0-56.9 18.09-111.73 38.75-174 22.72-68.44 83-172.12 124.52-230.89C712 368.93 747.78 409.44 769 454.77a140.6 140.6 0 015.48 105.1c-16.08 46.88-47.24 120.51-101.75 192-25.52 33.49-5 75-7.42 131.12" fill="#a0caea"/><path d="M723.82 493s-10.72 109.64-92.36 231.68C577.86 798.07 572.09 883 572.09 883" fill="none" stroke="#fff" stroke-linecap="round" stroke-miterlimit="10" stroke-width="2"/><path d="M543.77 293.64s-4.67 95.42 62.13 158.09c84.93 0 191.31 154.2 211.1 312.53 146-61.84 179-178.12 156.68-242.44s-263-131.11-263-131.11-49.48-126.17-77.52-145.14-89.39 48.07-89.39 48.07z" fill="#ce6042"/><g fill="none" stroke="#fc927a" stroke-linecap="round" stroke-miterlimit="10" stroke-width="1.43"><path d="M864.36 740.07c-39.11-257.83-232.07-307.31-232.07-307.31s-27.22-51.12-43.71-77.51M676.41 483s70.42-57.07 127.4-61.75M719.7 521.82s67.76-66.28 141-78.34M747.73 565.53s74.27-60.2 150.91-100.61"/><path d="M916.82 699.39S852.46 436.89 657 417.92c0 0-35.45-77.83-68.44-108.18M643.47 458.69S719.19 410.05 750 404.5M692.48 399c52 14.85 236.67 70.92 279.31 213.39"/></g><g fill="#fc927a"><path d="M766.66 458.69C745 417.9 725.14 358.25 720 273.38c-58.06 19-96.17 56.14-96.17 56.14s-13.78 13-35.26 1.37-35.48-37.49-35.48-37.49S724.3 139 771.75 235c34.66 70.12-6.78 152.37 25.52 203.11M782.39 485.42a99.82 99.82 0 0024.28 26.08c15.84 11.78 22.45 26.41 27.29 28.3s8.45-11.34-14.59-37.38-23.77-27.21-23.77-27.21z"/><path d="M759.18 444.39c-4.07 32.48 17.32 53.22 15.79 75.74-.28 5.47 16.6 6.42 11.94-29.37 19.67.86 19.57-12.52 31.31-20.37 4.8-3.21 6.16-13.05 6.16-13.05s-35.94-28.54-38.72-50.49"/></g><path d="M775 520.13c-.28 5.47 16.6 6.42 11.94-29.37M775.1 517.36l1.77.32a1.83 1.83 0 002.15-1.92c-.17-2.42-1-6.08-4.62-7.67" fill="none" stroke="#49281f" stroke-linecap="round" stroke-miterlimit="10" stroke-width="2"/><path d="M798.63 488.56s36.84 23.44 46 33.64 15.15.8 4.64-12.24-40.33-31.61-42-37.53-11.83 14.19-8.64 16.13z" fill="#fc927a"/><path d="M803.8 479.9s33 13.8 44.6 22.06c13.79 9.79 18.68 8.07 14.53-.85-6.18-13.27-50.46-38.78-50.46-38.78z" fill="#fc927a"/><path d="M834 539.8c4.83 1.89 8.45-11.34-14.59-37.38-3.45-3.89-6.93-7.84-9.88-11.21" fill="none" stroke="#49281f" stroke-linecap="round" stroke-miterlimit="10" stroke-width="2"/><path d="M802.17 477.27c8.09 10.44 23.15-.1 23.15-.1s20.93 2.92 32.21 7.33 5.46-5 .34-10-32.3-13.38-33.13-17.35" fill="#fc927a"/><g fill="none" stroke="#49281f" stroke-linecap="round" stroke-miterlimit="10" stroke-width="2"><path d="M857.87 474.52c-5.11-5-32.3-13.38-33.13-17.35M851.89 526.51c4-.34 4.61-7.58-2.61-16.55-7-8.67-22.55-19.81-32.65-28M861.77 508.58c3 .06 3.4-2.65 1.16-7.47-4.08-8.75-24.72-22.82-38.31-31.39M833 536s-.95-4.35-6.15-3.51M844.71 522s2.2-4.27 6.91-1.36M854.22 504.43s2.64-3.58 6.65-.24M855.19 482.49s2.37-2.44 5.24.64"/></g><path d="M818.65 381.64c0-2 15.27.36 15.66-1.63 6.61-33.83.72-105.29-28-175.67-47.83-117.1-263 89.06-263 89.06s23.89 25.87 45.37 37.49 45.34 23.53 45.34 23.53 27.69-56 85.76-75c2.76 45.87 10.17 78.37 19.51 110.51q1.54 5.33 3.18 10.42c6.84-5.55 22.46-12.34 41.28-17.47.04-.07 34.79-1.21 34.9-1.24z" fill="#ce6042"/><path d="M834.23 380.17c-1.55-5.69-24-4.53-50.21 2.58a167.88 167.88 0 001.56 21.75c1.23-.31 2.48-.63 3.73-1 26.36-7.16 46.47-17.62 44.92-23.33z" fill="#49281f"/><path d="M783.67 382.84c-18.82 5.13-34.44 11.92-41.28 17.47q1.5 4.69 3.05 9.19c8.26 1.06 23.23-.69 40.14-5a167.88 167.88 0 01-1.58-21.75z" fill="#fc927a"/><path d="M500.59 338s26.14 74.18 97.89 119.53c-35.48 55.22-98.13 197.06-61.85 306.73-75 9.07-84.11-51.12-84.11-51.12l103.9-232.55s-56.57-44.33-62.09-117c-.33-19.16 6.26-25.59 6.26-25.59z" fill="#ce6042"/><path d="M657 417.92s-35.45-77.83-68.44-108.18" fill="none" stroke="#fc927a" stroke-linecap="round" stroke-miterlimit="10" stroke-width="1.43"/><path d="M499.24 512c1.43 26.13 4 51.19 10.37 68.33 1.68-21.45-2.79-45.46-10.37-68.33z" fill="#ce6042"/><path d="M489.84 487.62c-1.8-4.11-3.68-8.13-5.61-12-10 1.15-24.89 5.31-40.92 11.8-2.28.92-4.5 1.86-6.66 2.8 2 7.5 3.54 15 4.68 21.76 3.36-1.2 6.82-2.5 10.33-3.92 16.42-6.67 30.27-14.23 38.18-20.44z" fill="#fc927a"/><path d="M429.25 212.38s-35.29 12.05-29.36 39.2c6.66 30.48 47.37 26.53 49.12 18.4s-19.76-57.6-19.76-57.6z" fill="#fcc74f"/><path d="M420.31 255.27s15.37 10.47 15.75 20l.33.35c6.83-.58 12-2.88 12.62-5.67.67-3.13-2.09-12.36-5.75-22.55-8.65-1.95-17.71-.17-22.95 7.87z" fill="#49281f"/><path d="M438.46 250.44s14.63 81.57 53.53 60c8.21 20.42 15.6 35.81 15.6 35.81s30.66-5.12 30.63-39.29c-13.3-21.18-29.41-49.84-29.41-49.84s-19.64-46.57-70.35-6.68z" fill="#fc927a"/><path d="M468.74 201.67s-3.4-10.48.58-14.11a13.19 13.19 0 004.92 8.84 20.08 20.08 0 0118.83-12.4c-3.21 2.81-8.07 8.37-6.84 11.65 10.59-8.79 22.89-3 21.42-2.71-7.3 1.53-9.19-.29-11.82 5.51 0 0 26.16 1.38 30.58 43l-4.62-5.2c9.91 27.79 0 43.48 0 43.48s-17.79-32.56-22.35-31.91c-5.45.77-2.68 17-2.68 17s-1.05 3.51-4.27 0c-5.68-6.18-14.94-14.15-32.49-9.69 0 0-41.66 15.66-50.87-14.53s59.61-38.93 59.61-38.93z" fill="#fcc74f"/><g fill="none" stroke="#49281f" stroke-linecap="round" stroke-miterlimit="10" stroke-width="2"><path d="M497.87 200.22c.53 1.4-1.81-8.29-3.32 1.9M493.07 184c-3.21 2.81-8.07 8.37-6.84 11.65M469.32 187.56a13.19 13.19 0 004.92 8.84M499.44 247.82c-5.45.77-2.68 17-2.68 17s-1.05 3.51-4.27 0c-5.68-6.18-14.94-14.15-32.49-9.69 0 0-41.66 15.66-50.87-14.53"/></g><path d="M498 268.13s-13.71-28 1.44-33.13c12.81-4.28 18.27 16.11 10.87 24.76S498 268.13 498 268.13z" fill="#fc927a"/><path d="M492 310.44s13-8.08 16.73-13.76a65.7 65.7 0 01-10.1 30z" fill="#c64242"/><path d="M499.27 251.62a5.86 5.86 0 011.05-5.73c2.28-2.46 5.09.75 5 1.87" fill="none" stroke="#49281f" stroke-linecap="round" stroke-miterlimit="10" stroke-width="2"/><path d="M770.11 605.75s105.52-43.36 160.69-126.81" fill="none" stroke="#fc927a" stroke-linecap="round" stroke-miterlimit="10" stroke-width="1.43"/><path d="M522.61 209.29c3.3 7.42-136.89 75.86-136.89 75.86s17.32-84.93 66.8-106.37c35.46-15.37 53.34 8.55 60.62 23.34 2.86 5.88 6.17-.25 9.47 7.17z" fill="#ce6042"/><g fill="none" stroke="#fc927a" stroke-linecap="round" stroke-miterlimit="10" stroke-width="1.43"><path d="M418.1 226.14S447.57 187 474 187.85s31.33 24.53 31.33 24.53M414.58 255.47s52-70.1 77.52-33.81M797.21 669.43S934.92 605.93 950.59 493M812.05 732.1s152.68-92.35 163.81-205.86"/></g><path d="M408.35 424.84c.35 5.35-8.14 19.44-26.67 12.05S360 430.81 362.1 425.8c0 0 6.82-13.55 35.51-7.91 18.05 5.71 10.74 6.95 10.74 6.95z" fill="#fc927a"/><path d="M477.26 462.45c-25.57-59.37-69.6-53.68-85.52-67.68-3.92-3.33-15.52 11.53 13.83 28.49-11.86 14.17-7.29 33.89 4.94 39s-10.73 12.65-10.73 12.65 45.45-10.52 54-7.71" fill="#fc927a"/><path d="M391.74 394.77c-3.92-3.33-15.52 11.53 13.83 28.49-11.86 14.17-7.29 33.89 4.94 39" fill="none" stroke="#49281f" stroke-linecap="round" stroke-miterlimit="10" stroke-width="2"/><path d="M394.43 397l-.48.33a2 2 0 00-.09 3.17 11.52 11.52 0 009.33 2.29" fill="none" stroke="#49281f" stroke-linecap="round" stroke-miterlimit="10" stroke-width="2"/><ellipse cx="315.6" cy="265.12" fill="#a0caea" rx="122.46" ry="155.03" transform="rotate(-28.84 315.567 265.11)"/><path d="M369.396 380.448l14.445-7.954 64.84 117.748a8.25 8.25 0 01-3.248 11.206 8.25 8.25 0 01-11.206-3.247l-64.84-117.748.01-.005z" fill="#a0caea"/><ellipse cx="315.6" cy="265.12" fill="#c0e4f9" rx="109.26" ry="138.33" transform="rotate(-28.84 315.567 265.11)"/><path d="M418.62 453.41s10.64-5.14 9.34 2.88c-1.33 8.25-21.11 18.22-30.21 18.59s-10-3.48-10.66-7.35 31.53-14.12 31.53-14.12z" fill="#fc927a"/><path d="M418.62 453.41s10.64-5.14 9.34 2.88c-1.33 8.25-21.11 18.22-30.21 18.59" fill="none" stroke="#49281f" stroke-linecap="round" stroke-miterlimit="10" stroke-width="2"/><path d="M416.51 442.82s10.85-3.11 10.82 5c-.79 6.91-28.54 19.11-40.24 19.67s-14.69-9-10.82-13.84 40.24-10.83 40.24-10.83z" fill="#fc927a"/><path d="M416.51 442.82s10.85-3.11 10.82 5c-.79 6.91-28.54 19.11-40.24 19.67" fill="none" stroke="#49281f" stroke-linecap="round" stroke-miterlimit="10" stroke-width="2"/><path d="M413.13 432.64s10.83-3.43 11.32 3.06-20.14 18.14-37.84 21.12-24.9-5.94-17.21-16.3c13.06.31 30.91 3.48 43.73-7.88z" fill="#fc927a"/><path d="M413.13 432.64s10.83-3.43 11.32 3.06-20.14 18.14-37.84 21.12a30.83 30.83 0 01-12.24-.06" fill="none" stroke="#49281f" stroke-linecap="round" stroke-miterlimit="10" stroke-width="2"/><path d="M362.09 425.75c-3.8 10.07 4.48 24.76 30.37 17.91s24.55-13.49 21.93-16c-3.17-3-7-2.4-12.49-1.34-6 1.16-24.81 8.07-29.24 1.24" fill="#fc927a"/><g fill="none" stroke="#49281f" stroke-linecap="round" stroke-miterlimit="10" stroke-width="2"><path d="M368.13 442.47c5.05 3.06 13 4.19 24.33 1.19 25.88-6.85 24.55-13.49 21.93-16-3.17-3-7-2.4-12.49-1.34-6 1.16-24.81 8.07-29.24 1.24M409.23 428.37s-2.42 4.45 2.61 5.36M417.52 434.59s-1.23 5.31 2.31 4.71M421.89 445s-1.62 4.36 2 4.73M423.63 455a2.56 2.56 0 002.49 2.74"/></g><path d="M517.66 356.9s-5.77-72.57 25.57-64.32c2.47 32.16-1.65 35.46 0 43.7s-25.57 20.62-25.57 20.62z" fill="#c0e4f9"/><path d="M518.21 373.59s-23.21-35.47-21.35-51.23c11.09 14.65 17.5 13.92 21.63 25.47s-.28 25.76-.28 25.76z" fill="#c0e4f9"/><g fill="none" stroke-linecap="round" stroke-miterlimit="10"><g stroke="#fc927a" stroke-width="1.43"><path d="M634.08 219.83s30.37 19.68 50.16 77.55M675.19 194.23s30.44 23.2 33.76 89.22M719.7 273.61S729.11 189 764 169M723.26 309.74s29.42-82.31 86.71-96M727.36 338s41.58-56.08 101.48-59.4M733.71 368.44s55.29-48.65 100.61-33.81"/><path d="M585.17 283.45s99.07-103 167.51-89 62.54 182.11 62.54 182.11"/><path d="M588.58 344s93.18-120.7 138.54-100.09c47.83 23.92 50.5 140.66 50.5 140.66M672.69 305.77s-49.47 50.3-80 104.73M605.9 451.73s42.88-34.64 104.73-61M598.8 432.54s59.12-62.45 97.43-76.47M591.05 252.17S644.66 272.79 692.48 399M488.34 758.64s22.73-179.92 83.75-283.82A198.47 198.47 0 01546.94 434M520.14 561.4s2.47-23.09-6.6-82.46c-7.28-47.65-2.74-70.34-.66-77.44a2.58 2.58 0 00-1.8-3.2 59.22 59.22 0 01-21.24-10.89M464.89 502s29.68 63.5 35.61 103.72M422.81 517.07s14.5 87.37 63.52 121M502.4 520.17S479 549.48 407.21 560"/><path d="M505.83 534.52s19.25-.33 32.91-14.35c.36 5-3.31-60.69-3.31-60.69"/><path d="M498.18 488c31.64 8.18 58.24-7.36 58.24-7.36s23.09-6.6 42.06-23.09M493.57 442.24s15.58 6.35 31.79 4.21M529.28 451.79s23.46-.07 32.91-8.31M546.94 501.82s15.25 6.66 25.15 4.26M531.64 536.05a46.44 46.44 0 0024.78 6.8M516.11 570.81s13 8.93 28.72 6.77M497.06 612.34s12.56 11.47 35.55 12M481.17 649s21.82 16 46.06 12M467 680.77s14.79 32.46 59.95 36.54"/></g><g stroke="#49281f" stroke-width="2"><path d="M543.23 292.58c-10.72 23.09 4.94 56.9-2.48 51.95s-23.51.31-23.51.31-9.47 5.31-7.82 15.69M516.84 344.53s11.54 29.68 29.68 47"/></g></g><path d="M672.7 305.9s-28.87 27.1-42.89 50.17c29.69-14 64.32-4.95 64.32-4.95z" fill="#49281f"/><g fill="none" stroke-linecap="round" stroke-miterlimit="10"><path d="M579.42 258.71s11.94 32.34 9.16 94.6a228.67 228.67 0 0012.62 86.42c2.73 7.71 4.7 12 4.7 12M495.4 363.49s14.84 70.1 103.08 94" stroke="#49281f" stroke-width="2"/><path d="M509.51 560s-7.63 43.95-68.18 70.93" stroke="#fc927a" stroke-width="1.43"/><g stroke="#49281f" stroke-width="2"><path d="M452.52 713.14l103.9-232.55s-22.1-17.32-40-48M489.63 488s19.14 40.86 19.88 72"/></g></g><g fill="#49281f"><circle cx="637.65" cy="444.72" r="4.54"/><circle cx="710.21" cy="487.6" r="4.54"/><circle cx="774.53" cy="576.66" r="4.54"/><circle cx="819.06" cy="692.93" r="4.54"/></g><path d="M517.24 205.07S483.71 228 457 238.84" fill="none" stroke="#fc927a" stroke-linecap="round" stroke-miterlimit="10" stroke-width="1.43"/><path d="M216 292.13c129.71 55.19 192-68.27 192-68.27-129.68-55.19-192 68.27-192 68.27z" fill="#fff"/><circle cx="314.34" cy="264.48" fill="#c0e4f9" r="35.34"/><circle cx="338.31" cy="244.34" fill="#fff" r="11.96"/><g fill="#f28686"><path d="M300.46 806.63l-.45-.26-10.86 25.32a30.72 30.72 0 015.11 3.11 14.94 14.94 0 0021.7-4 15 15 0 00-8.8-22.31zM253.84 775.62a13.42 13.42 0 00-17.5 6.15 34 34 0 00-2.27 24.64 24.89 24.89 0 0019.88 18l27 4.63c.83.14 1.65.32 2.46.53L294.17 803c-25.44-15.29-29.58-22.52-40.33-27.38zM201.34 697l-.5-.26-10.08 27.1a34.7 34.7 0 015.66 3.12c7.84 5.35 18.48 3 23-5 5.13-9.16-.28-20.82-10.79-23.25zM149.52 665.87a14.19 14.19 0 00-18.36 7.1 35.31 35.31 0 00-.92 26.09 27.46 27.46 0 0022.39 18.34l29.19 4c.9.12 1.78.28 2.67.47l9.89-28.49c-28.17-15.26-33.05-22.74-44.86-27.51zM340.82 800.48l-.34-.33 19.28-15.79a27.24 27.24 0 004 3.66 13.54 13.54 0 011.91 19.89 13.52 13.52 0 01-21.6-2.07zM302.17 767.72a12.15 12.15 0 011-16.76 30.76 30.76 0 0120.83-8.14 22.51 22.51 0 0120.65 12.76l10.79 22.32c.33.68.69 1.35 1.08 2l-20.46 16c-19.65-18.26-26.96-20.05-33.89-28.18zM207.82 647.07l-.39-.35L228 628.79a29.66 29.66 0 004.49 3.87 14.81 14.81 0 012.77 21.69 14.8 14.8 0 01-23.71-1.52zM164.41 612.53a13.3 13.3 0 01.48-18.37 33.79 33.79 0 0122.54-9.63 24.66 24.66 0 0123 13.28L223 621.86c.39.74.8 1.46 1.25 2.16l-21.85 18.24c-22.07-19.36-30.14-21.07-37.99-29.73zM106.38 565.27L106 565l16.85-17.45a26.64 26.64 0 004.27 3.08 13.17 13.17 0 014.12 19 13.17 13.17 0 01-21.12.47zM65.29 538a11.83 11.83 0 01-1-16.31 29.94 29.94 0 0119.22-10.25 21.9 21.9 0 0121.41 10l13 20.34c.4.62.82 1.23 1.27 1.82l-18 17.82c-21-15.42-28.28-16.34-35.9-23.42zM80.3 602.44l-.41-.19-7.44 23.09a27.32 27.32 0 014.74 2.31 13.16 13.16 0 0018.69-5.34 13.16 13.16 0 00-9.56-18.83zM36.87 579.09A11.82 11.82 0 0022 585.93a29.94 29.94 0 000 21.79 21.91 21.91 0 0019 14.16l24.06 1.83c.73 0 1.47.14 2.2.26l7.23-24.24c-23.56-11.27-27.79-17.26-37.62-20.64z"/></g></svg>