<svg viewBox="0 0 1000 1000" width="1000" height="1000" xmlns="http://www.w3.org/2000/svg"><g fill="#78a5a3"><path d="M411.45 656.06l-17.91 28.64a5.72 5.72 0 00-1.18 3.28 5.22 5.22 0 001.78 3 70.52 70.52 0 0010.35 8.16l27.07 18.74c3 2.08 6.73 4.24 10.07 2.78a53.66 53.66 0 00-2.83-24.49 9.13 9.13 0 01-.79-3.42 7.51 7.51 0 011.61-3.85 32.15 32.15 0 018.83-8.53M549.82 720.89a200.65 200.65 0 0019.63 19.6c1.6 1.38 3.41 2.82 5.52 2.85a9.18 9.18 0 004.31-1.42A275.15 275.15 0 00613 720.68c4-3 8.18-6.29 10-11a47.78 47.78 0 00-25.27-3 3.64 3.64 0 01-2.53-.2 3.53 3.53 0 01-1.11-1.49l-8.73-17.77M432.59 248.12s-20.76 25-15.86 27.93 33 10.34 39.2 7 7.49-19.34 4.61-24.11-1-12.16 2.44-12.16 11.43 3.19 15.23-2.39 12.65-16.15 11.78-9.78.16 11.83 3.89 6.13 11.76-9.1 16 1.74 11.33 11.75 8.7 14.69-8.7 8.67-8.7 8.67l-5.69 20.68s-5 5 5.69 7.87 29 .5 30.86-9.56S535.57 242.44 528 235s-23.58-20.88-29.54-17-48 15.62-48 15.62"/></g><path d="M521.81 211.34A748.13 748.13 0 00434 240.7c-2.44-6.1-1.46-13.24 1.71-19s8.32-10.22 14-13.47A42.19 42.19 0 01473 202.4c8.1.52 18 8.41 23.28 14.56M227.28 598.61c-6.29.56-13.68-2.76-16.72-6.67s-2.82-7-3.83-11.83C201.92 557 197.07 533.49 199 510a8.59 8.59 0 011.43-4.86c1.26-1.55 3.37-2.06 5.33-2.45 29.2-5.76 59.28-4.28 89-2.78 3.29.17 6.94.5 9.15 2.93 1.56 1.72 2 4.13 2.45 6.42a500.94 500.94 0 017.18 79.23 12.88 12.88 0 01-13.74 13 31.24 31.24 0 00-5.74.07" fill="#cae5e3"/><path d="M349.87 494.78a12.81 12.81 0 00-9.56-7.38 16.31 16.31 0 00-11.95 2.87 9.15 9.15 0 00-3.15 3.42 9.26 9.26 0 00-.73 3.65c-.17 5.25 1.65 10.34 3.69 15.18 3.42 8.1 8 16.41 15.88 20.36 5.59 2.79 12.07 3 18.31 3.14l12.12.27" fill="#78a5a3"/><ellipse cx="742.73" cy="718.86" fill="#cae5e3" rx="82.32" ry="76.4" transform="rotate(-62.79 742.803 718.877)"/><path d="M820.3 752.44c-14.57 27.79-43.82 47-75.79 44.68s-57.44-27.28-63.45-58.37c-6.26-32.34 8.68-67 36-85.18 25.71-17.11 60.2-17.94 85 1.47 29.43 23.06 34.52 65.12 18.26 97.4-1.55 3.07 3.07 5.79 4.63 2.7 15.48-30.73 13.31-69.36-10.2-95.55-22.75-25.33-59.8-30.9-90.06-16.5-31.57 15-51.88 49.52-50.29 84.37 1.53 33.62 23.54 64.25 56.71 72.83 37.77 9.78 76.26-11.61 93.84-45.15 1.58-3.05-3.05-5.76-4.65-2.7z" fill="#78a5a3"/><ellipse cx="245.34" cy="718.86" fill="#cae5e3" rx="82.32" ry="76.4" transform="rotate(-62.79 245.386 718.898)"/><path d="M322.91 752.44c-14.57 27.79-43.82 47-75.78 44.68-32.11-2.37-57.44-27.28-63.46-58.37-6.26-32.34 8.68-67 36-85.18 25.71-17.11 60.2-17.94 85 1.47 29.43 23.06 34.52 65.12 18.26 97.4-1.55 3.07 3.07 5.79 4.63 2.7 15.48-30.73 13.31-69.36-10.2-95.55-22.75-25.33-59.8-30.9-90.06-16.5-31.57 15-51.88 49.52-50.29 84.37 1.53 33.62 23.54 64.25 56.71 72.83 37.77 9.78 76.26-11.61 93.84-45.15 1.58-3.05-3.05-5.76-4.65-2.7z" fill="#78a5a3"/><path d="M499.16 235.49l7.92 9.8c2.3 2.85 5.91 6.12 7.55 9.38 1.84 3.66-1.64 3.39-4.11 5.32a11.52 11.52 0 00-3.77 5.59c-2 6-2.34 12.4-4.46 18.43a74 74 0 01-10.72 19.67c-2.07 2.76 2.58 5.44 4.63 2.7a78.35 78.35 0 0011.26-20.95 76 76 0 003-11.19c.72-3.88.72-8.27 4.36-10.64 4-2.63 8.74-4.89 5.31-10.55-2-3.32-5-6.26-7.41-9.29L503 231.7c-2.17-2.69-5.94 1.13-3.79 3.79z"/><path d="M494.94 249.66v2.13a2.68 2.68 0 005.36 0v-2.13a2.68 2.68 0 00-5.36 0zM485.44 264.24a15.48 15.48 0 009.36 7.05c3.34.88 4.76-4.29 1.42-5.17a10 10 0 01-6.15-4.58c-1.78-3-6.42-.26-4.63 2.7zM472.32 246.08a10.31 10.31 0 00-8.65-1.74c-3.53.73-5.88 3.38-6.95 6.75-2.26 7.15 4.2 14.94 11.74 12.34 3.25-1.12 1.85-6.3-1.42-5.17-3.65 1.26-6.31-2.33-5.15-5.74a3.94 3.94 0 012.91-3c1-.22 2.85-.39 3.73.31 2.67 2.12 6.49-1.65 3.79-3.8z"/><path d="M471.78 250.29a45.65 45.65 0 0016.53-15.52c1.87-2.91-2.77-5.6-4.63-2.7a40 40 0 01-14.61 13.59c-3 1.67-.32 6.3 2.71 4.63zM491.34 245.64a28.58 28.58 0 0013.28-13.74c1.42-3.12-3.2-5.85-4.63-2.71A24 24 0 01488.63 241c-3.09 1.54-.37 6.17 2.71 4.63zM527.29 206.42a767.12 767.12 0 00-87.85 29.36l3.3 1.88c-5.38-15.45 8.45-28.08 21.78-32.78 6.86-2.42 14.6-3.36 21.3-.09a49 49 0 0114.73 11.73c2.29 2.59 6.07-1.21 3.79-3.79-5.19-5.84-11.74-11.32-19.16-14-8.11-3-17.62-1-25.33 2.27-14.74 6.23-28.18 21.15-22.28 38.1.43 1.25 1.88 2.44 3.3 1.87a765.82 765.82 0 0187.85-29.36c3.33-.89 1.91-6.06-1.43-5.17z"/><path d="M503.06 219.48c9.49 1.7 16 9.88 21.28 17.32a96.08 96.08 0 0113.38 26c2.93 9 4 20.69-4.11 27.48s-21.67 2.11-30.6-.64c-3.31-1-4.72 4.16-1.43 5.17 10.21 3.14 24.14 7.42 33.89.82 8.94-6 10.94-17.6 9.15-27.55-2.13-11.84-8.31-23.54-15.16-33.31-6.15-8.78-13.81-18.48-25-20.48-3.37-.6-4.82 4.56-1.43 5.17zM440.5 236.34A97.92 97.92 0 00420 261.4c-2.12 3.73-5.54 8.8-6 13.15-.45 4.16 3.47 5.64 6.72 7 10.28 4.16 22.16 4.69 33.12 4.09 3.95-.22 7.13-1.19 8.63-5.13 2-5.36 2.52-11.84 3.67-17.46.69-3.37-4.47-4.81-5.17-1.43l-2.51 12.29c-.39 1.92-.35 5.13-2.45 6.15-1.4.69-4 .27-5.64.29-8.68.11-17.54-.19-25.82-3.07-1.51-.53-4.61-1.1-5-2.77-.24-1.15 2.16-4.87 2.75-6.05a92.51 92.51 0 015.72-9.88 93.51 93.51 0 0116.21-18.41c2.59-2.29-1.22-6.07-3.79-3.79zM412.44 359.52c-2 38.43 32.37 70 61.46 89.76 33.54 22.79 73.06 35.6 113.33 39.09a293 293 0 0074.69-3.5c3.39-.58 2-5.75-1.43-5.17-77.38 13.23-162.68-4.69-217.61-63.86-14.26-15.35-26.21-34.63-25.08-56.32.18-3.45-5.18-3.44-5.36 0z"/><path d="M659.31 485.14c5.32-1.93 7.32-6.14 9.16-11.18 2.6-7.13 8.27-13.44 16.67-10.54 8.15 2.82 8.41 13.47 1.37 17.59-6.61 3.87-19.94 1.5-16.35-8.67 1.15-3.26-4-4.66-5.17-1.42-3.19 9 4.5 17.36 13.49 17.56 9.42.2 19.29-6.69 18.51-16.82-.7-9.23-9.1-15.18-18-14.06a17.46 17.46 0 00-11 5.83c-3.9 4.45-4.26 14.43-10.08 16.54-3.22 1.17-1.83 6.35 1.42 5.17zM700.46 460.29a33.31 33.31 0 012.78 9c.58 3.39 5.75 2 5.17-1.43a38.19 38.19 0 00-3.32-10.25c-1.49-3.11-6.12-.39-4.63 2.7zM703.24 447.58a12.77 12.77 0 015.86 3.72c2.34 2.54 6.13-1.26 3.8-3.8a18.15 18.15 0 00-8.23-5.09c-3.31-1-4.73 4.18-1.43 5.17zM704.6 434.25h2.55a2.68 2.68 0 100-5.36h-2.55a2.68 2.68 0 000 5.36zM475.51 340.27a202.2 202.2 0 0019.36 25.66q5.53 6.21 11.59 11.92a226.3 226.3 0 005.84 5.29c2.85 2.51 2.85 4.13 1.75 7.67A120.7 120.7 0 01479.94 444c-2.56 2.33 1.24 6.12 3.79 3.8a126 126 0 0035.72-56.38c1.41-4.65 1.59-7.52-2-11-4.44-4.24-9.11-8.16-13.38-12.58a191.84 191.84 0 01-23.89-30.35c-1.85-2.9-6.5-.21-4.63 2.71z"/><path d="M514.46 391.08C536.14 413 565 425.29 594.65 432a343.46 343.46 0 0045.92 6.86c8.44.74 17.12 1.28 25.43-.8 8.12-2 16.21-8.68 24.84-6.29 3.33.92 4.75-4.25 1.42-5.17-7.33-2-13.71 1-20.38 3.75-8.4 3.52-17 4.14-26 3.57a321.35 321.35 0 01-46.73-6.41c-29.9-6.39-59.09-18.17-80.91-40.22-2.43-2.46-6.22 1.33-3.79 3.79zM327.14 399.71A492.13 492.13 0 00464 478.46c3.23 1.22 4.63-4 1.42-5.17a484.26 484.26 0 01-134.44-77.37c-2.65-2.16-6.46 1.61-3.79 3.79z"/><path d="M337.68 406c-18.31 48.8 11.38 102.39 43 138.26 8.8 10 18.21 19.41 27.78 28.65s19.46 18.35 27 29.42c7.74 11.36 13.45 24 19.44 36.3 6.36 13.07 12.61 26.19 19.08 39.2 11.18 22.46 24.91 46 47.53 58.57 3 1.68 5.73-2.95 2.71-4.63-20.46-11.36-33.19-32.3-43.55-52.57-11.94-23.35-21.95-47.88-35-70.64-12.67-22.06-32.59-37.88-50-56-17.63-18.31-33.63-38.26-44.45-61.4-12.1-25.9-18.73-56.17-8.38-83.75 1.22-3.24-4-4.64-5.17-1.43z"/><path d="M464.1 476.92q37.51 50.9 72.39 103.67 17.68 26.79 34.65 54 8.37 13.43 16.54 27c1.25 2.06 2.62 4.09 3.73 6.23 1.92 3.66.46 6.16-2 8.85-3.85 4.12-8 8-12 12l-26.11 26.09c-7.45 7.44-15.65 16.7-27 16.67-3.45 0-3.46 5.36 0 5.36 8.71 0 15.92-4.42 22.3-10 8.69-7.61 16.58-16.28 24.75-24.45l12-12c4-4 8.82-7.89 12.22-12.46 6-8-1.4-16.07-5.66-23.08q-36.06-59.37-75.49-116.59-22.29-32.35-45.61-64c-2-2.75-6.68-.08-4.63 2.7z"/><path d="M547.93 722.79a185.24 185.24 0 0019.63 19.59c6.8 5.73 11.68 2.72 18.64-1.2q11.85-6.66 23-14.48c6.11-4.28 12.94-8.59 16.12-15.62a2.74 2.74 0 00-1.6-3.94 51.18 51.18 0 00-21.72-3.57c-1.64.09-4.08 1-5.59.07-1.06-.63-2.11-4.29-2.61-5.33l-6.11-12.43c-1.53-3.1-6.15-.38-4.63 2.7l7 14.22c1.34 2.72 2.28 6.05 5.67 6.6 3.85.63 8.31-.73 12.3-.46a47.77 47.77 0 0114.28 3.37l-1.6-3.94c-2.92 6.46-9.32 10.31-14.94 14.22s-11.57 7.72-17.56 11.25a78.34 78.34 0 01-8.69 4.91c-3 1.28-5.43 2.07-8.17-.16-1.43-1.16-2.79-2.46-4.14-3.7A207.38 207.38 0 01551.72 719c-2.29-2.6-6.07 1.21-3.79 3.79zM509.17 484.45c8.24 5.21 17.34 9.94 24.9 16.13 6.88 5.62 10.74 14.13 12.32 22.73a50.56 50.56 0 01-14.66 45.13c-2.5 2.39 1.3 6.17 3.79 3.79a56 56 0 0016.29-48.92c-1.43-8.88-5.16-18-11.6-24.41-7.88-7.87-19-13.17-28.34-19.08-2.92-1.85-5.62 2.79-2.7 4.63zM392 623.31c-1.64 10.37 3.3 19.36 10.77 26.28 8.47 7.85 18.61 14.29 28.31 20.49a303 303 0 0031.36 17.82c6.45 3.11 17.68 3.92 17.65-6.17 0-3.45-5.38-3.46-5.37 0 0 7.18-10.89.9-13.57-.49q-5.79-3-11.44-6.2-10.51-6-20.59-12.63c-12.21-8.09-34.74-20-31.95-37.68.53-3.37-4.63-4.83-5.17-1.42z"/><path d="M409.14 654.71c-5.62 9-11.29 17.94-16.86 27-1.58 2.56-3.3 5.05-2.19 8.15s4.64 5.48 7.13 7.41c7.51 5.83 15.61 11 23.43 16.39 6.07 4.21 13.64 12 21.69 9.66a2.77 2.77 0 002-2.58 58.23 58.23 0 00-1.16-19.25c-.85-3.62-3.06-7.67-1.21-11.16 1.6-3 5.12-5.69 7.87-7.57s.15-6.58-2.71-4.63c-4.84 3.31-12.09 9-11.66 15.57.26 4 2.38 7.88 3.09 11.83a54.2 54.2 0 01.44 15.17l2-2.59c-4.16 1.2-8-2.53-11.2-4.71l-8.8-6.06c-6-4.12-12-8.16-17.84-12.37-2.49-1.78-6.87-4.16-7.18-7.38s3.53-7.33 5.17-10l12.65-20.22c1.83-2.93-2.81-5.62-4.63-2.7zM352.18 493.43c-4.12-8.39-14.2-11-22.43-7-10.63 5.07-8.51 16-4.83 25.22 3.39 8.53 7.88 17.44 15.89 22.5 9.63 6.08 22.78 4.62 33.67 4.87 3.45.07 3.45-5.29 0-5.37-7.66-.17-15.79.35-23.32-1.18-7.7-1.56-13-6.63-16.78-13.26-3.31-5.77-8.35-14.94-7.22-21.83 1.65-10.15 16.51-9.11 20.39-1.2 1.52 3.09 6.15.38 4.63-2.71zM498 712.6c-13.42.53-23.19 9.74-27.12 22.23a34.19 34.19 0 009.82 35.7c10.22 9 29.22 12 41.52 5.52 14.76-7.72 15.63-26.29 12-40.52-.86-3.34-6-1.92-5.17 1.43 3 11.8 3.1 28-9.52 34.47-10.61 5.41-27.58 2.53-36-5.62a28.76 28.76 0 01-7.64-28.89C479 726.51 486.8 718.4 498 718c3.44-.14 3.46-5.5 0-5.37z"/><path d="M503.94 742.23c-2.86 3.22-2.41 9.56 3.12 9.29 4.71-.23 5.2-6.07 1.72-8.32l-2.07 4.9 46.63 7c14.78 2.22 29.58 4.49 44.56 4.06a2.75 2.75 0 002.68-2.69 129.62 129.62 0 000-22.72c-.3-3.41-5.67-3.44-5.36 0a129.62 129.62 0 010 22.72l2.68-2.68c-15.17.44-30.12-1.9-45.07-4.15l-44.69-6.73c-2.91-.44-4.77 3.15-2.07 4.9l1.66-1.81c2.29-2.57-1.49-6.38-3.79-3.79zM470.09 736.63c-12-1.75-23.9-4-35.69-6.77-5.43-1.28-11.49-2.23-16.67-4.31-3.76-1.51-2.78-3-2.33-6.53a58.35 58.35 0 00.38-9.25l-4.58 1.9c1.62 1.62 3.28 1.72 5.3.78 3.12-1.46.4-6.08-2.71-4.63H415a2.71 2.71 0 00-4.58 1.9 62.4 62.4 0 01-.92 12.2c-.29 1.84-.53 3.63.47 5.31 2.54 4.25 11.33 4.83 15.57 5.92a413.29 413.29 0 0043.13 8.6c3.37.49 4.83-4.67 1.42-5.17zM686.71 489.9l65.37 229.68c.94 3.31 6.12 1.9 5.17-1.43l-65.37-229.68c-1-3.31-6.12-1.9-5.17 1.43zM245.05 718.8c35.21-4.52 71-9.75 105.44-18.52 6.76-1.72 8.11-5.75 8.58-12.32.66-9.24 1.26-18.49 1.89-27.73q1.91-27.72 3.79-55.45l4.34-63.38c.23-3.45-5.13-3.43-5.37 0q-3.48 51-7 102l-1.69 24.75-.85 12.85c-.29 4.26.74 11.63-3.8 13.76-3.08 1.45-7.43 1.69-10.76 2.41q-6.62 1.46-13.25 2.83-11.85 2.4-23.74 4.56-28.67 5.21-57.58 8.9c-3.38.43-3.42 5.8 0 5.36z"/><path d="M595.27 672.05a343.58 343.58 0 0050.58-16.82c14-5.91 28.2-12.38 39.95-22.18 24.85-20.71 25.12-52.71 23.38-82.47-.21-3.43-5.57-3.45-5.37 0 1.71 29 1.8 59.94-23 79.68-11.93 9.48-26.47 15.8-40.47 21.51a341.93 341.93 0 01-46.47 15.11c-3.35.84-1.93 6 1.43 5.17zM203 600.67l153.88 5.17c3.45.12 3.44-5.24 0-5.36L203 595.3c-3.45-.11-3.45 5.25 0 5.37zM187.56 600.65c3.45 0 3.46-5.36 0-5.36s-3.45 5.36 0 5.36z"/><path d="M236 595.93a19.17 19.17 0 01-13.13-4.14c-3.36-2.87-3.79-6.77-4.54-10.84-1.82-10-4.12-19.82-5.72-29.83a191.64 191.64 0 01-2.61-31.63c0-2.54.08-5.09.27-7.63.24-3.26.89-5.16 4.19-6.47 5.07-2 11.87-2.09 17.26-2.67 20.61-2.25 41.4-1.64 62.07-.66 4.31.2 9.82-.38 14 1 5.36 1.8 5.18 9.17 5.94 13.9 1.61 10.11 2.84 20.28 3.77 30.47q1.5 16.32 2 32.71c.15 5.17 1.28 11.29-2.62 15.39s-9 2.81-14 3.25c-3.41.3-3.44 5.66 0 5.36 4.23-.37 8.37.43 12.41-1.21a15.54 15.54 0 008.6-8.54c1.9-4.71 1.11-10.23 1-15.17q-.3-9.81-1-19.61-1.25-18.51-3.85-36.89c-1.24-8.73-.7-22.59-11.45-25-5.32-1.2-11.22-.87-16.64-1.12-6.81-.32-13.61-.58-20.42-.71a315.21 315.21 0 00-39.71 1.45 152.52 152.52 0 00-17.94 2.7c-4.56 1.06-7.66 3-8.51 7.89-2 11.66-.48 24.68 1 36.3 1.63 13.77 4.63 27.33 7.27 40.95 2.05 10.63 11.86 16.55 22.37 16.11 3.44-.15 3.46-5.51 0-5.36zM455.22 298.68a124.3 124.3 0 0141.36 26.22l.54-4.21c-7.44 4.56-14.77 9.24-20.46 16-2.22 2.62 1.56 6.43 3.79 3.79 5.41-6.39 12.3-10.79 19.38-15.12a2.72 2.72 0 00.54-4.21 130.9 130.9 0 00-43.73-27.6c-3.22-1.23-4.62 3.95-1.42 5.17zM508.56 335.75c57.32 28.35 125.93 31 185.17 6.82 3.15-1.29 1.77-6.48-1.43-5.17-57.89 23.65-124.93 21.47-181-6.28-3.09-1.52-5.81 3.1-2.71 4.63zM684.88 358.14c7.83-.39 10.3 9.44 3.31 12.91-3.09 1.53-.38 6.16 2.71 4.63a12 12 0 00-6-22.91c-3.43.17-3.45 5.54 0 5.37z"/><path d="M706.57 329a62.2 62.2 0 01-15.11 8.78c-3.15 1.28-1.77 6.47 1.43 5.17a71.17 71.17 0 0017.47-10.16c2.71-2.14-1.11-5.91-3.79-3.79zM704.79 345.06l-1.29 1.25a2.7 2.7 0 000 3.79 2.73 2.73 0 003.79 0l1.3-1.25a2.71 2.71 0 000-3.79 2.74 2.74 0 00-3.8 0zM705.88 361.15c3.45 0 3.45-5.36 0-5.36s-3.46 5.36 0 5.36z"/><g fill="#fff"><path d="M231.77 560.59l-4.84 8.89c-.75 1.37-.18 3.65 1.6 3.93a70.57 70.57 0 019.05 2.08l-1.6-3.94a42.88 42.88 0 00-5.32 12.24c-.87 3.34 4.3 4.77 5.17 1.43a37.85 37.85 0 014.78-11 2.71 2.71 0 00-1.61-3.94 69.8 69.8 0 00-9.05-2.08l1.6 3.94 4.85-8.88c1.66-3-3-5.74-4.63-2.71zM241.12 507c.29 6.5.85 13 1.74 19.43.51 3.71.26 10.5 3.46 13.11 3 2.48 8.75 2.83 12.51 3.25 5.42.61 12.8 1.44 18.1-.15a2.69 2.69 0 001.87-1.88c.9-5.35-1.1-11.86-1.87-17.18q-1.49-10.3-3.11-20.57c-.54-3.4-5.71-2-5.17 1.42.87 5.55 1.73 11.1 2.54 16.65.39 2.61.76 5.23 1.13 7.84.42 3 1.8 7.51 1.31 10.42l1.87-1.88c-3.81 1.15-9.07.5-13 .28-2.95-.17-10.6-.19-12.68-2.58-.95-1.09-.95-4.58-1.17-6q-.62-3.91-1.06-7.84c-.54-4.76-.88-9.53-1.09-14.32-.16-3.44-5.52-3.46-5.37 0zM200.18 714.65a47.66 47.66 0 0023.56 48c3 1.69 5.72-2.94 2.71-4.63-14.71-8.25-23.43-25.17-21.1-42 .47-3.37-4.69-4.83-5.17-1.42zM215.17 721.58A19.72 19.72 0 00226 740.2c3.08 1.52 5.8-3.1 2.71-4.63a14.49 14.49 0 01-8.22-14c.18-3.44-5.18-3.44-5.36 0zM274.43 690.74a6.87 6.87 0 014.08 4.74c.84 3.34 6 1.92 5.17-1.43a11.9 11.9 0 00-6.54-7.94 2.78 2.78 0 00-3.67 1 2.69 2.69 0 001 3.66zM281.11 668.85a70.73 70.73 0 0112 15.63c1.7 3 6.34.31 4.63-2.7a75.68 75.68 0 00-12.85-16.72c-2.47-2.42-6.26 1.37-3.79 3.79zM700.05 717.09a48.22 48.22 0 0016.24 37.51c2.57 2.28 6.38-1.5 3.79-3.79a43 43 0 01-14.67-33.72c.09-3.45-5.27-3.45-5.36 0zM722 719.12a17.29 17.29 0 0012.23 19.79c3.33.93 4.75-4.24 1.43-5.17a11.84 11.84 0 01-8.49-13.19c.6-3.38-4.56-4.82-5.17-1.43zM772.47 700.35a36.72 36.72 0 014.11 16.75c0 3.45 5.39 3.45 5.36 0a42.74 42.74 0 00-4.84-19.45c-1.58-3.07-6.21-.36-4.63 2.7zM781.56 672.23c12.75 11.23 15.46 28.73 15.08 44.9-.09 3.45 5.27 3.45 5.36 0 .42-17.52-2.87-36.57-16.65-48.69-2.58-2.27-6.39 1.51-3.79 3.79z"/></g><path d="M478.53 254h4.87v4.87h-4.87z" fill="#cae5e3"/><g fill="#78a5a3"><path d="M450.66 373.18l3.54 15.34c.55 2.43 3.65 2.4 4.89.64a55.52 55.52 0 017.71-8.71l-4.49-1.19a56.05 56.05 0 004.2 13.63c1.41 3.15 6 .42 4.63-2.7a50.26 50.26 0 01-3.65-12.35c-.36-2.1-3.14-2.43-4.49-1.18a62.22 62.22 0 00-8.53 9.8l4.9.64-3.54-15.35c-.77-3.36-5.94-1.94-5.17 1.43zM555.94 224.45l9.75-5.5c3-1.69.31-6.33-2.71-4.63l-9.75 5.5c-3 1.7-.3 6.33 2.71 4.63zM561.69 241.72h5.36c3.45 0 3.46-5.36 0-5.36h-5.36c-3.45 0-3.45 5.36 0 5.36zM560.1 261.18l7.14 1a2.77 2.77 0 003.3-1.87c.34-1.25-.43-3.1-1.88-3.3l-7.13-1a2.76 2.76 0 00-3.3 1.87c-.35 1.25.43 3.1 1.87 3.3z"/></g><path d="M676.62 669.32a91.63 91.63 0 0150.09-40.23c3.26-1.07 1.87-6.25-1.42-5.17A97.32 97.32 0 00672 666.61c-1.77 3 2.86 5.68 4.63 2.71zM748.41 622.88l15.23-1.39c3.41-.31 3.44-5.67 0-5.36l-15.23 1.39c-3.41.31-3.44 5.67 0 5.36zM297.81 627.24c27.86 11.11 47.93 37.35 52 67 .47 3.41 5.63 2 5.17-1.42-4.37-31.58-26.27-58.93-55.78-70.7-3.2-1.27-4.59 3.91-1.42 5.17z"/><g fill="#78a5a3"><path d="M269.5 309.63h97.4c3.45 0 3.45-5.36 0-5.36h-97.4c-3.45 0-3.46 5.36 0 5.36zM302.56 346.27h52.72c3.45 0 3.45-5.36 0-5.36h-52.72c-3.45 0-3.46 5.36 0 5.36zM391.91 307.85h5.37c3.45 0 3.45-5.36 0-5.36h-5.37c-3.45 0-3.45 5.36 0 5.36z"/></g></svg>