<svg viewBox="0 0 1700 1700" width="1700" height="1700" xmlns="http://www.w3.org/2000/svg"><path d="M567.39 1403.35c-1.23-.62-2.44-1.25-3.64-1.89l-.21-.12q-3.7-2-7.2-4l-.29-.18q-3.48-2.07-6.75-4.22l-.27-.18q-3.3-2.18-6.39-4.43l-.17-.13c-1-.75-2.05-1.51-3.05-2.27-2-1.56-4-3.14-5.92-4.76l-.15-.12q-2.82-2.38-5.48-4.86l-.19-.17q-2.64-2.46-5.12-5l-.16-.16c-1.66-1.71-3.27-3.43-4.83-5.18l-.07-.07c-.77-.87-1.54-1.75-2.29-2.63-1.51-1.78-3-3.57-4.39-5.39l-.11-.14c-1.4-1.8-2.74-3.62-4.05-5.46l-.12-.18-.94-1.35c38.94 6.12 83.51-5.88 109-58.38 21.17-43.66 9.46-87.52-10.24-122.91 41.41-17.77 71.75-52.26 108.24-81.09 43.5-34.38 106.62-39 162.4-12.41-45.78 136.56-64.86 322.23-162.4 358.41-62.12-2-107.48-12.53-141.06-28.63-1.33-.63-2.65-1.28-3.94-1.94zM980.38 1198.74c-21.55-61.25-61.17-102-105.43-123.15C900 1000.75 933.13 940.66 991.55 928c84.52-18.32 164.49 9.82 210.2 69.56-101.1-9.91-156.64 92.31-221.37 201.18z" fill="#c3e5fc"/><path d="M875 1075.59c44.26 21.1 83.88 61.9 105.43 123.15-59.55 100.13-126.87 205.86-244.61 235.11h177s-120.17.15-200.17.15c97.44-36.18 116.52-221.85 162.35-358.41z" fill="#fce19f"/><path d="M912.82 1433.84H735.77c117.74-29.25 185.06-135 244.61-235.11 1.85 5.27 3.59 10.68 5.17 16.26 41.8 147.78-66.66 215.21-72.73 218.85z" fill="#95c1a7"/><path d="M735.55 1280c24.4-94.24-9-154.64-33.09-183.78 3.32-2.78 6.67-5.52 10.09-8.22 43.5-34.38 106.62-39 162.4-12.41-45.78 136.56-64.86 322.23-162.4 358.41-62.12-2-107.48-12.53-141.06-28.63C643.17 1403 713 1366.94 735.55 1280z" fill="#f7c4e1"/><path d="M450.55 1377c34.45 19.1 78 29.78 120.94 28.37 33.58 16.1 78.94 26.67 141.06 28.63h-419c7-74 65-108 157-57z" fill="#fce19f"/><path d="M319.23 1237c53.67-80.92 95.32 31 113.32 70 8.45 18.32 38.52 38 73 43.38l.95 1.35.12.18c1.31 1.84 2.65 3.66 4.05 5.46a.76.76 0 01.11.14c1.42 1.82 2.88 3.61 4.39 5.39.75.88 1.52 1.76 2.29 2.63l.07.07c1.56 1.75 3.17 3.47 4.83 5.18l.16.16q2.48 2.54 5.12 5l.19.17q2.65 2.47 5.48 4.86l.15.12c1.91 1.62 3.88 3.2 5.92 4.76 1 .76 2 1.52 3.05 2.27l.17.13q3.09 2.25 6.39 4.43l.27.18q3.27 2.14 6.75 4.22l.29.18q3.49 2.07 7.2 4l.21.12c1.2.64 2.41 1.27 3.64 1.89l.16.08c1.29.66 2.61 1.31 3.94 1.94-42.92 1.41-86.49-9.27-120.94-28.37-92-51-150-17-157 57 .04-88.77 8.73-153.01 25.72-196.92z" fill="#95c1a7"/><path d="M614.55 1292c-25.46 52.5-70 64.5-109 58.38q-1.45-2.09-2.83-4.2l-.1-.16c-1.22-1.88-2.4-3.79-3.53-5.7-.56-1-1.11-1.9-1.65-2.86l-.05-.09q-1.63-2.88-3.16-5.81l-.09-.17q-1.5-2.91-2.9-5.84l-.1-.21q-1.39-2.94-2.7-5.91l-.06-.15c-.88-2-1.72-4-2.53-6-.4-1-.79-2-1.17-3l-.07-.16q-1.16-3-2.23-6l-.08-.24q-1.07-3-2.06-6a2.25 2.25 0 01-.08-.24c-.67-2-1.31-4-1.93-6l-.06-.18c-.3-1-.59-2-.89-3v-.1q-.9-3-1.75-6.09a2.33 2.33 0 00-.07-.25c-.55-2-1.09-4-1.62-6 0-.1-.05-.2-.08-.31q-.78-3-1.53-6c0-.1-.05-.19-.07-.29-.5-2-1-4-1.47-6v-.18c-.23-1-.46-1.91-.68-2.87v-.18c-.48-2-.95-4-1.41-6v-.14c-.88-3.82-1.73-7.61-2.58-11.37-.1-.43-.19-.87-.29-1.3s-.27-1.17-.4-1.75l-.21-.92-.57-2.52c-.06-.24-.11-.48-.17-.72-.16-.69-.32-1.37-.47-2.06-.06-.24-.11-.48-.17-.72-.2-.86-.4-1.73-.61-2.59 0-.15-.07-.3-.1-.45-.17-.74-.35-1.46-.52-2.19-.06-.24-.12-.48-.17-.72l-.63-2.61c-15.47-63.33-51.05-65-68.73-61.49 24.8-6.08 54.1-3 87.73 7.49 53.17 16.56 91.77 12.81 123.76-.91 19.53 35.26 31.25 79.12 10.08 122.78z" fill="#fccab4"/><path d="M392.82 1162.51c17.68-3.52 53.26-1.84 68.73 61.49l.63 2.61c.05.24.11.48.17.72.17.73.35 1.45.52 2.19 0 .15.07.3.1.45.21.86.41 1.73.61 2.59.06.24.11.48.17.72.15.69.31 1.37.47 2.06.06.24.11.48.17.72l.57 2.52.21.92c.13.58.27 1.17.4 1.75s.19.87.29 1.3c.85 3.76 1.7 7.55 2.58 11.37v.14c.46 2 .93 4 1.41 6v.18c.22 1 .45 1.91.68 2.87v.18c.48 2 1 4 1.47 6l.07.29q.75 3 1.53 6c0 .11 0 .21.08.31.53 2 1.07 4 1.62 6a2.33 2.33 0 01.07.25q.86 3 1.75 6.09v.1c.3 1 .59 2 .89 3l.06.18c.62 2 1.26 4 1.93 6a2.25 2.25 0 00.08.24q1 3 2.06 6l.08.24q1.08 3 2.23 6l.07.16c.38 1 .77 2 1.17 3 .81 2 1.65 4 2.53 6l.06.15q1.31 3 2.7 5.91a2 2 0 00.1.21q1.39 2.92 2.9 5.84l.09.17q1.53 2.93 3.16 5.81l.05.09c.54 1 1.09 1.91 1.65 2.86 1.13 1.91 2.31 3.82 3.53 5.7l.1.16q1.37 2.11 2.82 4.2c-34.5-5.42-64.57-25.06-73-43.38-18-39-59.65-150.92-113.32-70 16.84-42.94 41.49-66.44 73.76-74.36z" fill="#f7c4e1"/><path d="M912.81 1433.85c5.42-.33 277.21-18.4 324.73-271.84 11-66.66-4.18-123.11-35.8-164.44 3.54.34 7.14.81 10.8 1.44 104 17.84 137.81 130.47 146 236.63-80.1-13.32-86.86 185.48-191 198.21z" fill="#c3e5fc"/><path d="M912.82 1433.84c6.07-3.64 114.53-71.07 72.73-218.84-1.58-5.58-3.32-11-5.17-16.26 64.73-108.87 120.27-211.09 221.37-201.18 29 37.85 44.15 88.4 38 147.85q-4-2.22-8.35-4.06c-46.24-19.69-83.19 9.41-102.87 55.65s-14.66 92.12 31.58 111.81c2.39 1 4.81 1.92 7.23 2.72-96.73 111.85-250.46 122.06-254.52 122.31z" fill="#f7c4e1"/><path d="M1239.77 1145.41a91 91 0 01-72.41 166.12c32.33-37.36 58.29-86.07 70.19-149.53.93-5.61 1.65-11.13 2.22-16.59z" fill="#fce19f"/><path d="M1128.55 1197c19.68-46.24 56.63-75.34 102.87-55.65q4.32 1.85 8.35 4.06c-.57 5.46-1.29 11-2.22 16.59-11.9 63.46-37.86 112.17-70.19 149.53-2.42-.8-4.84-1.7-7.23-2.72-46.24-19.69-51.27-65.57-31.58-111.81z" fill="#fff"/><path d="M1358.54 1235.63c.66.11 1.33.23 2 .37 82 17 62 197.84 62 197.84h-72c.05-.23 15.86-96.23 8-198.21z" fill="#fccab4"/><path d="M1358.54 1235.63c7.86 102-8 198-8 198.21h-183c104.14-12.73 110.9-211.53 191-198.21z" fill="#95c1a7"/><g fill="#161616"><path d="M1229.59 1043.83c12.61 21.13 11.62 48.73 10.26 72.49a329.86 329.86 0 01-10.94 67.08 345.24 345.24 0 01-60.62 121.73c-15.53 19.95-33.44 37.66-52.49 54.23-1.38 1.2.49 3.7 2 2.57 37-27.8 66.66-66.25 87.72-107.28a339.81 339.81 0 0037-132c1.79-26.51 2.63-56.06-11.59-79.55a.76.76 0 00-1.32.77zM1422.08 1324.23c-2.36-35.7-15.58-76.06-53.75-87-16.49-4.74-33.36-1.46-46.54 9.59-14.77 12.38-23.4 30.66-32.46 47.25-13.14 24.07-26.46 48.06-39.31 72.29-1.16 2.2 2.12 4.13 3.34 2 10.55-18.79 20.77-37.77 31.08-56.68 9-16.5 17.16-34.1 28.37-49.25 10.72-14.47 25.8-25.12 44.5-23.8 17.66 1.23 33.94 11.89 44.22 26 12.64 17.31 17.67 38.72 19.62 59.73 0 .59 1 .61.93 0zM1123.2 1010.55c-39.1 20.26-62.13 58.06-82.53 95.61-1.07 2 1.9 3.71 3 1.75 20.14-36.05 42.39-76.07 80.06-96.47.58-.32.07-1.2-.52-.89zM956 1153.23c-8.15-31.77-34.67-57-62.92-71.92-27.79-14.71-60.4-20.35-91.44-15.08-2.34.39-1.33 3.89 1 3.54a147.79 147.79 0 0188.72 14.52c28 14.19 53.82 38.72 63.21 69.34a.75.75 0 001.45-.4zM760.82 1072.53a1.64 1.64 0 000-3.28 1.64 1.64 0 000 3.28z"/></g><g fill="#1c1c1c"><path d="M919.55 530.84S935.7 544 951.7 560s29-19 50-15 30 39 42 37 55-6 73 28-4 62-26 61-108-51-138-39-50.29-94.32-33.15-101.16zM855.49 535.34S837.7 559 841.7 591s39 24 23 47-30 48-8 69 88-42 73-77-74.21-94.66-74.21-94.66zM694.15 711.19S647.7 821 727.7 905s152 113 154 155-68 48-59 96c68-25 251-97 251-97S739.6 681.38 694.15 711.19z"/></g><path d="M1139.43 845.49l-180.7 59.72-60.52-190a79.45 79.45 0 0149.63-97.54 79.46 79.46 0 0197.94 40.08z" fill="#70b1e8"/><path d="M839.57 744.48q-1.94 3.69-3.87 7.52c-69-41-184-111-224-88s0 51 21 43 94 66 146 116c31.6 30.39 82.3 24.86 118.73-7-12.22-24.71-39.04-53.24-57.86-71.52z" fill="#f99c73"/><path d="M931.7 767c28-71-16.22-127.78-16.22-127.78S879.1 669 839.57 744.48c18.82 18.28 45.64 46.81 57.86 71.54A126.56 126.56 0 00931.7 767z" fill="#70b1e8"/><path d="M867.7 571s-5 48 25 47 18 36 32 39 40-6 24-43-48-97-81-43z" fill="#f99c73"/><path d="M852.7 540s-15.58 28.92 7.56 42.06a32.53 32.53 0 0022.74 3.32c20.64-4.33 24.88-6.77 34.69 14.62 4-18 11-25 22-5 9 16.39 15-39-17-62s-59.99-13-69.99 7z" fill="#1c1c1c"/><path d="M1136.7 840l-142 52s-57-55-115-117-155-108-197-52c-25.24 33.65-25.93 135.92-22 221.08 2.15 46.76 5.68 88.36 7.29 110.62l64.73 27.82 43 18.48s10-186-3-240c0 0 39 35 68 73s154 149 233 125c139.98-54 62.98-219 62.98-219z" fill="#609374"/><path d="M1179.7 729s-77.3-74.43-158-105.31a160.46 160.46 0 00-25.76-8.23c-11.63-2.59-18-2.27-18-2.27L1018.7 729c9.65 11.58 44.25 40.56 86.75 74.53 4.06-10.68 12.62-24.73 24.21-38.8 10.8-13.09 22.07-23.6 31.41-29.85z" fill="#70b1e8"/><path d="M1176.66 753.67c5.66-11.65 7.25-20.69 3.36-23.89-3.39-2.8-10.34-.66-18.92 5.08 4.15 4.86 8.35 9.89 12.6 15.14z" fill="#1c1c1c"/><path d="M1331.7 916c-27.76-2-43.74-24.62-155-162.33l-3-3.67c-4.25-5.25-8.45-10.28-12.6-15.14-9.34 6.25-20.63 16.77-31.44 29.87-11.59 14.07-20.15 28.12-24.21 38.8q8.19 6.56 16.74 13.32C1209.77 886.25 1319.7 969 1319.7 969s69-26 96-37c-20-19-56-14-84-16zM981.59 631.86a74 74 0 00-4.16-18.68 79.19 79.19 0 00-29.59 4.49 79.19 79.19 0 00-32.36 21.56 150.69 150.69 0 00-13.3 13.09c6.56 24.12 24.4 40.86 43.69 39.08 22.57-2.09 38.56-28.75 35.72-59.54z" fill="#f99c73"/><path d="M708.25 1437L593.7 1240l-51 20.15-43 176.85z" fill="#1c1c1c"/><path d="M647.25 1437l-104.28-180.09L438.7 1437zM125.7 645l142.5 189 142.5-189z" fill="#70b1e8"/><path d="M480.7 1284.03V1160h-92v158.62z" fill="#1c1c1c"/><path d="M225.7 1160h-92v254.5l92-34.59zM388.7 1318.62V1160h-163v219.91z" fill="#e079ad"/><circle cx="268.2" cy="996.5" fill="#f7be59" r="163.5"/><circle cx="479.2" cy="360.5" fill="#609374" r="97.5"/><path d="M176.7 456h320v189h-320z" fill="#e86d6d"/><g fill="#1c1c1c"><path d="M489.7 456h106v189h-106zM431.7 996.5A163.49 163.49 0 00268.69 833c-.15.26-16.65 29.19 57 72 74 43 65.33 242-82.34 251q6.66 1.89 13.28 3.59c3.82.26 7.67.41 11.56.41A163.5 163.5 0 00431.7 996.5zM270.49 831L410.7 645h-234s94 18 116 56-25 132-25 132z"/><path d="M491.53 263.77c8.08 3.78 49.69 10 60.17 77.23 12 77-129 52.92-133 96a97.5 97.5 0 1072.83-173.19z"/></g><path d="M722.6 1117.44c0-.15.06-.29.1-.44 3.47-10.65 6.81-22.27 10-34.48L668 1054.7c.34 4.65.59 8.47.73 11.3.58 12-2.36 27.64-7.75 44.32 16.57 4.47 40.65 9.29 61.62 7.12z" fill="#f99c73"/><path d="M593.7 1214c-38 24-51 44-51 44s176-62 191-74c16.93-26.89-19.7-30-11.1-66.56-21 2.17-45.05-2.65-61.65-7.12-13.03 40.26-40.39 86.68-67.25 103.68z" fill="#f7be59"/><g fill="#161616"><path d="M105.42 1427.3c100.77-36.24 201.19-73.46 301.5-110.93q143.35-53.55 286.38-107.91 140.52-53.3 281-106.77 141.84-53.91 283.85-107.39Q1407.35 938.2 1557 883q19.47-7.18 39-14.33c2.78-1 1.58-5.51-1.23-4.48q-150.82 55.39-301.24 111.92-143.27 53.79-286.28 108.25-140.49 53.4-280.9 107-141.81 54-283.76 107.69c-99.46 37.58-199.12 74.62-298.63 112L105 1425.7c-1 .37-.58 2 .44 1.6z"/><path d="M1010.4 727c78.59 64.34 158.39 127.18 237.76 190.56q34.13 27.24 68.19 54.57c2.14 1.71 5.21-1.32 3.05-3.05-79.73-63.95-159.53-127.83-240-190.83-22.56-17.65-45.3-35.06-68-52.49-.7-.53-1.64.67-1 1.24zM1110 801.3a.44.44 0 000-.87.44.44 0 000 .87z"/><path d="M1109.8 801.94l-3.23.47 1.14 1.5c4.21-15.68 13.8-29.2 25.18-40.56 5.58-5.56 11.58-10.71 17.66-15.71 6.25-5.14 13.38-12.88 21.87-13.55 2.4-.18 2.44-3.92 0-3.77-7.61.48-13.2 5.47-18.88 10.06a274.85 274.85 0 00-21.92 19.13c-12.27 12.27-22.33 26.63-26.19 43.77a1.2 1.2 0 001.74 1.33l3-1.18a.77.77 0 00-.41-1.49zM1358.72 918.16a67.12 67.12 0 0128.33 3.22c9.52 3.18 16.45 8.86 24.23 14.87 1.62 1.26 3-1.26 2-2.59-6-7.7-16.19-12.76-25.31-15.62a57.23 57.23 0 00-29.42-1.1c-.67.14-.54 1.29.17 1.22zM1363.85 930.14c7.67.73 14.63 4.87 20.26 9.89 1.66 1.48 4.11-.94 2.45-2.45-6.47-5.94-14.14-8.17-22.71-8.84-.9-.07-.89 1.32 0 1.4zM1347 941.05c6.53.25 11.27 3.18 15.57 7.88 1.38 1.5 4.15-.55 2.87-2.22-4.24-5.55-11.58-8.31-18.44-7.65a1 1 0 000 2zM1319.15 949.05a27.08 27.08 0 007.54 4c.85.31 9.68 2.08 9.06 3.45-1.07 2.32 2.21 4.35 3.48 2 1.72-3.16-.22-6.24-3.49-7.2-2.44-.71-5.08-.72-7.55-1.34a79.44 79.44 0 01-8.26-2.8c-1.17-.44-1.6 1.21-.78 1.84z"/><path d="M1137 769.2a91.7 91.7 0 00-5.78 13.54c-1 3.4-3 8.58-1.71 12.19 1.21 3.38 5.41 4.92 7.82 7.22 4.3 4.11 6.55 9.52 7.85 15.22.37 1.6 3 1.28 2.91-.39a26.46 26.46 0 00-10.09-18.74c-1.84-1.47-3.25-2.19-4.49-4.33-1.66-2.86-.68-5.65 0-8.78a67.94 67.94 0 014.88-15.12c.44-.92-.92-1.73-1.38-.81zM1161.43 834.59a1.68 1.68 0 000-3.35 1.68 1.68 0 000 3.35zM1012.35 675.18c-.1 11.37 1.51 25.83 8.32 35.41 2.29 3.22 5.54 4 9.29 3.24 3.5-.73 6.63-2.64 10.29-2.62a16.51 16.51 0 0110 4c10.64 8.38 11.69 23.38 19.71 33.73a37.7 37.7 0 0026.38 14.48c1.67.15 2.06-2.65.4-2.95-11.49-2.08-21.54-8.47-27.29-18.78-5.24-9.4-7.44-20.58-15.83-28a21.44 21.44 0 00-11.46-5.51c-4.52-.53-8 1.59-12.22 2.5-5.67 1.2-7.41-2-9.48-6.22a67.9 67.9 0 01-3.74-9.54 67.1 67.1 0 01-2.92-19.75.72.72 0 00-1.43 0zM1110 762.66a1.45 1.45 0 000-2.89 1.45 1.45 0 000 2.89zM1125.13 751.56a61 61 0 0127.68-26.35c1.6-.77.2-3.09-1.38-2.36a56.63 56.63 0 00-27.76 27.86c-.46 1 .95 1.82 1.46.85zM893.46 684.27c-5.48 22.69-14.4 45.6-8.93 69.23 4.12 17.79 18.1 33.8 37.26 34.61l-2.31-1.75c3.69 13.13 6.77 26.66 11.3 39.53a2.09 2.09 0 004-1.11c-2.75-13.36-7.1-26.54-10.71-39.69a2.45 2.45 0 00-2.3-1.75c-19.56-.87-31.79-18.77-34.34-36.7-3-20.79 3.88-41.66 7.84-61.86.23-1.19-1.54-1.71-1.83-.51zM993.47 890.55c12.9-2.39 25.63-6.31 38.27-9.81 11.87-3.28 23.76-6.5 35.52-10.17s23.21-7.69 34.6-12.12c11.1-4.3 22.91-8.5 33.28-14.39 1.86-1.06.61-4.34-1.5-3.55-11.42 4.22-22.4 9.81-33.77 14.22s-22.94 8.47-34.61 12.12c-23.94 7.49-48.89 12.8-72.32 21.8a1 1 0 00.53 1.9z"/><path d="M792.52 712.67c33.86 16.41 61.67 43.26 88 69.59 29.12 29.11 58.28 58.18 87.14 87.55 16.45 16.74 32.59 33.79 48.85 50.72 1.73 1.8 4.33-.87 2.72-2.72-27.63-31.78-57.92-61.28-87.8-90.93-28.11-27.88-55.43-57.2-86.19-82.28a242.49 242.49 0 00-52.16-32.9c-.65-.3-1.22.65-.56 1zM769.54 811.62c6.6 75 6.84 150.43 5.76 225.61-.31 21.36-1.22 42.77-1 64.13 0 2.76 4.12 2.73 4.27 0 2-37.38 1.74-75.07 1.73-112.5 0-37.79-.66-75.65-3.11-113.37-1.38-21.38-3.59-42.6-6.15-63.87-.12-1-1.61-1-1.53 0zM669.24 1057.28c7.32 2.23 14.78 3.79 22 6.29a226.1 226.1 0 0121.72 8.85c13.75 6.41 26.8 14.07 40 21.44a1.69 1.69 0 001.71-2.92 433.21 433.21 0 00-42.49-22.5c-13.2-5.92-28.19-12-42.82-12.66a.77.77 0 00-.2 1.5zM765 1100.14a.67.67 0 000-1.34.67.67 0 000 1.34zM716.77 1048.88c3.38-78.36 6.26-156.84 13.57-235 1.7-18.24 2.68-38.55 16.23-52.42 1-1-.5-2.52-1.59-1.59-11.38 9.68-14.56 24.87-16.31 39-2.4 19.41-3.82 39-5.28 58.5-3 40.59-5 81.27-6.46 121.95-.81 23.16-1.34 46.32-1.94 69.48a.89.89 0 001.78 0zM765 751.75h3.38a1.5 1.5 0 000-3H765a1.5 1.5 0 000 3zM806.93 777.47q49 54.31 94.54 111.63c23.93 30.23 49.15 63.16 85.58 78.85 19.62 8.46 43.48 12 62.6.39a2 2 0 00-2-3.38c-18.82 10.74-41.72 7-60.67-1.43-17.2-7.64-32.08-19.53-45.31-32.76-13.53-13.51-25.49-28.47-37.45-43.36q-21.45-26.71-43.76-52.72-25.57-29.76-52.38-58.4c-.74-.79-1.89.38-1.18 1.18zM1077.08 946.6a1.5 1.5 0 000-3 1.5 1.5 0 000 3zM1051.69 896.69c9.48 13.95 21.74 29.79 40.58 28.25 2.45-.2 2.47-4 0-3.84-17.57 1.44-29.56-12.4-38.57-25.58-.84-1.22-2.85-.07-2 1.17zM700 1022.33a.47.47 0 000-.93.47.47 0 000 .93z"/><path d="M685.59 1021.29c30.33-1.41 67.92-10.55 84.77-38.41 1.34-2.22-2-4.1-3.44-2-17.9 26.07-51.51 35-81.33 38.92-.92.12-1 1.54 0 1.5zM674 903.78c-1.76 21.45 4.65 42.16 19.48 58 1.54 1.64 3.94-.8 2.45-2.45-13.44-15-21.37-35.32-20.21-55.55.06-1.11-1.63-1.09-1.72 0zM703.4 948.1a1.31 1.31 0 000-2.62 1.31 1.31 0 000 2.62zM734.91 1038.16a60.44 60.44 0 0020.32-11.69c1.68-1.47-.8-4-2.45-2.46a63.27 63.27 0 01-18.48 11.93c-1.32.55-.82 2.71.61 2.22zM741.11 938.71a62.6 62.6 0 008.39-18.61c1.31-5.12 2.67-11.41.41-16.45-1.68-3.74-4.4-6.3-4.73-10.67-.3-3.85.51-7.86 1-11.66 1-8.27 2.06-16.53 3-24.81.14-1.27-2.06-1.58-2.26-.3-1.18 7.59-2.28 15.2-3.35 22.81-.82 5.83-2.44 12.33-.63 18.12.93 3 3.12 5 4.46 7.71 1.78 3.61 1.32 7.66.76 11.53a54.47 54.47 0 01-8.16 21.69c-.44.69.65 1.32 1.09.64zM745.57 824.91a1.28 1.28 0 000-2.55 1.28 1.28 0 000 2.55zM782.86 827.82c1.2 10 3.13 21.42 8 30.38 4 7.18 10.42 5.84 16.64 2.57 5.84-3 11-4 16.18.88 4.53 4.32 6 10.35 7.81 16.14 2.4 7.91 5.81 16.41 14.27 19.46a12.79 12.79 0 009.31-.11c3.88-1.55 7-4.33 9.89 1.89 1.17 2.53 1.38 6 2 8.71 2.36 10.39 3.69 21.85 7.86 31.69 2.65 6.26 7.51 12.08 15 11 4.63-.68 8.65-4.12 13.42-2 4.44 2 7 7 9.26 11.05 10.08 18.48 25.08 34.07 45.81 40.17 2.06.61 2.77-2.39.87-3.14-19.17-7.57-33.43-20.17-43.13-38.34-3-5.65-6.92-12.64-13.74-14.11-3.75-.81-7 .73-10.46 1.83-6 1.91-9.88-.82-12.61-6.11-2-4-2.93-8.35-3.91-12.66l-4.21-18.52c-1.25-5.5-1.92-18.39-10.24-18-4.76.24-7.62 4.73-12.8 3.45-5.87-1.46-9.43-7-11.44-12.24-3.18-8.33-4.33-17.74-11.69-23.69a14.22 14.22 0 00-11.11-3.43c-4.1.62-7.38 3.26-11.09 4.89-8.51 3.76-11.37-6.12-13.49-12.32a103.74 103.74 0 01-4.57-19.68c-.14-1-2-.8-1.84.25zM993.12 1011.68l3.37.85c2.11.52 3-2.73.9-3.26l-3.37-.84c-2.11-.53-3 2.73-.9 3.25zM1137.16 900.58c9.54 39.11-8.25 79.42-41.75 100.91a1.54 1.54 0 001.55 2.65c36.27-20.81 52.16-64 41.12-103.82a.48.48 0 00-.92.26zM1062.74 1018.42a1.62 1.62 0 000-3.23 1.62 1.62 0 000 3.23zM942 953.36c-.34-2.14 10.77-8.09 12.51-9.18q6-3.76 12.38-7c9.48-4.9 20.35-10.81 31.36-9.14 1.87.28 2.74-2.52.8-2.92-12.55-2.59-25.38 4.9-36 10.83a172 172 0 00-17.25 11c-2.06 1.49-6.94 3.91-5.22 7 .44.81 1.52.22 1.39-.59zM1082.12 794c-6.48 15.85-12.93 31.22-25.18 43.63a67.69 67.69 0 01-42.76 20.39c-2.2.17-2.27 3.52 0 3.49 35.63-.55 62.41-34.65 69.43-67.1a.77.77 0 00-1.49-.41zM936.56 807.27c17.46 17.12 39.87 28.53 64.35 30.89 2.28.22 2.26-3.33 0-3.56-23.57-2.43-46.06-11.93-63.2-28.47-.75-.72-1.89.41-1.15 1.14zM976.58 779.37c12.38 1.8 25.36-2.41 33.61-12 1.35-1.57-.78-3.78-2.31-2.3-8.55 8.26-19.06 12.73-31 12.23-1.16 0-1.47 1.9-.28 2.07zM975.78 612c5 14.35 5 31.24.9 45.79-2 7.3-4.88 15.22-10.85 20.23-5.75 4.83-12.85 8.38-19.71 11.31-2.12.9-.59 4.61 1.58 3.74 7.5-3 15-6.75 21.13-12.05 5.85-5 8.77-12.54 10.93-19.76 5-16.82 3.55-33.41-2.56-49.65-.33-.88-1.74-.52-1.42.39zM866.84 590.32c2.71 14.27 6.45 27.93 23 30 4.2.51 8.6.42 12.64 1.77 5.46 1.83 8 6.5 10.37 11.4a253.34 253.34 0 0111.84 30.17c.84 2.52 4.75 1.48 4-1.1a197.93 197.93 0 00-10.21-27.07c-3.33-7.26-6.81-14.59-15-17.15s-17.81 0-24.82-5.8c-6.33-5.27-9.1-14.72-10.7-22.5-.15-.76-1.29-.43-1.15.32zM945.58 606.06c.88 8.25 5.18 16.45 9.59 23.34 1.36 2.11 4.77.13 3.38-2-4.57-6.95-7.65-14.51-11.75-21.69-.3-.53-1.29-.34-1.22.33zM900.25 649.46c2.7 9.47 8.09 18.18 14.61 25.51 1.42 1.59 3.59-.71 2.3-2.31-6-7.49-10.71-15.45-15.28-23.88a.89.89 0 00-1.63.68z"/><path d="M913.68 698.11c5 6.48 12.07 10.29 19.9 12.25 9.39 2.33 20.33 3.3 29.56-.08 19.11-7 26.39-28.47 29.61-46.71.37-2.07-2.69-3-3.21-.88-4 16.35-8.83 35.77-25.75 43.4-8.58 3.87-18.88 3.07-27.9 1.42-7.93-1.45-15.62-4-21.09-10.27-.53-.6-1.62.22-1.12.87zM988.36 617.1a110.53 110.53 0 011.46 13c.14 2 3.32 2 3.16 0a91.39 91.39 0 00-2.29-13.64c-.35-1.52-2.61-.86-2.33.65zM913.27 718.39c4 4.56 10.8 10.33 17.31 9.85 1.08-.08 1.7-1.61.59-2.18-2.7-1.41-5.73-1.94-8.46-3.34a26 26 0 01-7.73-6c-1-1.17-2.73.54-1.71 1.71zM905.56 804.87a35.4 35.4 0 009.71-7.67 48 48 0 006.87-10.56c.83-1.72-1.68-3.24-2.59-1.51a81.62 81.62 0 01-14.37 19.24.32.32 0 00.38.5zM596.11 681.28c-2.5 18.13 20.61 30.93 36.45 27.43 7.88-1.74 15.17-7.7 17-15.79 1.64-7.29-1.4-16.52-8.46-19.82a1.53 1.53 0 00-1.84 2.39c4.55 4.88 8.09 10.73 5.92 17.64s-9 11.06-15.69 12c-12.62 1.67-33.9-8.55-32.2-23.64.07-.66-1.08-.83-1.18-.16z"/><path d="M637 704.84c3 2.26 6.82 3.26 10.14 4.91a97.2 97.2 0 0110.55 6.13 89.61 89.61 0 019.9 7.67c3.12 2.79 5.6 6.11 8.64 8.94 1.14 1.06 3.31 0 2.76-1.61-2.49-7.38-11.7-13.35-18-17.41s-16.08-10-23.75-9.53a.49.49 0 00-.24.9zM607.9 685.6c7.23 10.9 19.48 21.65 33.5 16.37 2.17-.82 1.34-4.2-1-3.54-12.87 3.62-23.61-4.08-31.24-13.82-.57-.73-1.8.22-1.28 1zM625.83 686.12c5.48 4.24 11 8.57 18.13 5.34 2.12-1 .28-4.18-1.85-3.15-5.23 2.51-11.07-.9-15.21-4-1.1-.83-2.14 1-1.07 1.84zM626.07 674.27l3.14.73a1.26 1.26 0 001.51-.86 1.24 1.24 0 00-.86-1.51l-3.2-.53a1.15 1.15 0 00-1.38.78 1.14 1.14 0 00.79 1.39zM873.66 723.74c-5.23 21 2.07 43.53 19.24 56.88 2 1.59 5-1.25 2.88-2.88-15.92-12.59-24.42-33.54-20.87-53.66.14-.8-1-1.16-1.25-.34zM905.87 793.34a1.64 1.64 0 000-3.28 1.64 1.64 0 000 3.28zM733 1081.4c-8.24 18.83-16.48 38.51-11.38 59.42a45.59 45.59 0 005 12.47c2.67 4.47 6.7 8.37 8 13.52 2.61 10-4.46 19.6-12.63 24.46-2.3 1.36-.28 4.75 2.08 3.56a28.41 28.41 0 0014.91-18.9c2.19-10-3.25-16.17-8.25-24.13-13.34-21.21-3.85-48.27 3.82-69.72.33-.93-1.21-1.59-1.61-.68z"/><path d="M660.61 1108.82a86.56 86.56 0 0031.31 12.73c9.91 1.77 22 2.4 31.34-2 2.27-1.08.51-4-1.56-3.71-5.37.76-10.47 2.12-16 2.24a75 75 0 01-16.1-1.46c-9.82-1.93-19.11-5.63-28.38-9.29-.93-.36-1.42 1-.65 1.54zM641.27 1129.69c11.29 6.83 19.56 16.51 20.67 30 .21 2.59 4.16 2.67 4.1 0-.34-14.61-11.53-25.48-23.51-32.2a1.25 1.25 0 00-1.26 2.16zM632 1150.92c6.78 6.48 10.58 14.56 12.26 23.7.4 2.14 4.13 1.67 3.85-.52a40.45 40.45 0 00-13.92-25.36c-1.49-1.3-3.64.79-2.19 2.18zM616.24 1176.07c4.84 4.61 9.8 9.72 9 17-.25 2.42 3.73 2.5 3.85 0 .36-8.16-5.56-13.66-11.35-18.49-1.06-.89-2.57.56-1.54 1.54zM698.52 1164.73c-1.22-1.93-2.63-4-3-6.3-.54-3.1 1.69-7.45 5.28-4.89 4.55 3.25 2.51 10.09-.25 13.7-1.46 1.92 1.81 4.46 3.37 2.6 4.77-5.67 5.85-19.16-3.89-20.71a6.58 6.58 0 00-7.17 4.85c-1.39 4.43 1.17 8.48 3.67 11.94.86 1.19 2.84.11 2-1.19zM879.92 589.57a73.1 73.1 0 01-2.68 12.16c-.57 1.88-2.13 4.49-.62 6.31 2.93 3.51 10.39.93 13-1.54 1.68-1.56-.45-3.75-2.27-2.94a16.33 16.33 0 01-5.73 1.73 9 9 0 01-2.2-.09l.6-.61a11.38 11.38 0 01.43-2.87 57.38 57.38 0 000-12.15.29.29 0 00-.58 0zM891 590l.13-.14c2.56-2.89-3.41-4.9-3.35-1.39v.27a2 2 0 003.92 0v-.27c.06-3.51-5.91-1.5-3.35 1.39l.13.14a1.79 1.79 0 002.52 0zM870.78 590.46a2.64 2.64 0 00-.3.81 1.83 1.83 0 103.53 0 2.62 2.62 0 00-.29-.81 1.72 1.72 0 00-2.94 0zM898.55 608.25a5.22 5.22 0 012.31-2.12l1.34-.75c.19-.11.41-.21.59-.34a1 1 0 01.28-.14c.38-.1.23-.29-.43-.58 0 0-.32.66-.39.75a3.75 3.75 0 01-1.1.92 4.45 4.45 0 01-2.91.48l1.72 2.26a4.67 4.67 0 011.62-2.28c1-.72 1.78-.9 2.26-2.11a1.34 1.34 0 00-.61-1.51c-1.47-1-3.13.14-4.27 1.14a8.3 8.3 0 00-2.44 3.81 1.82 1.82 0 001.72 2.26 7.41 7.41 0 005.69-1.84c1.38-1.2 2.63-3.4 1.54-5.19-1.23-2-3.57-1.06-5 .12a8.42 8.42 0 00-3 4.65c-.14.64.78 1.11 1.11.47zM927 497.45a.26.26 0 000-.52.26.26 0 000 .52z"/><path d="M927.55 496.92c-2.17-1.85-3.83-3.34-4.12-6.32a8.73 8.73 0 014.46-8.73 8 8 0 0110.2 2.17c2.53 3.62 1.46 7.22-.53 10.79-3.19 5.73-8.74 14.15-1.45 19.29 1.55 1.09 3.8-1.11 2.66-2.66-5.88-8 6-15.17 5.07-23.79A12 12 0 00930.77 477a12.46 12.46 0 00-11.06 10.8c-.45 4 2.12 12.14 7.49 10.46a.8.8 0 00.35-1.33zM938.36 524.73h.43a2.16 2.16 0 100-4.31h-.43a2.15 2.15 0 100 4.29zM527.6 1277q-22 38.13-44.18 76.22l-21.89 37.66c-7.38 12.7-16.06 25.27-22.31 38.55a1.69 1.69 0 002.91 1.71c8.14-11.83 14.47-25.36 21.56-37.86l22-38.75q21.72-38.34 43.53-76.61a.91.91 0 00-1.58-.92zM549.75 1307.76c13.86 25.5 26.46 51.74 39.22 77.79 1.81 3.7 10.57 17.08 7.42 20.32-2 2.06-6.6 3.34-9.18 4.66-3.17 1.63-6.31 3.31-9.45 5-3.92 2.11-7.3 3.2-11.72 2-2.87-.79-5.51-2.25-8.39-3.06a20.36 20.36 0 00-14.81 1.24c-1 .48-.29 2.17.75 1.78 4.71-1.78 9.21-2.3 14-.5 3.1 1.15 5.94 3 9.14 3.88 5.73 1.6 10.38-1 15.45-3.44 3.52-1.67 7-3.43 10.46-5.19 2.28-1.16 6-2.35 7.69-4.41 3.53-4.28-1.39-10.58-3.34-14.52-14.41-29.27-30.32-57.66-46.09-86.2-.43-.78-1.62-.09-1.19.69z"/><path d="M547.26 1379.28a1.91 1.91 0 000-3.82 1.91 1.91 0 000 3.82zM134 1165c20.48-.18 41 .85 61.49 1q31.24.19 62.49.57 62 .81 123.94 2.94c3 .1 3-4.54 0-4.64Q320 1162.71 258 1162q-30.75-.39-61.49-.37c-20.85.05-41.66 1.23-62.49 1.4a1 1 0 000 2zM367.85 1200.68c-.72 18.76-1.49 37.64-5.42 56.06-1.81 8.5-3.93 18.94-8.53 26.46-4.36 7.11-13.83-2.36-20.32 1.88-4.65 3.05-5.89 9.38-7.47 14.26a44.22 44.22 0 01-11.82 18.37c-10.46 10-24.14 16.26-37.2 22.1-1.6.71-.44 3.51 1.2 2.85 19.74-8 42.54-18.31 50.67-39.66 1.94-5.11 2.81-14.93 9.61-15.35 5.35-.33 10.11 4.88 15.35 1.12 4.46-3.19 6-10.5 7.46-15.38a158.35 158.35 0 005-22.15c2.62-16.71 3.11-33.68 3.58-50.56 0-1.36-2-1.36-2.11 0zM199.59 1360.35a1.5 1.5 0 000-3 1.5 1.5 0 000 3zM153.84 1237.69c1.17 28-2.55 56-2.82 83.94a233.85 233.85 0 002.49 39c1 6.54 2.17 13.51 4.46 19.75 1.34 3.62 3.62 6.86 7.83 5.92 2.56-.58 1.47-4.52-1.09-3.94-1.53.36-3.36-4.69-3.65-5.71-.43-1.48-.83-3-1.21-4.46q-1-4-1.81-8.07a173.27 173.27 0 01-2.58-18.56 321.21 321.21 0 01-.78-36c.57-24 2.22-47.85 1-71.86-.06-1.2-1.92-1.21-1.87 0zM179.64 1384.13a1.06 1.06 0 000-2.11 1.06 1.06 0 000 2.11z"/><path d="M118.2 923.53c-16.4 44.53-18.93 94.51-1.71 139.24a155.5 155.5 0 0088.27 89.1c22.09 8.6 46.54 11.87 69.95 7.49 2.91-.55 1.61-4.79-1.21-4.39-41.87 5.92-83.8-8.84-114.7-37.32-32.8-30.25-49.36-73.65-50.68-117.81A210.15 210.15 0 01119.87 924c.38-1.06-1.29-1.5-1.67-.46z"/><path d="M302.08 927.78c26.43 36.74 32.88 86.74 14.93 128.51a135.3 135.3 0 01-36.88 49.76c-16.93 14.28-41.19 28-64 21-20-6.21-33-27.55-55.17-27.67-2.35 0-2.34 3.54 0 3.63 21.4.8 34.35 22.5 53.93 28.55 22.24 6.88 45.86-4.7 63.16-18.08 35-27 55.07-70.91 52-115.07a135.27 135.27 0 00-26.54-71.46c-.65-.88-2.15 0-1.49.87zM148.29 1067.81a1.07 1.07 0 000-2.13 1.07 1.07 0 000 2.13zM169.05 892.28c11.53-12.89 27.63-20.47 44.77-22.16 2.05-.2 2.09-3.41 0-3.23-18.09 1.53-34.35 10.31-46.29 23.87-.92 1 .59 2.56 1.52 1.52zM257.92 899.48l2.84 4.28a1.82 1.82 0 002.41.64 1.78 1.78 0 00.63-2.41l-2.86-4.27a1.79 1.79 0 00-2.39-.62 1.76 1.76 0 00-.63 2.38zM124.34 645.11c23 31.81 47.94 62.41 72.24 93.26 12.09 15.36 24.82 30.41 35.66 46.69 9.73 14.61 17.73 31.08 29.39 44.3 1.55 1.75 4.57-.56 3.26-2.52-10.1-15.07-19.59-30.54-29.73-45.58-10.45-15.5-22.56-29.89-34.12-44.56-24.59-31.22-48.76-63-74.6-93.21-1-1.14-3 .38-2.1 1.62zM196.62 663.48c20.6 4.09 43.32 13.3 58.2 28.6 8.07 8.3 10.67 19.42 12.38 30.52a132.69 132.69 0 01.05 37.76c-.27 2.06 3.34 2.57 3.66.49a126.78 126.78 0 00.22-37.36c-1.64-11.36-4.42-23.11-12.3-31.85-15.22-16.87-39.94-26.14-61.88-29.36-.77-.11-1.12 1-.33 1.2zM270.41 792.89a1.89 1.89 0 000-3.78c-2.42 0-2.43 3.78 0 3.78zM462.79 488.08c2 22.49 4.1 45.18 2.06 67.75-1 11-2.2 24.66-7.71 34.52-3.35 6-8.63 9.29-15.54 7.53-3.56-.91-7-2.73-10.8-2.27-7.7.92-11.71 10.9-15.37 16.61-2.57 4-5.55 8-9.95 10.21-5.76 2.81-12.47 1.81-18.5.67a159.79 159.79 0 00-31.7-3.08c-11.4.11-22.78 1-34.18.79-25.4-.5-51.6-6.25-76.74-.26-2 .46-1.09 3.28.82 3 24.8-4.11 49.15 0 74 .73 12 .35 24.05-.6 36.09-.71a150.45 150.45 0 0117 .67c6.37.66 12.57 2.29 18.92 3.1 8.71 1.12 16.81-.54 22.77-7.34a67.94 67.94 0 006.63-9.74c3.33-5.48 6.84-12.59 14.37-10.83 4.06 1 7.72 3.13 12 2.77a16.07 16.07 0 0010.31-5.54c6.68-7.39 7.95-19.79 9.28-29.22 3.72-26.35 1-53-1.79-79.32-.13-1.26-2.1-1.28-2 0zM215.74 621.56a1.84 1.84 0 000-3.68 1.84 1.84 0 000 3.68z"/><path d="M302.22 576.44c30.67 3.89 63.91 2.81 93.47-6.93a1.17 1.17 0 00-.62-2.26c-15.52 3.72-30.88 7.15-46.84 8.43a230.48 230.48 0 01-46-1c-1.11-.13-1.09 1.6 0 1.73zM411.56 561.42c2.52 0 2.53-3.91 0-3.91s-2.52 3.91 0 3.91zM190.57 474.34a99.78 99.78 0 00-2.67 33.24c.19 2 3.39 2 3.17 0A93.88 93.88 0 01193 475a1.28 1.28 0 00-2.46-.68zM424.63 297.21a102 102 0 00-23.69 54 107 107 0 00.61 30.22c1.58 9.66 4.22 21.09 10 29.21 1 1.37 3.54.6 2.91-1.23-3.14-9-7.22-17.22-9.1-26.71a104.75 104.75 0 0120.4-84.44c.62-.76-.43-1.85-1.09-1.09zM420.67 422.89a1.72 1.72 0 000-3.43 1.72 1.72 0 000 3.43z"/></g><g fill="#fff"><path d="M709.28 728.14c-8.94 8.42-17.12 18-22.28 29.23-5.64 12.34-5.73 24.23-5 37.52 1.6 28.83-12.2 56.36-8 85.2.29 1.93 3.71 1.5 3.45-.47-3.55-27.23 8.93-53.07 8.31-80.17-.3-13.24-2.11-25.25 2.68-38 4.61-12.3 12.56-23 22-32.06.8-.77-.41-2-1.21-1.21zM670.12 982.24a130.66 130.66 0 018.94 19c.75 2 4 1.08 3.21-.89a167.66 167.66 0 00-9.58-19.67 1.49 1.49 0 00-2.57 1.51zM716.57 995.06l22-10.71c1.58-.77.2-3.17-1.38-2.37l-21.75 11.18c-1.27.65-.15 2.52 1.11 1.9zM806.77 747.59c26.6 15.86 50.26 36.87 71.57 59.21s39.54 47.2 59.46 70.71c1 1.21 3.13-.39 2.21-1.7-17.78-25.44-38.53-49.51-60.15-71.73s-45.53-41.82-72.4-57.69a.69.69 0 00-.69 1.2zM956.76 896.6a1.82 1.82 0 000-3.63 1.82 1.82 0 000 3.63zM1026.14 936.48l5.06-1.65c1.67-.55.94-3.22-.73-2.65l-5 1.72c-1.62.55-.94 3.11.71 2.58zM1033.82 895.49c-1.1-3.92 5.34-4.18 8.25-5q5.17-1.47 10.36-2.85c7.23-1.94 14.5-3.76 21.76-5.61 1.87-.48 1.07-3.39-.8-2.9-13.82 3.67-27.65 7.8-41.06 12.76a.66.66 0 00-.38 1l1.08 2.86a.41.41 0 00.79-.21zM1092.28 875.45a1.71 1.71 0 000-3.42 1.71 1.71 0 000 3.42zM935 792c18.2 14.25 43.67 23.48 66.91 18.26 1.78-.4 1.42-3.36-.44-3.22-11.38.8-22.29 1.17-33.49-1.5a82.9 82.9 0 01-31.59-14.93c-1-.77-2.39.61-1.39 1.39zM1040.07 811.17a42.63 42.63 0 0013-8.68c1.49-1.47-.76-3.68-2.29-2.28a45.8 45.8 0 01-12.3 8.15c-1.92.85-.26 3.65 1.64 2.81zM895.8 696c-1.89 12.46-3.84 25.24-1.39 37.77A50.17 50.17 0 00911.06 762c1.6 1.38 4-.95 2.34-2.34a49.65 49.65 0 01-16.4-27.51c-2.49-11.82-1.07-24.07.33-35.93.1-.85-1.37-1.05-1.5-.2zM923.93 772.52a1.48 1.48 0 000-2.95 1.48 1.48 0 000 2.95zM1001.58 648.11c-.8 21.28-2.46 44.14-16.15 61.54a1.63 1.63 0 102.57 2c13.84-18.06 14.62-41.73 15.41-63.53 0-1.18-1.79-1.18-1.83 0zM1042.25 654.69c21.56 10.85 40.19 26.64 55.89 44.87 1.26 1.47 3.36-.66 2.12-2.12-15.82-18.67-35.59-32.9-57.42-43.76-.67-.33-1.27.67-.59 1zM867.23 567.07c-5.34-7.7-5.37-17.64 1.08-24.72 6.71-7.37 17.15-8 25.89-4.17 1.86.81 3.53-1.85 1.63-2.8-10.15-5.09-22.71-3.71-30.28 5.22a20.74 20.74 0 00.5 27.37c.56.63 1.67-.2 1.18-.9zM905.41 538.59a1.55 1.55 0 000-3.1 1.55 1.55 0 000 3.1zM976.92 569.83a57 57 0 0122.34-11.94c2-.56 1.12-3.65-.85-3.07a57.12 57.12 0 00-23 13.47c-1 1 .5 2.46 1.54 1.54zM1056.61 596.84a27.15 27.15 0 0129.81 7.56c1.41 1.57 3.67-.73 2.31-2.3a29.54 29.54 0 00-32.87-8c-1.68.63-.95 3.35.75 2.71zM939.07 679.26a30.18 30.18 0 0027-23.07c.49-2.08-2.73-3-3.21-.88a28.91 28.91 0 01-24 22.07c-1.06.15-.82 2 .26 1.88zM971.07 649.57a1.42 1.42 0 000-2.84 1.42 1.42 0 000 2.84zM637.38 665.58c8.48 2.7 16.88 5.28 25 9 7.71 3.6 14.37 8.67 21.83 12.62a1.52 1.52 0 001.83-2.38c-6.38-6.2-15.46-10.4-23.55-13.86a90 90 0 00-24.86-7c-1-.12-1.06 1.34-.22 1.61zM702.55 696.25a1.81 1.81 0 000-3.61 1.81 1.81 0 000 3.61zM1169.07 762.07c32.57 40.34 64.13 81.57 95.41 122.92 1.48 2 4.84 0 3.34-2-31.34-41.69-64.25-82-98.07-121.65-.4-.47-1.06.21-.68.68zM1293.14 928.39a1.42 1.42 0 000-2.84 1.42 1.42 0 000 2.84zM677 1077.83a49.53 49.53 0 01-3.57 28.75c-.83 1.86 1.87 3.52 2.79 1.63a40.94 40.94 0 002.36-30.81.82.82 0 00-1.58.43zM677.16 1138.29a1 1 0 000-2.08 1 1 0 000 2.08zM868 644.06c-7.78 9.35-10.82 22.45-9.87 34.4.17 2.11 3.47 2.15 3.33 0-.81-12.24 2.36-22.63 7.79-33.44.39-.76-.64-1.7-1.25-1zM198 563.76a201.32 201.32 0 013.85-34.45c2.16-10.65 4.77-21.94 9.37-31.84 2.4-5.17 5.84-9.33 11.37-11.25 4.88-1.7 10.31-1.61 15.42-1.9 11.88-.67 23.75-1.38 35.61-2.3 2.22-.17 2.26-3.61 0-3.49q-20.2 1.08-40.37 2.71c-9.66.78-18.14 3-23.06 12.07-5.32 9.75-7.66 21.88-9.76 32.67a214.89 214.89 0 00-3.88 37.78.73.73 0 001.45 0zM322.45 486.85a1.69 1.69 0 000-3.37 1.69 1.69 0 000 3.37zM419.1 349a73.43 73.43 0 00.07 30.29c.38 1.64 2.87.95 2.51-.69a71.9 71.9 0 01-.9-29.14c.2-1.08-1.46-1.55-1.68-.46zM165.9 673.55c12.12 14.25 24.59 28 35.73 43.08 10.86 14.69 20.5 30 30.16 45.51a2 2 0 003.42-2c-8.88-16.26-19.66-31.69-31-46.34s-23.21-29.25-36.85-41.71a1 1 0 00-1.46 1.46zM252.35 790.51a1.61 1.61 0 000-3.21 1.61 1.61 0 000 3.21zM147.56 922c-27.72 33.78-35.15 81.08-17.44 121.32.92 2.09 3.95.28 3.06-1.79-16.47-38.21-10.8-85.82 15.61-118.3.7-.86-.52-2.09-1.23-1.23zM150.4 1070.92a1.64 1.64 0 000-3.28 1.64 1.64 0 000 3.28zM170.64 942.5a55.26 55.26 0 0137.42-25.21c1.93-.36 1.11-3.3-.81-2.94a58.25 58.25 0 00-38.53 27c-.75 1.23 1.17 2.34 1.92 1.13zM185.45 1319.92c-1-35.6.18-71.5 2.54-107 .27-4 .2-8.33 1.17-12.26 1.31-5.28 5.07-7.45 10-8.69 8.51-2.11 17.49-3 26.2-3.66a246.94 246.94 0 0154.06 2.11c2.57.38 3.74-3.5 1.1-4a205.61 205.61 0 00-58-2.09c-8.49.89-17.62 1.73-25.78 4.36-6.35 2-10.05 6.13-11.16 12.72-1.54 9.16-1.38 18.89-1.8 28.16q-.69 14.72-1 29.45c-.4 20.32.31 40.59 1 60.9 0 1.06 1.69 1.07 1.66 0zM311.83 1196.51c2.45 0 2.46-3.82 0-3.82a1.91 1.91 0 000 3.82zM467.61 1416.2c12.51-11.66 22.41-27.48 30.89-42.2q6.5-11.28 11.93-23.13c3.58-7.82 7.84-16.23 9.69-24.65.38-1.72-2.14-3-3-1.26-3.81 7.72-6.26 16.2-9.83 24.08s-7.52 15.65-11.81 23.2-8.92 14.88-13.83 22-10.44 13.81-15.2 21c-.47.72.57 1.45 1.16.9zM532.73 1308.72a1.55 1.55 0 000-3.1 1.55 1.55 0 000 3.1z"/></g><path d="M268.17 1431.49q194.91.65 389.82.72t389.81.19c72.62 0 145.28.66 217.9.06 3 0 3-4.57 0-4.59-65.29-.54-130.62 0-195.91.06H875.88q-194.89.06-389.81.38-108.94.2-217.9.48a1.33 1.33 0 000 2.65z" fill="#161616"/></svg>